STARTFONT 2.1
COMMENT HBF_START_FONT 1.1
COMMENT HBF_CODE_SCHEME Big5 KC 6.22
FONT kcs14j
COMMENT
COMMENT Kuo Chiao Chinese System is contributed by KC INFORMATION CO.,
COMMENT LTD. to all TANET users running on PC, available from
COMMENT ftp://moers2.edu.tw/chinese-pub/chinese-sys/kc
COMMENT
COMMENT An equivalent full XLFD 1.5 conforming font name is
COMMENT	-KC-Song-medium-r-normal-jiantizi-14-140-75-75-c-160-Big5.KC.6.22-1
COMMENT which is formed from the first 15 properties listed in
COMMENT the STARTPROPERTIES section below.
COMMENT Any of these properties is optional, as in the simple HBF file.
COMMENT Last Modified by cyl@ifcss.org, 1994.11.25
COMMENT For ETen 3.10 emulation, use eb5-15j.hbf instead
COMMENT
SIZE 16 75 75
COMMENT HBF_BITMAP_BOUNDING_BOX 16 14 0 0
FONTBOUNDINGBOX 16 14 0 0
COMMENT
COMMENT  Begin Logical Font Description -- 20 special properties for this FONT
COMMENT
STARTPROPERTIES 20
FONTNAME_REGISTRY ""
FOUNDRY "Kuo Chiau"
FAMILY_NAME "Song"
WEIGHT_NAME "medium"
SLANT "r"
SETWIDTH_NAME "normal"
ADD_STYLE_NAME "jiantizi"
PIXEL_SIZE 16
POINT_SIZE 140
RESOLUTION_X 75
RESOLUTION_Y 75
SPACING "c"
AVERAGE_WIDTH 160
CHARSET_REGISTRY "Big5.KC.6.22"
CHARSET_ENCODING "1"
FONT_ASCENT 14
FONT_DESCENT 0
DEFAULT_CHAR 41280
COMMENT 0xA140 is the Space character.
COPYRIGHT "(c)1992 Kuo Chiao Information Systems, Ltd."
NOTICE "The hanzi bitmap files are kcchin16.f15 and kcsymbol.14"
ENDPROPERTIES
COMMENT This HBF header file is in the public domain.
COMMENT Users should observe the copyrights of the hanzi bitmap files.
COMMENT kcsymbol.14 is generated using kcsymbol.c from ifcss.org
COMMENT HBF_START_BYTE_2_RANGES 2
COMMENT HBF_BYTE_2_RANGE 0x40-0x7E
COMMENT HBF_BYTE_2_RANGE 0xA1-0xFE
COMMENT HBF_END_BYTE_2_RANGES
COMMENT
COMMENT HBF_START_CODE_RANGES 4
COMMENT HBF_CODE_RANGE 0xA140-0xA3BF kcsymbol.14  0
COMMENT HBF_CODE_RANGE 0xA3C0-0xA3FE kcsymbol.14  11424
COMMENT HBF_CODE_RANGE 0xA440-0xC67E kcchin16.f15 24736

STARTCHAR Ca140
ENCODING 41280
SWIDTH 666 0
DWIDTH 16 0
BBX 16 14 0 0
BITMAP
0000
0000
0000
0000
0000
0000
0000
0000
0000
0000
0000
0000
0000
0000
ENDCHAR
STARTCHAR Ca141
ENCODING 41281
SWIDTH 666 0
DWIDTH 16 0
BBX 16 14 0 0
BITMAP
0000
0000
0000
0000
0000
0000
0000
0c00
1e00
1e00
0c00
0400
0800
0000
ENDCHAR
STARTCHAR Ca142
ENCODING 41282
SWIDTH 666 0
DWIDTH 16 0
BBX 16 14 0 0
BITMAP
0000
0000
0000
0000
0000
0000
0000
0000
0800
0400
0600
0700
0300
0000
ENDCHAR
STARTCHAR Ca143
ENCODING 41283
SWIDTH 666 0
DWIDTH 16 0
BBX 16 14 0 0
BITMAP
0000
0000
0000
0000
0000
0000
0000
0000
0000
0700
0880
0880
0700
0000
ENDCHAR
STARTCHAR Ca144
ENCODING 41284
SWIDTH 666 0
DWIDTH 16 0
BBX 16 14 0 0
BITMAP
0000
0000
0000
0000
0000
0000
0000
0000
0000
0600
0f00
0f00
0600
0000
ENDCHAR
STARTCHAR Ca145
ENCODING 41285
SWIDTH 666 0
DWIDTH 16 0
BBX 16 14 0 0
BITMAP
0000
0000
0000
0000
0000
0000
0000
0000
0000
0700
0f80
0f80
0700
0000
ENDCHAR
STARTCHAR Ca146
ENCODING 41286
SWIDTH 666 0
DWIDTH 16 0
BBX 16 14 0 0
BITMAP
0000
0000
0000
0600
0f00
0600
0000
0000
0600
0f00
0600
0200
0400
0000
ENDCHAR
STARTCHAR Ca147
ENCODING 41287
SWIDTH 666 0
DWIDTH 16 0
BBX 16 14 0 0
BITMAP
0000
0000
0000
0000
0000
0600
0f00
0600
0000
0000
0600
0f00
0600
0000
ENDCHAR
STARTCHAR Ca148
ENCODING 41288
SWIDTH 666 0
DWIDTH 16 0
BBX 16 14 0 0
BITMAP
0000
07c0
0c60
1030
1830
1830
0060
00c0
0180
0180
0000
0000
0180
0180
ENDCHAR
STARTCHAR Ca149
ENCODING 41289
SWIDTH 666 0
DWIDTH 16 0
BBX 16 14 0 0
BITMAP
0000
0000
0180
03c0
03c0
03c0
0180
0180
0180
0000
0000
0180
0180
0000
ENDCHAR
STARTCHAR Ca14a
ENCODING 41290
SWIDTH 666 0
DWIDTH 16 0
BBX 16 14 0 0
BITMAP
0000
0000
0000
0000
0080
01c0
0080
0000
0000
0080
01c0
0080
0000
0000
ENDCHAR
STARTCHAR Ca14b
ENCODING 41291
SWIDTH 666 0
DWIDTH 16 0
BBX 16 14 0 0
BITMAP
0000
0000
0000
0000
0000
0000
18c6
3def
18c6
0000
0000
0000
0000
0000
ENDCHAR
STARTCHAR Ca14c
ENCODING 41292
SWIDTH 666 0
DWIDTH 16 0
BBX 16 14 0 0
BITMAP
0000
0000
0000
0000
0000
0000
0c18
1e3c
0c18
0000
0000
0000
0000
0000
ENDCHAR
STARTCHAR Ca14d
ENCODING 41293
SWIDTH 666 0
DWIDTH 16 0
BBX 16 14 0 0
BITMAP
0000
0000
0000
0000
0000
0000
0000
0000
0600
0f00
0600
0200
0400
0000
ENDCHAR
STARTCHAR Ca14e
ENCODING 41294
SWIDTH 666 0
DWIDTH 16 0
BBX 16 14 0 0
BITMAP
0000
0000
0000
0000
0000
0000
0000
0000
0000
0800
0600
0700
0300
0000
ENDCHAR
STARTCHAR Ca14f
ENCODING 41295
SWIDTH 666 0
DWIDTH 16 0
BBX 16 14 0 0
BITMAP
0000
0000
0000
0000
0000
0000
0000
0000
0000
0400
0e00
0400
0000
0000
ENDCHAR
STARTCHAR Ca150
ENCODING 41296
SWIDTH 666 0
DWIDTH 16 0
BBX 16 14 0 0
BITMAP
0000
0000
0000
0000
0000
0000
0000
0000
0600
0f00
0f00
0600
0000
0000
ENDCHAR
STARTCHAR Ca151
ENCODING 41297
SWIDTH 666 0
DWIDTH 16 0
BBX 16 14 0 0
BITMAP
0000
0000
0000
0600
0f00
0600
0000
0000
0600
0f00
0600
0200
0400
0000
ENDCHAR
STARTCHAR Ca152
ENCODING 41298
SWIDTH 666 0
DWIDTH 16 0
BBX 16 14 0 0
BITMAP
0000
0000
0000
0000
0400
0e00
0400
0000
0000
0400
0e00
0400
0000
0000
ENDCHAR
STARTCHAR Ca153
ENCODING 41299
SWIDTH 666 0
DWIDTH 16 0
BBX 16 14 0 0
BITMAP
0000
0000
0000
0700
0880
0080
0100
0200
0200
0000
0200
0200
0000
0000
ENDCHAR
STARTCHAR Ca154
ENCODING 41300
SWIDTH 666 0
DWIDTH 16 0
BBX 16 14 0 0
BITMAP
0000
0000
0000
0300
0780
0780
0780
0300
0300
0000
0000
0300
0300
0000
ENDCHAR
STARTCHAR Ca155
ENCODING 41301
SWIDTH 666 0
DWIDTH 16 0
BBX 16 14 0 0
BITMAP
0180
0180
0180
0180
0180
0180
0180
0180
0180
0180
0180
0180
0180
0180
ENDCHAR
STARTCHAR Ca156
ENCODING 41302
SWIDTH 666 0
DWIDTH 16 0
BBX 16 14 0 0
BITMAP
0000
0000
0000
0000
0000
0000
1ffc
1ffc
0000
0000
0000
0000
0000
0000
ENDCHAR
STARTCHAR Ca157
ENCODING 41303
SWIDTH 666 0
DWIDTH 16 0
BBX 16 14 0 0
BITMAP
0080
0080
0080
0080
0080
0080
0080
0080
0080
0080
0080
0080
0080
0080
ENDCHAR
STARTCHAR Ca158
ENCODING 41304
SWIDTH 666 0
DWIDTH 16 0
BBX 16 14 0 0
BITMAP
0000
0000
0000
0000
0000
0000
0000
1ffc
0000
0000
0000
0000
0000
0000
ENDCHAR
STARTCHAR Ca159
ENCODING 41305
SWIDTH 666 0
DWIDTH 16 0
BBX 16 14 0 0
BITMAP
6000
6000
6000
6000
6000
6000
6000
6000
6000
6000
6000
6000
6000
6000
ENDCHAR
STARTCHAR Ca15a
ENCODING 41306
SWIDTH 666 0
DWIDTH 16 0
BBX 16 14 0 0
BITMAP
0000
0000
0000
0000
0000
0000
0000
0000
0000
0000
0000
0000
0000
ffff
ENDCHAR
STARTCHAR Ca15b
ENCODING 41307
SWIDTH 666 0
DWIDTH 16 0
BBX 16 14 0 0
BITMAP
4000
2000
1000
1000
2000
4000
2000
1000
1000
2000
4000
2000
1000
1000
ENDCHAR
STARTCHAR Ca15c
ENCODING 41308
SWIDTH 666 0
DWIDTH 16 0
BBX 16 14 0 0
BITMAP
0000
0000
0000
0000
0000
0000
0000
0000
0000
0000
0000
0000
1084
294a
ENDCHAR
STARTCHAR Ca15d
ENCODING 41309
SWIDTH 666 0
DWIDTH 16 0
BBX 16 14 0 0
BITMAP
0000
0004
0008
0010
0030
0060
0060
0060
0060
0060
0030
0010
0008
0004
ENDCHAR
STARTCHAR Ca15e
ENCODING 41310
SWIDTH 666 0
DWIDTH 16 0
BBX 16 14 0 0
BITMAP
0000
1000
0800
0400
0600
0300
0300
0300
0300
0300
0600
0400
0800
1000
ENDCHAR
STARTCHAR Ca15f
ENCODING 41311
SWIDTH 666 0
DWIDTH 16 0
BBX 16 14 0 0
BITMAP
0000
0000
0000
0000
0000
0000
0000
0000
07f0
0ff8
180c
2002
4001
0000
ENDCHAR
STARTCHAR Ca160
ENCODING 41312
SWIDTH 666 0
DWIDTH 16 0
BBX 16 14 0 0
BITMAP
0000
0000
4001
2002
180c
0ff8
07f0
0000
0000
0000
0000
0000
0000
0000
ENDCHAR
STARTCHAR Ca161
ENCODING 41313
SWIDTH 666 0
DWIDTH 16 0
BBX 16 14 0 0
BITMAP
0000
000c
0010
0020
0020
0020
0040
0080
0040
0020
0020
0020
0010
000c
ENDCHAR
STARTCHAR Ca162
ENCODING 41314
SWIDTH 666 0
DWIDTH 16 0
BBX 16 14 0 0
BITMAP
0000
1800
0400
0200
0200
0200
0100
0080
0100
0200
0200
0200
0400
1800
ENDCHAR
STARTCHAR Ca163
ENCODING 41315
SWIDTH 666 0
DWIDTH 16 0
BBX 16 14 0 0
BITMAP
0000
0000
0000
0000
0000
0000
0000
0080
0140
1e3c
2002
4001
4001
0000
ENDCHAR
STARTCHAR Ca164
ENCODING 41316
SWIDTH 666 0
DWIDTH 16 0
BBX 16 14 0 0
BITMAP
0000
0000
4001
4001
2002
1e3c
0140
0080
0000
0000
0000
0000
0000
0000
ENDCHAR
STARTCHAR Ca165
ENCODING 41317
SWIDTH 666 0
DWIDTH 16 0
BBX 16 14 0 0
BITMAP
0000
0008
0010
0020
0040
0040
0040
0040
0040
0040
0040
0020
0010
0008
ENDCHAR
STARTCHAR Ca166
ENCODING 41318
SWIDTH 666 0
DWIDTH 16 0
BBX 16 14 0 0
BITMAP
0000
0800
0400
0200
0100
0100
0100
0100
0100
0100
0100
0200
0400
0800
ENDCHAR
STARTCHAR Ca167
ENCODING 41319
SWIDTH 666 0
DWIDTH 16 0
BBX 16 14 0 0
BITMAP
0000
0000
0000
0000
0000
0000
0000
0000
07f0
0808
1004
2002
4001
0000
ENDCHAR
STARTCHAR Ca168
ENCODING 41320
SWIDTH 666 0
DWIDTH 16 0
BBX 16 14 0 0
BITMAP
0000
0000
4001
2002
1004
0808
07f0
0000
0000
0000
0000
0000
0000
0000
ENDCHAR
STARTCHAR Ca169
ENCODING 41321
SWIDTH 666 0
DWIDTH 16 0
BBX 16 14 0 0
BITMAP
0000
007c
0078
0070
0060
0060
0060
0060
0060
0060
0060
0070
0078
007c
ENDCHAR
STARTCHAR Ca16a
ENCODING 41322
SWIDTH 666 0
DWIDTH 16 0
BBX 16 14 0 0
BITMAP
0000
1f00
0f00
0700
0300
0300
0300
0300
0300
0300
0300
0700
0f00
1f00
ENDCHAR
STARTCHAR Ca16b
ENCODING 41323
SWIDTH 666 0
DWIDTH 16 0
BBX 16 14 0 0
BITMAP
0000
0000
0000
0000
0000
0000
0000
0000
7fff
7fff
7007
6003
4001
0000
ENDCHAR
STARTCHAR Ca16c
ENCODING 41324
SWIDTH 666 0
DWIDTH 16 0
BBX 16 14 0 0
BITMAP
0000
0000
4001
6003
7007
7fff
7fff
0000
0000
0000
0000
0000
0000
0000
ENDCHAR
STARTCHAR Ca16d
ENCODING 41325
SWIDTH 666 0
DWIDTH 16 0
BBX 16 14 0 0
BITMAP
0000
0042
0084
0108
0210
0420
0840
1080
0840
0420
0210
0108
0084
0042
ENDCHAR
STARTCHAR Ca16e
ENCODING 41326
SWIDTH 666 0
DWIDTH 16 0
BBX 16 14 0 0
BITMAP
0000
2100
1080
0840
0420
0210
0108
0084
0108
0210
0420
0840
1080
2100
ENDCHAR
STARTCHAR Ca16f
ENCODING 41327
SWIDTH 666 0
DWIDTH 16 0
BBX 16 14 0 0
BITMAP
0000
0080
0140
0220
0410
0808
1084
2142
0220
0410
0808
1004
2002
0000
ENDCHAR
STARTCHAR Ca170
ENCODING 41328
SWIDTH 666 0
DWIDTH 16 0
BBX 16 14 0 0
BITMAP
0000
0000
2002
1004
0808
0410
0220
2142
1084
0808
0410
0220
0140
0080
ENDCHAR
STARTCHAR Ca171
ENCODING 41329
SWIDTH 666 0
DWIDTH 16 0
BBX 16 14 0 0
BITMAP
0000
0000
0020
0040
0080
0100
0200
0400
0200
0100
0080
0040
0020
0000
ENDCHAR
STARTCHAR Ca172
ENCODING 41330
SWIDTH 666 0
DWIDTH 16 0
BBX 16 14 0 0
BITMAP
0000
0000
0200
0100
0080
0040
0020
0010
0020
0040
0080
0100
0200
0000
ENDCHAR
STARTCHAR Ca173
ENCODING 41331
SWIDTH 666 0
DWIDTH 16 0
BBX 16 14 0 0
BITMAP
0000
0100
0380
06c0
0c60
1830
0000
0000
0000
0000
0000
0000
0000
0000
ENDCHAR
STARTCHAR Ca174
ENCODING 41332
SWIDTH 666 0
DWIDTH 16 0
BBX 16 14 0 0
BITMAP
0000
0000
0000
2002
1004
0808
0410
0220
0140
0080
0000
0000
0000
0000
ENDCHAR
STARTCHAR Ca175
ENCODING 41333
SWIDTH 666 0
DWIDTH 16 0
BBX 16 14 0 0
BITMAP
0000
0000
00ff
0080
0080
0080
0080
0080
0080
0080
0000
0000
0000
0000
ENDCHAR
STARTCHAR Ca176
ENCODING 41334
SWIDTH 666 0
DWIDTH 16 0
BBX 16 14 0 0
BITMAP
0000
0000
0000
0000
0000
0080
0080
0080
0080
0080
0080
0080
7f80
0000
ENDCHAR
STARTCHAR Ca177
ENCODING 41335
SWIDTH 666 0
DWIDTH 16 0
BBX 16 14 0 0
BITMAP
0000
0000
0000
0000
0000
7f80
0080
0080
0080
0080
0080
0080
0080
0000
ENDCHAR
STARTCHAR Ca178
ENCODING 41336
SWIDTH 666 0
DWIDTH 16 0
BBX 16 14 0 0
BITMAP
0000
0000
0080
0080
0080
0080
0080
0080
0080
00ff
0000
0000
0000
0000
ENDCHAR
STARTCHAR Ca179
ENCODING 41337
SWIDTH 666 0
DWIDTH 16 0
BBX 16 14 0 0
BITMAP
0000
0000
01ff
0101
017f
0140
0140
0140
0140
0140
01c0
0000
0000
0000
ENDCHAR
STARTCHAR Ca17a
ENCODING 41338
SWIDTH 666 0
DWIDTH 16 0
BBX 16 14 0 0
BITMAP
0000
0000
0000
0000
01c0
0140
0140
0140
0140
0140
7f40
4040
7fc0
0000
ENDCHAR
STARTCHAR Ca17b
ENCODING 41339
SWIDTH 666 0
DWIDTH 16 0
BBX 16 14 0 0
BITMAP
0000
0000
0000
0000
7fc0
4040
7f40
0140
0140
0140
0140
0140
01c0
0000
ENDCHAR
STARTCHAR Ca17c
ENCODING 41340
SWIDTH 666 0
DWIDTH 16 0
BBX 16 14 0 0
BITMAP
0000
0000
01c0
0140
0140
0140
0140
0140
017f
0101
01ff
0000
0000
0000
ENDCHAR
STARTCHAR Ca17d
ENCODING 41341
SWIDTH 666 0
DWIDTH 16 0
BBX 16 14 0 0
BITMAP
0000
0000
0000
0004
0008
0018
0018
0018
0018
0018
0008
0004
0000
0000
ENDCHAR
STARTCHAR Ca17e
ENCODING 41342
SWIDTH 666 0
DWIDTH 16 0
BBX 16 14 0 0
BITMAP
0000
0000
0000
2000
1000
1800
1800
1800
1800
1800
1000
2000
0000
0000
ENDCHAR
STARTCHAR Ca1a1
ENCODING 41377
SWIDTH 666 0
DWIDTH 16 0
BBX 16 14 0 0
BITMAP
0000
0000
000c
0010
0010
0010
0010
0020
0010
0010
0010
0010
000c
0000
ENDCHAR
STARTCHAR Ca1a2
ENCODING 41378
SWIDTH 666 0
DWIDTH 16 0
BBX 16 14 0 0
BITMAP
0000
0000
3000
0800
0800
0800
0800
0400
0800
0800
0800
0800
3000
0000
ENDCHAR
STARTCHAR Ca1a3
ENCODING 41379
SWIDTH 666 0
DWIDTH 16 0
BBX 16 14 0 0
BITMAP
0000
0000
0010
0020
0020
0020
0020
0020
0020
0020
0020
0010
0000
0000
ENDCHAR
STARTCHAR Ca1a4
ENCODING 41380
SWIDTH 666 0
DWIDTH 16 0
BBX 16 14 0 0
BITMAP
0000
0000
0800
0400
0400
0400
0400
0400
0400
0400
0400
0400
0800
0000
ENDCHAR
STARTCHAR Ca1a5
ENCODING 41381
SWIDTH 666 0
DWIDTH 16 0
BBX 16 14 0 0
BITMAP
0008
0010
0038
003c
0018
0000
0000
0000
0000
0000
0000
0000
0000
0000
ENDCHAR
STARTCHAR Ca1a6
ENCODING 41382
SWIDTH 666 0
DWIDTH 16 0
BBX 16 14 0 0
BITMAP
1800
3c00
1c00
0800
3000
0000
0000
0000
0000
0000
0000
0000
0000
0000
ENDCHAR
STARTCHAR Ca1a7
ENCODING 41383
SWIDTH 666 0
DWIDTH 16 0
BBX 16 14 0 0
BITMAP
0044
0088
0198
01dc
0198
0000
0000
0000
0000
0000
0000
0000
0000
0000
ENDCHAR
STARTCHAR Ca1a8
ENCODING 41384
SWIDTH 666 0
DWIDTH 16 0
BBX 16 14 0 0
BITMAP
7700
7700
3300
2200
4400
0000
0000
0000
0000
0000
0000
0000
0000
0000
ENDCHAR
STARTCHAR Ca1a9
ENCODING 41385
SWIDTH 666 0
DWIDTH 16 0
BBX 16 14 0 0
BITMAP
7700
7700
3300
1100
0880
0000
0000
0000
0000
0000
0000
0000
0000
0000
ENDCHAR
STARTCHAR Ca1aa
ENCODING 41386
SWIDTH 666 0
DWIDTH 16 0
BBX 16 14 0 0
BITMAP
00ee
00ee
00cc
0088
0110
0000
0000
0000
0000
0000
0000
0000
0000
0000
ENDCHAR
STARTCHAR Ca1ab
ENCODING 41387
SWIDTH 666 0
DWIDTH 16 0
BBX 16 14 0 0
BITMAP
0700
0380
00c0
0020
0000
0000
0000
0000
0000
0000
0000
0000
0000
0000
ENDCHAR
STARTCHAR Ca1ac
ENCODING 41388
SWIDTH 666 0
DWIDTH 16 0
BBX 16 14 0 0
BITMAP
00c0
01e0
01c0
0180
0300
0400
0000
0000
0000
0000
0000
0000
0000
0000
ENDCHAR
STARTCHAR Ca1ad
ENCODING 41389
SWIDTH 666 0
DWIDTH 16 0
BBX 16 14 0 0
BITMAP
0000
0000
0420
0420
043e
07e0
7c20
0420
043e
07e0
7c20
0420
0420
0000
ENDCHAR
STARTCHAR Ca1ae
ENCODING 41390
SWIDTH 666 0
DWIDTH 16 0
BBX 16 14 0 0
BITMAP
0700
0d80
18c0
18c0
0d80
0700
0e00
1b3c
3190
30d0
3070
3030
1878
0fce
ENDCHAR
STARTCHAR Ca1af
ENCODING 41391
SWIDTH 666 0
DWIDTH 16 0
BBX 16 14 0 0
BITMAP
0000
2082
1084
0888
0490
02a0
01c0
3ffe
01c0
02a0
0490
0888
1084
2082
ENDCHAR
STARTCHAR Ca1b0
ENCODING 41392
SWIDTH 666 0
DWIDTH 16 0
BBX 16 14 0 0
BITMAP
0000
0000
1084
09c8
0490
0220
1144
388e
1144
0220
0490
09c8
1084
0000
ENDCHAR
STARTCHAR Ca1b1
ENCODING 41393
SWIDTH 666 0
DWIDTH 16 0
BBX 16 14 0 0
BITMAP
0000
0000
01c0
0230
0200
01c0
0220
0410
0220
01c0
0020
0620
01c0
0000
ENDCHAR
STARTCHAR Ca1b2
ENCODING 41394
SWIDTH 666 0
DWIDTH 16 0
BBX 16 14 0 0
BITMAP
0000
0000
0000
0000
0000
0318
0630
0c60
0840
1080
0000
0000
0000
0000
ENDCHAR
STARTCHAR Ca1b3
ENCODING 41395
SWIDTH 666 0
DWIDTH 16 0
BBX 16 14 0 0
BITMAP
0000
0000
03c0
0c30
1008
2004
2004
2004
2004
2004
1008
0c30
03c0
0000
ENDCHAR
STARTCHAR Ca1b4
ENCODING 41396
SWIDTH 666 0
DWIDTH 16 0
BBX 16 14 0 0
BITMAP
0000
0000
03c0
0ff0
1ff8
3ffc
3ffc
3ffc
3ffc
3ffc
1ff8
0ff0
03c0
0000
ENDCHAR
STARTCHAR Ca1b5
ENCODING 41397
SWIDTH 666 0
DWIDTH 16 0
BBX 16 14 0 0
BITMAP
0000
0080
0140
0140
0220
0220
0410
0410
0808
0808
1004
1004
2002
2002
ENDCHAR
STARTCHAR Ca1b6
ENCODING 41398
SWIDTH 666 0
DWIDTH 16 0
BBX 16 14 0 0
BITMAP
0000
0080
01c0
01c0
03e0
03e0
07f0
07f0
0ff8
0ff8
1ffc
1ffc
3ffe
3ffe
ENDCHAR
STARTCHAR Ca1b7
ENCODING 41399
SWIDTH 666 0
DWIDTH 16 0
BBX 16 14 0 0
BITMAP
0000
0000
03e0
0c18
1004
21c2
2222
2222
2222
21c2
1004
0c18
03e0
0000
ENDCHAR
STARTCHAR Ca1b8
ENCODING 41400
SWIDTH 666 0
DWIDTH 16 0
BBX 16 14 0 0
BITMAP
0100
0280
0280
0440
0440
fc7e
4004
2008
1010
0820
0920
1290
1450
2828
ENDCHAR
STARTCHAR Ca1b9
ENCODING 41401
SWIDTH 666 0
DWIDTH 16 0
BBX 16 14 0 0
BITMAP
0100
0380
0380
07c0
07c0
fffe
7ffc
3ff8
1ff0
0fe0
0fe0
1ef0
1c70
3838
ENDCHAR
STARTCHAR Ca1ba
ENCODING 41402
SWIDTH 666 0
DWIDTH 16 0
BBX 16 14 0 0
BITMAP
0100
0380
06c0
0c60
1830
3018
600c
c006
600c
3018
1830
0c60
06c0
0380
ENDCHAR
STARTCHAR Ca1bb
ENCODING 41403
SWIDTH 666 0
DWIDTH 16 0
BBX 16 14 0 0
BITMAP
0100
0380
07c0
0fe0
1ff0
3ff8
7ffc
fffe
7ffc
3ff8
1ff0
0fe0
07c0
0380
ENDCHAR
STARTCHAR Ca1bc
ENCODING 41404
SWIDTH 666 0
DWIDTH 16 0
BBX 16 14 0 0
BITMAP
7fff
4001
4001
4001
4001
4001
4001
4001
4001
4001
4001
4001
4001
7fff
ENDCHAR
STARTCHAR Ca1bd
ENCODING 41405
SWIDTH 666 0
DWIDTH 16 0
BBX 16 14 0 0
BITMAP
7fff
7fff
7fff
7fff
7fff
7fff
7fff
7fff
7fff
7fff
7fff
7fff
7fff
7fff
ENDCHAR
STARTCHAR Ca1be
ENCODING 41406
SWIDTH 666 0
DWIDTH 16 0
BBX 16 14 0 0
BITMAP
0000
7fff
2002
2002
1004
1004
0808
0808
0410
0410
0220
0220
0140
0140
ENDCHAR
STARTCHAR Ca1bf
ENCODING 41407
SWIDTH 666 0
DWIDTH 16 0
BBX 16 14 0 0
BITMAP
0000
7fff
3ffe
3ffe
1ffc
1ffc
0ff8
0ff8
07f0
07f0
03e0
03e0
01c0
01c0
ENDCHAR
STARTCHAR Ca1c0
ENCODING 41408
SWIDTH 666 0
DWIDTH 16 0
BBX 16 14 0 0
BITMAP
03c0
0c30
1008
2004
2ff4
4082
4082
44e2
4482
2484
2ff4
1008
0c30
03c0
ENDCHAR
STARTCHAR Ca1c1
ENCODING 41409
SWIDTH 666 0
DWIDTH 16 0
BBX 16 14 0 0
BITMAP
0000
0000
0e00
1108
2010
2020
1240
0c80
013c
0242
0442
0842
103c
0000
ENDCHAR
STARTCHAR Ca1c2
ENCODING 41410
SWIDTH 666 0
DWIDTH 16 0
BBX 16 14 0 0
BITMAP
0000
0000
0000
1ffc
0000
0000
0000
0000
0000
0000
0000
0000
0000
0000
ENDCHAR
STARTCHAR Ca1c3
ENCODING 41411
SWIDTH 666 0
DWIDTH 16 0
BBX 16 14 0 0
BITMAP
0000
0000
1ffc
1ffc
1ffc
0000
0000
0000
0000
0000
0000
0000
0000
0000
ENDCHAR
STARTCHAR Ca1c4
ENCODING 41412
SWIDTH 666 0
DWIDTH 16 0
BBX 16 14 0 0
BITMAP
0000
0000
0000
0000
0000
0000
0000
0000
0000
0000
0000
0000
1ffc
0000
ENDCHAR
STARTCHAR Ca1c5
ENCODING 41413
SWIDTH 666 0
DWIDTH 16 0
BBX 16 14 0 0
BITMAP
0000
0000
0000
0000
0000
0000
0000
0000
0000
0000
1ffc
1ffc
1ffc
0000
ENDCHAR
STARTCHAR Ca1c6
ENCODING 41414
SWIDTH 666 0
DWIDTH 16 0
BBX 16 14 0 0
BITMAP
0000
0000
0000
39ce
39ce
0000
0000
0000
0000
0000
0000
0000
0000
0000
ENDCHAR
STARTCHAR Ca1c7
ENCODING 41415
SWIDTH 666 0
DWIDTH 16 0
BBX 16 14 0 0
BITMAP
0000
0000
0000
3ccf
3ccf
0000
0000
0000
0000
0000
0000
0000
0000
0000
ENDCHAR
STARTCHAR Ca1c8
ENCODING 41416
SWIDTH 666 0
DWIDTH 16 0
BBX 16 14 0 0
BITMAP
0000
0000
0000
0000
0000
0000
0000
0000
0000
0000
39ce
39ce
0000
0000
ENDCHAR
STARTCHAR Ca1c9
ENCODING 41417
SWIDTH 666 0
DWIDTH 16 0
BBX 16 14 0 0
BITMAP
0000
0000
0000
0000
0000
0000
0000
0000
0000
0000
3ccf
3ccf
0000
0000
ENDCHAR
STARTCHAR Ca1ca
ENCODING 41418
SWIDTH 666 0
DWIDTH 16 0
BBX 16 14 0 0
BITMAP
0000
0000
0410
0a28
1144
2082
0000
0000
0000
0000
0000
0000
0000
0000
ENDCHAR
STARTCHAR Ca1cb
ENCODING 41419
SWIDTH 666 0
DWIDTH 16 0
BBX 16 14 0 0
BITMAP
0000
0000
0410
0e38
1b6c
31c6
2082
0000
0000
0000
0000
0000
0000
0000
ENDCHAR
STARTCHAR Ca1cc
ENCODING 41420
SWIDTH 666 0
DWIDTH 16 0
BBX 16 14 0 0
BITMAP
0000
0000
0480
0480
1fe0
0480
0480
0480
1fe0
0480
0480
0000
0000
0000
ENDCHAR
STARTCHAR Ca1cd
ENCODING 41421
SWIDTH 666 0
DWIDTH 16 0
BBX 16 14 0 0
BITMAP
0000
0000
0000
0000
0000
0700
0880
0500
0200
0520
08a0
0840
07b8
0000
ENDCHAR
STARTCHAR Ca1ce
ENCODING 41422
SWIDTH 666 0
DWIDTH 16 0
BBX 16 14 0 0
BITMAP
0000
0000
0080
0888
0490
02a0
01c0
01c0
02a0
0490
0888
0080
0000
0000
ENDCHAR
STARTCHAR Ca1cf
ENCODING 41423
SWIDTH 666 0
DWIDTH 16 0
BBX 16 14 0 0
BITMAP
0000
0000
0000
0080
0080
0080
0080
1ffc
0080
0080
0080
0080
0000
0000
ENDCHAR
STARTCHAR Ca1d0
ENCODING 41424
SWIDTH 666 0
DWIDTH 16 0
BBX 16 14 0 0
BITMAP
0000
0000
0000
0000
0000
0000
0000
1ffc
0000
0000
0000
0000
0000
0000
ENDCHAR
STARTCHAR Ca1d1
ENCODING 41425
SWIDTH 666 0
DWIDTH 16 0
BBX 16 14 0 0
BITMAP
0000
0000
1004
0808
0410
0220
0140
0080
0140
0220
0410
0808
1004
0000
ENDCHAR
STARTCHAR Ca1d2
ENCODING 41426
SWIDTH 666 0
DWIDTH 16 0
BBX 16 14 0 0
BITMAP
0000
0000
0000
0180
0180
0000
0000
1ffc
0000
0000
0180
0180
0000
0000
ENDCHAR
STARTCHAR Ca1d3
ENCODING 41427
SWIDTH 666 0
DWIDTH 16 0
BBX 16 14 0 0
BITMAP
0000
0000
0000
0080
0080
0080
0080
1ffc
0080
0080
0080
0000
1ffc
0000
ENDCHAR
STARTCHAR Ca1d4
ENCODING 41428
SWIDTH 666 0
DWIDTH 16 0
BBX 16 14 0 0
BITMAP
0000
0000
0000
01ff
0100
0100
0100
0100
0200
4200
2400
1400
0800
0000
ENDCHAR
STARTCHAR Ca1d5
ENCODING 41429
SWIDTH 666 0
DWIDTH 16 0
BBX 16 14 0 0
BITMAP
0000
0000
0060
00c0
0180
0300
0600
0c00
0600
0300
0180
00c0
0060
0000
ENDCHAR
STARTCHAR Ca1d6
ENCODING 41430
SWIDTH 666 0
DWIDTH 16 0
BBX 16 14 0 0
BITMAP
0000
0000
0300
0180
00c0
0060
0030
0018
0030
0060
00c0
0180
0300
0000
ENDCHAR
STARTCHAR Ca1d7
ENCODING 41431
SWIDTH 666 0
DWIDTH 16 0
BBX 16 14 0 0
BITMAP
0000
0000
0000
0000
0000
1ffc
0000
0000
0000
1ffc
0000
0000
0000
0000
ENDCHAR
STARTCHAR Ca1d8
ENCODING 41432
SWIDTH 666 0
DWIDTH 16 0
BBX 16 14 0 0
BITMAP
0000
0000
0080
0100
0200
0400
0200
0100
0080
0000
1ff8
0000
1ff8
0000
ENDCHAR
STARTCHAR Ca1d9
ENCODING 41433
SWIDTH 666 0
DWIDTH 16 0
BBX 16 14 0 0
BITMAP
0000
0000
0100
0080
0040
0020
0040
0080
0100
0000
1ff8
0000
1ff8
0000
ENDCHAR
STARTCHAR Ca1da
ENCODING 41434
SWIDTH 666 0
DWIDTH 16 0
BBX 16 14 0 0
BITMAP
0000
0000
0008
0010
0020
3ffe
0080
0100
3ffe
0400
0800
1000
0000
0000
ENDCHAR
STARTCHAR Ca1db
ENCODING 41435
SWIDTH 666 0
DWIDTH 16 0
BBX 16 14 0 0
BITMAP
0000
0000
0000
0000
0000
1c1c
2362
4081
4081
2362
1c1c
0000
0000
0000
ENDCHAR
STARTCHAR Ca1dc
ENCODING 41436
SWIDTH 666 0
DWIDTH 16 0
BBX 16 14 0 0
BITMAP
0000
0000
0000
0c00
0c00
0000
1ffc
0000
0000
1ffc
0000
0018
0018
0000
ENDCHAR
STARTCHAR Ca1dd
ENCODING 41437
SWIDTH 666 0
DWIDTH 16 0
BBX 16 14 0 0
BITMAP
0000
0000
0000
0000
1ffc
0000
0000
1ffc
0000
0000
1ffc
0000
0000
0000
ENDCHAR
STARTCHAR Ca1de
ENCODING 41438
SWIDTH 666 0
DWIDTH 16 0
BBX 16 14 0 0
BITMAP
0000
0000
0000
0080
0080
0080
07f0
0080
0080
0080
0080
0000
0000
0000
ENDCHAR
STARTCHAR Ca1df
ENCODING 41439
SWIDTH 666 0
DWIDTH 16 0
BBX 16 14 0 0
BITMAP
0000
0000
0000
0000
0000
0000
0ff0
0000
0000
0000
0000
0000
0000
0000
ENDCHAR
STARTCHAR Ca1e0
ENCODING 41440
SWIDTH 666 0
DWIDTH 16 0
BBX 16 14 0 0
BITMAP
0000
0000
0000
0180
0300
0600
0c00
1800
0c00
0600
0300
0180
0000
0000
ENDCHAR
STARTCHAR Ca1e1
ENCODING 41441
SWIDTH 666 0
DWIDTH 16 0
BBX 16 14 0 0
BITMAP
0000
0000
0000
0180
00c0
0060
0030
0018
0030
0060
00c0
0180
0000
0000
ENDCHAR
STARTCHAR Ca1e2
ENCODING 41442
SWIDTH 666 0
DWIDTH 16 0
BBX 16 14 0 0
BITMAP
0000
0000
0000
0000
0ff0
0000
0000
0000
0ff0
0000
0000
0000
0000
0000
ENDCHAR
STARTCHAR Ca1e3
ENCODING 41443
SWIDTH 666 0
DWIDTH 16 0
BBX 16 14 0 0
BITMAP
0000
0000
0000
0c00
1f04
318c
20f8
0020
0000
0000
0000
0000
0000
0000
ENDCHAR
STARTCHAR Ca1e4
ENCODING 41444
SWIDTH 666 0
DWIDTH 16 0
BBX 16 14 0 0
BITMAP
0000
0000
0000
03e0
0410
0410
0808
0808
1004
1004
1004
1004
1004
0000
ENDCHAR
STARTCHAR Ca1e5
ENCODING 41445
SWIDTH 666 0
DWIDTH 16 0
BBX 16 14 0 0
BITMAP
0000
0000
1004
1004
1004
1004
1004
1004
0808
0808
0410
0410
03e0
0000
ENDCHAR
STARTCHAR Ca1e6
ENCODING 41446
SWIDTH 666 0
DWIDTH 16 0
BBX 16 14 0 0
BITMAP
0000
0000
0180
0180
0180
0180
0180
0180
0180
0180
7ffe
7ffe
0000
0000
ENDCHAR
STARTCHAR Ca1e7
ENCODING 41447
SWIDTH 666 0
DWIDTH 16 0
BBX 16 14 0 0
BITMAP
0000
0000
0008
0010
0020
0040
0080
0100
0200
0400
0800
1000
3ffe
0000
ENDCHAR
STARTCHAR Ca1e8
ENCODING 41448
SWIDTH 666 0
DWIDTH 16 0
BBX 16 14 0 0
BITMAP
0000
0000
1000
1000
1000
1000
1000
1000
1000
1000
1000
1000
1ffc
0000
ENDCHAR
STARTCHAR Ca1e9
ENCODING 41449
SWIDTH 666 0
DWIDTH 16 0
BBX 16 14 0 0
BITMAP
0000
0004
000c
0014
0024
0044
0084
0104
0204
0404
0804
1004
3ffc
0000
ENDCHAR
STARTCHAR Ca1ea
ENCODING 41450
SWIDTH 666 0
DWIDTH 16 0
BBX 16 14 0 0
BITMAP
0000
0000
2000
6001
2002
238e
2451
2451
244e
2448
738e
0011
0011
000e
ENDCHAR
STARTCHAR Ca1eb
ENCODING 41451
SWIDTH 666 0
DWIDTH 16 0
BBX 16 14 0 0
BITMAP
0000
0000
1800
0800
0800
0800
081c
09a2
0842
0842
0842
0842
1c42
0000
ENDCHAR
STARTCHAR Ca1ec
ENCODING 41452
SWIDTH 666 0
DWIDTH 16 0
BBX 16 14 0 0
BITMAP
0000
0000
0060
0090
0100
0100
0100
0100
0100
0100
0100
1200
0c00
0000
ENDCHAR
STARTCHAR Ca1ed
ENCODING 41453
SWIDTH 666 0
DWIDTH 16 0
BBX 16 14 0 0
BITMAP
0000
0000
0030
0048
0080
07f0
0888
1084
0888
07f0
0080
0900
0600
0000
ENDCHAR
STARTCHAR Ca1ee
ENCODING 41454
SWIDTH 666 0
DWIDTH 16 0
BBX 16 14 0 0
BITMAP
0000
0000
0000
1818
3c3c
3c3c
1818
0000
0000
0180
03c0
03c0
0180
0000
ENDCHAR
STARTCHAR Ca1ef
ENCODING 41455
SWIDTH 666 0
DWIDTH 16 0
BBX 16 14 0 0
BITMAP
0000
0000
0000
0180
03c0
03c0
0180
0000
0000
1818
3c3c
3c3c
1818
0000
ENDCHAR
STARTCHAR Ca1f0
ENCODING 41456
SWIDTH 666 0
DWIDTH 16 0
BBX 16 14 0 0
BITMAP
0000
0000
03e0
0410
0808
0410
03e0
0080
0080
7fff
0080
0080
0080
0000
ENDCHAR
STARTCHAR Ca1f1
ENCODING 41457
SWIDTH 666 0
DWIDTH 16 0
BBX 16 14 0 0
BITMAP
0000
0000
0080
01c0
02a0
0490
0888
0080
03e0
0410
0808
0410
03e0
0000
ENDCHAR
STARTCHAR Ca1f2
ENCODING 41458
SWIDTH 666 0
DWIDTH 16 0
BBX 16 14 0 0
BITMAP
0000
0000
07f0
0888
1084
2082
2082
3ffe
2082
2082
1084
0888
07f0
0000
ENDCHAR
STARTCHAR Ca1f3
ENCODING 41459
SWIDTH 666 0
DWIDTH 16 0
BBX 16 14 0 0
BITMAP
0000
0000
07f0
0808
1004
2002
21c2
23e2
21c2
2002
1004
0808
07f0
0000
ENDCHAR
STARTCHAR Ca1f4
ENCODING 41460
SWIDTH 666 0
DWIDTH 16 0
BBX 16 14 0 0
BITMAP
0000
0000
0080
01c0
02a0
0490
0888
1084
2082
0080
0080
0080
0080
0000
ENDCHAR
STARTCHAR Ca1f5
ENCODING 41461
SWIDTH 666 0
DWIDTH 16 0
BBX 16 14 0 0
BITMAP
0000
0000
0080
0080
0080
0080
2082
1084
0888
0490
02a0
01c0
0080
0000
ENDCHAR
STARTCHAR Ca1f6
ENCODING 41462
SWIDTH 666 0
DWIDTH 16 0
BBX 16 14 0 0
BITMAP
0000
0000
0200
0400
0800
1000
2000
7fff
2000
1000
0800
0400
0200
0000
ENDCHAR
STARTCHAR Ca1f7
ENCODING 41463
SWIDTH 666 0
DWIDTH 16 0
BBX 16 14 0 0
BITMAP
0000
0000
0020
0010
0008
0004
0002
7fff
0002
0004
0008
0010
0020
0000
ENDCHAR
STARTCHAR Ca1f8
ENCODING 41464
SWIDTH 666 0
DWIDTH 16 0
BBX 16 14 0 0
BITMAP
0000
0000
7f80
6000
5000
4800
4400
4200
4100
4080
0040
0020
0010
0000
ENDCHAR
STARTCHAR Ca1f9
ENCODING 41465
SWIDTH 666 0
DWIDTH 16 0
BBX 16 14 0 0
BITMAP
0000
0000
00ff
0003
0005
0009
0011
0021
0041
0081
0100
0200
0400
0000
ENDCHAR
STARTCHAR Ca1fa
ENCODING 41466
SWIDTH 666 0
DWIDTH 16 0
BBX 16 14 0 0
BITMAP
0000
0000
0010
0020
0040
4080
4100
4200
4400
4800
5000
6000
7f80
0000
ENDCHAR
STARTCHAR Ca1fb
ENCODING 41467
SWIDTH 666 0
DWIDTH 16 0
BBX 16 14 0 0
BITMAP
0000
0000
0400
0200
0100
0081
0041
0021
0011
0009
0005
0003
00ff
0000
ENDCHAR
STARTCHAR Ca1fc
ENCODING 41468
SWIDTH 666 0
DWIDTH 16 0
BBX 16 14 0 0
BITMAP
0000
0000
0410
0410
0410
0410
0410
0410
0410
0410
0410
0410
0410
0000
ENDCHAR
STARTCHAR Ca1fd
ENCODING 41469
SWIDTH 666 0
DWIDTH 16 0
BBX 16 14 0 0
BITMAP
0000
0000
0080
0080
0080
0080
0080
0080
0080
0080
0080
0080
0080
0000
ENDCHAR
STARTCHAR Ca1fe
ENCODING 41470
SWIDTH 666 0
DWIDTH 16 0
BBX 16 14 0 0
BITMAP
0000
0000
0004
0008
0010
0020
0040
0080
0100
0200
0400
0800
1000
0000
ENDCHAR
STARTCHAR Ca240
ENCODING 41536
SWIDTH 666 0
DWIDTH 16 0
BBX 16 14 0 0
BITMAP
0000
0000
1000
0800
0400
0200
0100
0080
0040
0020
0010
0008
0004
0000
ENDCHAR
STARTCHAR Ca241
ENCODING 41537
SWIDTH 666 0
DWIDTH 16 0
BBX 16 14 0 0
BITMAP
0000
0000
0020
0020
0040
0040
0080
0080
0100
0100
0200
0200
0400
0400
ENDCHAR
STARTCHAR Ca242
ENCODING 41538
SWIDTH 666 0
DWIDTH 16 0
BBX 16 14 0 0
BITMAP
0000
0000
0100
0100
0080
0080
0040
0040
0020
0020
0010
0010
0008
0008
ENDCHAR
STARTCHAR Ca243
ENCODING 41539
SWIDTH 666 0
DWIDTH 16 0
BBX 16 14 0 0
BITMAP
0000
0000
0080
03e0
0498
0880
0480
03f0
0088
0084
0c88
03f0
0080
0000
ENDCHAR
STARTCHAR Ca244
ENCODING 41540
SWIDTH 666 0
DWIDTH 16 0
BBX 16 14 0 0
BITMAP
0000
0000
380e
0410
0220
0140
3ffe
0080
0080
3ffe
0080
0080
0080
01c0
ENDCHAR
STARTCHAR Ca245
ENCODING 41541
SWIDTH 666 0
DWIDTH 16 0
BBX 16 14 0 0
BITMAP
0000
0000
1ffc
0000
0000
1ffc
0080
0080
0080
0080
0080
0080
0080
0000
ENDCHAR
STARTCHAR Ca246
ENCODING 41542
SWIDTH 666 0
DWIDTH 16 0
BBX 16 14 0 0
BITMAP
0002
01f4
0208
0416
0826
1040
1080
2100
2200
2400
1810
1820
27c0
4000
ENDCHAR
STARTCHAR Ca247
ENCODING 41543
SWIDTH 666 0
DWIDTH 16 0
BBX 16 14 0 0
BITMAP
0000
0030
0048
008c
0080
1ff8
0100
0100
1d00
2300
4280
4442
383c
0000
ENDCHAR
STARTCHAR Ca248
ENCODING 41544
SWIDTH 666 0
DWIDTH 16 0
BBX 16 14 0 0
BITMAP
0000
0000
1e00
2108
2110
2120
1e40
0080
013c
0242
0442
0842
103c
2000
ENDCHAR
STARTCHAR Ca249
ENCODING 41545
SWIDTH 666 0
DWIDTH 16 0
BBX 16 14 0 0
BITMAP
0000
0000
0ff0
1008
2004
43c2
4422
4812
4832
4452
438a
2006
1010
0fe0
ENDCHAR
STARTCHAR Ca24a
ENCODING 41546
SWIDTH 666 0
DWIDTH 16 0
BBX 16 14 0 0
BITMAP
0000
0000
3800
4478
4484
3906
0100
0100
0100
0100
0106
0084
0078
0000
ENDCHAR
STARTCHAR Ca24b
ENCODING 41547
SWIDTH 666 0
DWIDTH 16 0
BBX 16 14 0 0
BITMAP
3800
45ff
4483
3881
0080
0084
00fc
008c
0084
0080
0080
0080
0080
03e0
ENDCHAR
STARTCHAR Ca24c
ENCODING 41548
SWIDTH 666 0
DWIDTH 16 0
BBX 16 14 0 0
BITMAP
0100
0100
07c0
0960
0960
0900
0780
0140
0520
0920
0920
07c0
0100
0100
ENDCHAR
STARTCHAR Ca24d
ENCODING 41549
SWIDTH 666 0
DWIDTH 16 0
BBX 16 14 0 0
BITMAP
0000
0000
0008
0610
0920
1140
1280
0d60
0290
0510
0920
10c0
0000
0000
ENDCHAR
STARTCHAR Ca24e
ENCODING 41550
SWIDTH 666 0
DWIDTH 16 0
BBX 16 14 0 0
BITMAP
0000
0000
03e0
0410
0990
0a50
0a50
0a50
09d0
0864
0408
03f0
0000
0000
ENDCHAR
STARTCHAR Ca24f
ENCODING 41551
SWIDTH 666 0
DWIDTH 16 0
BBX 16 14 0 0
BITMAP
0000
0000
0002
0006
0002
0012
0002
5b12
24b2
2492
2492
2492
24b7
0000
ENDCHAR
STARTCHAR Ca250
ENCODING 41552
SWIDTH 666 0
DWIDTH 16 0
BBX 16 14 0 0
BITMAP
0000
0000
0000
0000
0000
0000
3676
4949
4949
4949
4949
4949
4949
0000
ENDCHAR
STARTCHAR Ca251
ENCODING 41553
SWIDTH 666 0
DWIDTH 16 0
BBX 16 14 0 0
BITMAP
0000
0000
0000
0000
0000
0080
1c76
2349
4049
4049
4149
2249
1c49
0000
ENDCHAR
STARTCHAR Ca252
ENCODING 41554
SWIDTH 666 0
DWIDTH 16 0
BBX 16 14 0 0
BITMAP
0000
4000
4000
4000
4000
4080
4e76
4849
5049
6049
5049
4849
6649
0000
ENDCHAR
STARTCHAR Ca253
ENCODING 41555
SWIDTH 666 0
DWIDTH 16 0
BBX 16 14 0 0
BITMAP
0000
0000
7141
2263
2463
2455
2855
3049
2841
2441
2441
2241
7141
0000
ENDCHAR
STARTCHAR Ca254
ENCODING 41556
SWIDTH 666 0
DWIDTH 16 0
BBX 16 14 0 0
BITMAP
0000
0000
0006
0009
0001
0006
0008
5dcf
2220
2220
2220
2220
2220
0000
ENDCHAR
STARTCHAR Ca255
ENCODING 41557
SWIDTH 666 0
DWIDTH 16 0
BBX 16 14 0 0
BITMAP
0000
0000
0000
3603
493c
4942
4942
493c
4920
493e
0041
0041
003e
0000
ENDCHAR
STARTCHAR Ca256
ENCODING 41558
SWIDTH 666 0
DWIDTH 16 0
BBX 16 14 0 0
BITMAP
0000
2000
6000
2000
2183
223c
2442
3842
243c
2220
213e
73c1
003e
0000
ENDCHAR
STARTCHAR Ca257
ENCODING 41559
SWIDTH 666 0
DWIDTH 16 0
BBX 16 14 0 0
BITMAP
0000
0000
0000
0000
0000
0000
1c1c
2323
4343
4040
4141
2222
1c1c
0000
ENDCHAR
STARTCHAR Ca258
ENCODING 41560
SWIDTH 666 0
DWIDTH 16 0
BBX 16 14 0 0
BITMAP
0000
0000
1c00
2200
2200
2200
1c00
0000
0000
0000
0000
0000
0000
0000
ENDCHAR
STARTCHAR Ca259
ENCODING 41561
SWIDTH 666 0
DWIDTH 16 0
BBX 16 14 0 0
BITMAP
0800
0808
7f08
0808
0808
7f08
417f
4108
7f08
1208
1208
1209
2201
43ff
ENDCHAR
STARTCHAR Ca25a
ENCODING 41562
SWIDTH 666 0
DWIDTH 16 0
BBX 16 14 0 0
BITMAP
0800
0802
7f3c
0808
0808
7f08
417f
4108
7f08
1208
1208
1209
2201
43ff
ENDCHAR
STARTCHAR Ca25b
ENCODING 41563
SWIDTH 666 0
DWIDTH 16 0
BBX 16 14 0 0
BITMAP
0800
0802
7f3c
0810
087e
7f10
4110
417e
7f10
1211
121f
1200
2201
43ff
ENDCHAR
STARTCHAR Ca25c
ENCODING 41564
SWIDTH 666 0
DWIDTH 16 0
BBX 16 14 0 0
BITMAP
0800
0818
7f24
0842
0881
7f00
417f
4109
7f11
1221
1243
1200
2201
43ff
ENDCHAR
STARTCHAR Ca25d
ENCODING 41565
SWIDTH 666 0
DWIDTH 16 0
BBX 16 14 0 0
BITMAP
0800
087f
7f08
0810
087f
7f41
4141
417f
7f41
1241
127f
1200
2201
43ff
ENDCHAR
STARTCHAR Ca25e
ENCODING 41566
SWIDTH 666 0
DWIDTH 16 0
BBX 16 14 0 0
BITMAP
1000
11ff
7d00
117f
1149
7d7f
4549
457f
7d08
293e
2908
2a7f
2801
4fff
ENDCHAR
STARTCHAR Ca25f
ENCODING 41567
SWIDTH 666 0
DWIDTH 16 0
BBX 16 14 0 0
BITMAP
0800
7f3e
0922
1122
673e
01c0
0220
0410
0ff8
1004
2ffa
4949
0ff8
0948
ENDCHAR
STARTCHAR Ca260
ENCODING 41568
SWIDTH 666 0
DWIDTH 16 0
BBX 16 14 0 0
BITMAP
7f82
103c
1008
1008
7f88
1088
18ff
1488
1288
1088
1488
1889
1081
00ff
ENDCHAR
STARTCHAR Ca261
ENCODING 41569
SWIDTH 666 0
DWIDTH 16 0
BBX 16 14 0 0
BITMAP
1000
11ff
1100
5500
397f
1149
7d7f
1149
317f
5908
1508
113e
1208
107f
ENDCHAR
STARTCHAR Ca262
ENCODING 41570
SWIDTH 666 0
DWIDTH 16 0
BBX 16 14 0 0
BITMAP
0000
0000
0000
0000
0000
0000
0000
0000
0000
0000
0000
0000
0000
0000
ENDCHAR
STARTCHAR Ca263
ENCODING 41571
SWIDTH 666 0
DWIDTH 16 0
BBX 16 14 0 0
BITMAP
0000
0000
0000
0000
0000
0000
0000
0000
0000
0000
0000
0000
ffff
ffff
ENDCHAR
STARTCHAR Ca264
ENCODING 41572
SWIDTH 666 0
DWIDTH 16 0
BBX 16 14 0 0
BITMAP
0000
0000
0000
0000
0000
0000
0000
0000
0000
0000
ffff
ffff
ffff
ffff
ENDCHAR
STARTCHAR Ca265
ENCODING 41573
SWIDTH 666 0
DWIDTH 16 0
BBX 16 14 0 0
BITMAP
0000
0000
0000
0000
0000
0000
0000
0000
ffff
ffff
ffff
ffff
ffff
ffff
ENDCHAR
STARTCHAR Ca266
ENCODING 41574
SWIDTH 666 0
DWIDTH 16 0
BBX 16 14 0 0
BITMAP
0000
0000
0000
0000
0000
0000
ffff
ffff
ffff
ffff
ffff
ffff
ffff
ffff
ENDCHAR
STARTCHAR Ca267
ENCODING 41575
SWIDTH 666 0
DWIDTH 16 0
BBX 16 14 0 0
BITMAP
0000
0000
0000
0000
ffff
ffff
ffff
ffff
ffff
ffff
ffff
ffff
ffff
ffff
ENDCHAR
STARTCHAR Ca268
ENCODING 41576
SWIDTH 666 0
DWIDTH 16 0
BBX 16 14 0 0
BITMAP
0000
0000
ffff
ffff
ffff
ffff
ffff
ffff
ffff
ffff
ffff
ffff
ffff
ffff
ENDCHAR
STARTCHAR Ca269
ENCODING 41577
SWIDTH 666 0
DWIDTH 16 0
BBX 16 14 0 0
BITMAP
ffff
ffff
ffff
ffff
ffff
ffff
ffff
ffff
ffff
ffff
ffff
ffff
ffff
ffff
ENDCHAR
STARTCHAR Ca26a
ENCODING 41578
SWIDTH 666 0
DWIDTH 16 0
BBX 16 14 0 0
BITMAP
c000
c000
c000
c000
c000
c000
c000
c000
c000
c000
c000
c000
c000
c000
ENDCHAR
STARTCHAR Ca26b
ENCODING 41579
SWIDTH 666 0
DWIDTH 16 0
BBX 16 14 0 0
BITMAP
f000
f000
f000
f000
f000
f000
f000
f000
f000
f000
f000
f000
f000
f000
ENDCHAR
STARTCHAR Ca26c
ENCODING 41580
SWIDTH 666 0
DWIDTH 16 0
BBX 16 14 0 0
BITMAP
fc00
fc00
fc00
fc00
fc00
fc00
fc00
fc00
fc00
fc00
fc00
fc00
fc00
fc00
ENDCHAR
STARTCHAR Ca26d
ENCODING 41581
SWIDTH 666 0
DWIDTH 16 0
BBX 16 14 0 0
BITMAP
ff00
ff00
ff00
ff00
ff00
ff00
ff00
ff00
ff00
ff00
ff00
ff00
ff00
ff00
ENDCHAR
STARTCHAR Ca26e
ENCODING 41582
SWIDTH 666 0
DWIDTH 16 0
BBX 16 14 0 0
BITMAP
ffc0
ffc0
ffc0
ffc0
ffc0
ffc0
ffc0
ffc0
ffc0
ffc0
ffc0
ffc0
ffc0
ffc0
ENDCHAR
STARTCHAR Ca26f
ENCODING 41583
SWIDTH 666 0
DWIDTH 16 0
BBX 16 14 0 0
BITMAP
fff0
fff0
fff0
fff0
fff0
fff0
fff0
fff0
fff0
fff0
fff0
fff0
fff0
fff0
ENDCHAR
STARTCHAR Ca270
ENCODING 41584
SWIDTH 666 0
DWIDTH 16 0
BBX 16 14 0 0
BITMAP
fffc
fffc
fffc
fffc
fffc
fffc
fffc
fffc
fffc
fffc
fffc
fffc
fffc
fffc
ENDCHAR
STARTCHAR Ca271
ENCODING 41585
SWIDTH 666 0
DWIDTH 16 0
BBX 16 14 0 0
BITMAP
0080
0080
0080
0080
0080
0080
0080
ffff
0080
0080
0080
0080
0080
0080
ENDCHAR
STARTCHAR Ca272
ENCODING 41586
SWIDTH 666 0
DWIDTH 16 0
BBX 16 14 0 0
BITMAP
0080
0080
0080
0080
0080
0080
0080
ffff
0000
0000
0000
0000
0000
0000
ENDCHAR
STARTCHAR Ca273
ENCODING 41587
SWIDTH 666 0
DWIDTH 16 0
BBX 16 14 0 0
BITMAP
0000
0000
0000
0000
0000
0000
0000
ffff
0080
0080
0080
0080
0080
0080
ENDCHAR
STARTCHAR Ca274
ENCODING 41588
SWIDTH 666 0
DWIDTH 16 0
BBX 16 14 0 0
BITMAP
0080
0080
0080
0080
0080
0080
0080
ff80
0080
0080
0080
0080
0080
0080
ENDCHAR
STARTCHAR Ca275
ENCODING 41589
SWIDTH 666 0
DWIDTH 16 0
BBX 16 14 0 0
BITMAP
0080
0080
0080
0080
0080
0080
0080
00ff
0080
0080
0080
0080
0080
0080
ENDCHAR
STARTCHAR Ca276
ENCODING 41590
SWIDTH 666 0
DWIDTH 16 0
BBX 16 14 0 0
BITMAP
ffff
ffff
0000
0000
0000
0000
0000
0000
0000
0000
0000
0000
0000
0000
ENDCHAR
STARTCHAR Ca277
ENCODING 41591
SWIDTH 666 0
DWIDTH 16 0
BBX 16 14 0 0
BITMAP
0000
0000
0000
0000
0000
0000
0000
ffff
0000
0000
0000
0000
0000
0000
ENDCHAR
STARTCHAR Ca278
ENCODING 41592
SWIDTH 666 0
DWIDTH 16 0
BBX 16 14 0 0
BITMAP
0080
0080
0080
0080
0080
0080
0080
0080
0080
0080
0080
0080
0080
0080
ENDCHAR
STARTCHAR Ca279
ENCODING 41593
SWIDTH 666 0
DWIDTH 16 0
BBX 16 14 0 0
BITMAP
0003
0003
0003
0003
0003
0003
0003
0003
0003
0003
0003
0003
0003
0003
ENDCHAR
STARTCHAR Ca27a
ENCODING 41594
SWIDTH 666 0
DWIDTH 16 0
BBX 16 14 0 0
BITMAP
0000
0000
0000
0000
0000
0000
0000
00ff
0080
0080
0080
0080
0080
0080
ENDCHAR
STARTCHAR Ca27b
ENCODING 41595
SWIDTH 666 0
DWIDTH 16 0
BBX 16 14 0 0
BITMAP
0000
0000
0000
0000
0000
0000
0000
ff80
0080
0080
0080
0080
0080
0080
ENDCHAR
STARTCHAR Ca27c
ENCODING 41596
SWIDTH 666 0
DWIDTH 16 0
BBX 16 14 0 0
BITMAP
0080
0080
0080
0080
0080
0080
0080
00ff
0000
0000
0000
0000
0000
0000
ENDCHAR
STARTCHAR Ca27d
ENCODING 41597
SWIDTH 666 0
DWIDTH 16 0
BBX 16 14 0 0
BITMAP
0080
0080
0080
0080
0080
0080
0080
ff80
0000
0000
0000
0000
0000
0000
ENDCHAR
STARTCHAR Ca27e
ENCODING 41598
SWIDTH 666 0
DWIDTH 16 0
BBX 16 14 0 0
BITMAP
0000
0000
0000
0000
0000
0000
0000
0007
0018
0020
0040
0040
0080
0080
ENDCHAR
STARTCHAR Ca2a1
ENCODING 41633
SWIDTH 666 0
DWIDTH 16 0
BBX 16 14 0 0
BITMAP
0000
0000
0000
0000
0000
0000
0000
f000
0c00
0200
0100
0100
0080
0080
ENDCHAR
STARTCHAR Ca2a2
ENCODING 41634
SWIDTH 666 0
DWIDTH 16 0
BBX 16 14 0 0
BITMAP
0080
0080
0080
0040
0040
0020
0018
0007
0000
0000
0000
0000
0000
0000
ENDCHAR
STARTCHAR Ca2a3
ENCODING 41635
SWIDTH 666 0
DWIDTH 16 0
BBX 16 14 0 0
BITMAP
0080
0080
0080
0100
0100
0200
0c00
f000
0000
0000
0000
0000
0000
0000
ENDCHAR
STARTCHAR Ca2a4
ENCODING 41636
SWIDTH 666 0
DWIDTH 16 0
BBX 16 14 0 0
BITMAP
0000
0000
0000
0000
0000
ffff
0000
0000
0000
0000
ffff
0000
0000
0000
ENDCHAR
STARTCHAR Ca2a5
ENCODING 41637
SWIDTH 666 0
DWIDTH 16 0
BBX 16 14 0 0
BITMAP
0080
0080
0080
0080
0080
00ff
0080
0080
0080
0080
00ff
0080
0080
0080
ENDCHAR
STARTCHAR Ca2a6
ENCODING 41638
SWIDTH 666 0
DWIDTH 16 0
BBX 16 14 0 0
BITMAP
0080
0080
0080
0080
0080
ffff
0080
0080
0080
0080
ffff
0080
0080
0080
ENDCHAR
STARTCHAR Ca2a7
ENCODING 41639
SWIDTH 666 0
DWIDTH 16 0
BBX 16 14 0 0
BITMAP
0080
0080
0080
0080
0080
ff80
0080
0080
0080
0080
ff80
0080
0080
0080
ENDCHAR
STARTCHAR Ca2a8
ENCODING 41640
SWIDTH 666 0
DWIDTH 16 0
BBX 16 14 0 0
BITMAP
0001
0003
0007
000f
001f
003f
007f
00ff
01ff
03ff
07ff
0fff
1fff
3fff
ENDCHAR
STARTCHAR Ca2a9
ENCODING 41641
SWIDTH 666 0
DWIDTH 16 0
BBX 16 14 0 0
BITMAP
8000
c000
e000
f000
f800
fc00
fe00
ff00
ff80
ffc0
ffe0
fff0
fff8
fffc
ENDCHAR
STARTCHAR Ca2aa
ENCODING 41642
SWIDTH 666 0
DWIDTH 16 0
BBX 16 14 0 0
BITMAP
ffff
7fff
3fff
1fff
0fff
07ff
03ff
01ff
00ff
007f
003f
001f
000f
0007
ENDCHAR
STARTCHAR Ca2ab
ENCODING 41643
SWIDTH 666 0
DWIDTH 16 0
BBX 16 14 0 0
BITMAP
ffff
fffe
fffc
fff8
fff0
ffe0
ffc0
ff80
ff00
fe00
fc00
f800
f000
e000
ENDCHAR
STARTCHAR Ca2ac
ENCODING 41644
SWIDTH 666 0
DWIDTH 16 0
BBX 16 14 0 0
BITMAP
0001
0002
0004
0008
0010
0020
0040
0080
0100
0200
0400
0800
1000
2000
ENDCHAR
STARTCHAR Ca2ad
ENCODING 41645
SWIDTH 666 0
DWIDTH 16 0
BBX 16 14 0 0
BITMAP
8000
4000
2000
1000
0800
0400
0200
0100
0080
0040
0020
0010
0008
0004
ENDCHAR
STARTCHAR Ca2ae
ENCODING 41646
SWIDTH 666 0
DWIDTH 16 0
BBX 16 14 0 0
BITMAP
8001
4002
2004
1008
0810
0420
0240
0180
0180
0240
0420
0810
1008
2004
ENDCHAR
STARTCHAR Ca2af
ENCODING 41647
SWIDTH 666 0
DWIDTH 16 0
BBX 16 14 0 0
BITMAP
0000
07f0
0c18
180c
180c
180c
180c
180c
180c
180c
180c
180c
0c18
07f0
ENDCHAR
STARTCHAR Ca2b0
ENCODING 41648
SWIDTH 666 0
DWIDTH 16 0
BBX 16 14 0 0
BITMAP
0000
0180
0380
0780
0180
0180
0180
0180
0180
0180
0180
0180
0180
0ff0
ENDCHAR
STARTCHAR Ca2b1
ENCODING 41649
SWIDTH 666 0
DWIDTH 16 0
BBX 16 14 0 0
BITMAP
0000
07f0
0c18
180c
180c
181c
0038
00e0
0180
0700
0c00
1804
180c
1ffc
ENDCHAR
STARTCHAR Ca2b2
ENCODING 41650
SWIDTH 666 0
DWIDTH 16 0
BBX 16 14 0 0
BITMAP
0000
07f0
0c18
180c
180c
000c
0038
01e0
0038
000c
180c
180c
0c18
07f0
ENDCHAR
STARTCHAR Ca2b3
ENCODING 41651
SWIDTH 666 0
DWIDTH 16 0
BBX 16 14 0 0
BITMAP
0000
0030
0070
00f0
01b0
0330
0630
0c30
1830
3030
7ffe
0030
0030
00fc
ENDCHAR
STARTCHAR Ca2b4
ENCODING 41652
SWIDTH 666 0
DWIDTH 16 0
BBX 16 14 0 0
BITMAP
0000
1ff8
1800
1800
1800
1bf0
1e18
1c0c
000c
000c
000c
180c
0c18
07f0
ENDCHAR
STARTCHAR Ca2b5
ENCODING 41653
SWIDTH 666 0
DWIDTH 16 0
BBX 16 14 0 0
BITMAP
0000
07f0
0c18
1818
1800
1800
1bf0
1e18
180c
180c
180c
180c
0c18
07f0
ENDCHAR
STARTCHAR Ca2b6
ENCODING 41654
SWIDTH 666 0
DWIDTH 16 0
BBX 16 14 0 0
BITMAP
0000
1ffc
100c
100c
0018
0030
0060
00c0
0180
0180
0180
0180
0180
0180
ENDCHAR
STARTCHAR Ca2b7
ENCODING 41655
SWIDTH 666 0
DWIDTH 16 0
BBX 16 14 0 0
BITMAP
0000
07e0
0c30
1818
1818
0c30
07e0
1c38
300c
300c
300c
300c
1c38
07e0
ENDCHAR
STARTCHAR Ca2b8
ENCODING 41656
SWIDTH 666 0
DWIDTH 16 0
BBX 16 14 0 0
BITMAP
0000
07e0
0c30
1818
180c
180c
181c
0c3c
07ec
000c
1818
1c18
0c30
07e0
ENDCHAR
STARTCHAR Ca2b9
ENCODING 41657
SWIDTH 666 0
DWIDTH 16 0
BBX 16 14 0 0
BITMAP
0000
0000
03e0
0080
0080
0080
0080
0080
0080
0080
0080
0080
03e0
0000
ENDCHAR
STARTCHAR Ca2ba
ENCODING 41658
SWIDTH 666 0
DWIDTH 16 0
BBX 16 14 0 0
BITMAP
0000
0000
0ff8
0220
0220
0220
0220
0220
0220
0220
0220
0220
0ff8
0000
ENDCHAR
STARTCHAR Ca2bb
ENCODING 41659
SWIDTH 666 0
DWIDTH 16 0
BBX 16 14 0 0
BITMAP
0000
0000
1ffc
0490
0490
0490
0490
0490
0490
0490
0490
0490
1ffc
0000
ENDCHAR
STARTCHAR Ca2bc
ENCODING 41660
SWIDTH 666 0
DWIDTH 16 0
BBX 16 14 0 0
BITMAP
0000
0000
7707
2202
2202
2104
2104
2088
2088
2050
2050
2020
7020
0000
ENDCHAR
STARTCHAR Ca2bd
ENCODING 41661
SWIDTH 666 0
DWIDTH 16 0
BBX 16 14 0 0
BITMAP
0000
0000
380e
1004
1004
0808
0808
0410
0410
0220
0220
0140
0080
0080
ENDCHAR
STARTCHAR Ca2be
ENCODING 41662
SWIDTH 666 0
DWIDTH 16 0
BBX 16 14 0 0
BITMAP
0000
0000
7077
2022
2022
1042
1042
0882
0882
0502
0502
0202
0207
0000
ENDCHAR
STARTCHAR Ca2bf
ENCODING 41663
SWIDTH 666 0
DWIDTH 16 0
BBX 16 14 0 0
BITMAP
0000
0000
71df
208a
208a
110a
110a
0a0a
0a0a
0a0a
040a
040a
041f
0000
ENDCHAR
STARTCHAR Ca2c0
ENCODING 41664
SWIDTH 666 0
DWIDTH 16 0
BBX 16 14 0 0
BITMAP
0000
0000
71ff
20aa
20aa
112a
112a
0a2a
0a2a
0a2a
042a
042a
047f
0000
ENDCHAR
STARTCHAR Ca2c1
ENCODING 41665
SWIDTH 666 0
DWIDTH 16 0
BBX 16 14 0 0
BITMAP
0000
0000
770e
2204
2108
2090
2090
2060
2060
2090
2090
2108
2204
770e
ENDCHAR
STARTCHAR Ca2c2
ENCODING 41666
SWIDTH 666 0
DWIDTH 16 0
BBX 16 14 0 0
BITMAP
0000
0000
7007
0808
0410
0220
0140
0080
0080
0140
0220
0410
0808
7007
ENDCHAR
STARTCHAR Ca2c3
ENCODING 41667
SWIDTH 666 0
DWIDTH 16 0
BBX 16 14 0 0
BITMAP
0000
0000
0000
0080
0080
0080
0080
0080
0080
0080
0080
0080
0100
0000
ENDCHAR
STARTCHAR Ca2c4
ENCODING 41668
SWIDTH 666 0
DWIDTH 16 0
BBX 16 14 0 0
BITMAP
0000
0000
0020
0420
0420
0420
0420
0420
0420
0420
0820
0020
0020
0000
ENDCHAR
STARTCHAR Ca2c5
ENCODING 41669
SWIDTH 666 0
DWIDTH 16 0
BBX 16 14 0 0
BITMAP
0000
0000
0008
0008
0888
0888
0888
0888
0888
0888
0888
1088
0008
0008
ENDCHAR
STARTCHAR Ca2c6
ENCODING 41670
SWIDTH 666 0
DWIDTH 16 0
BBX 16 14 0 0
BITMAP
0000
3006
180c
0c18
0630
0360
01c0
01c0
0360
0630
0c18
180c
3006
0000
ENDCHAR
STARTCHAR Ca2c7
ENCODING 41671
SWIDTH 666 0
DWIDTH 16 0
BBX 16 14 0 0
BITMAP
0000
0000
0200
0400
0410
0220
0140
0080
0140
0220
0410
0808
0410
03e0
ENDCHAR
STARTCHAR Ca2c8
ENCODING 41672
SWIDTH 666 0
DWIDTH 16 0
BBX 16 14 0 0
BITMAP
0000
0000
0080
0080
0080
0ff8
0000
0000
0000
0000
0000
0000
0000
0000
ENDCHAR
STARTCHAR Ca2c9
ENCODING 41673
SWIDTH 666 0
DWIDTH 16 0
BBX 16 14 0 0
BITMAP
0000
0000
0080
0080
0080
0ff8
0000
0000
0ff8
0000
0000
0000
0000
0000
ENDCHAR
STARTCHAR Ca2ca
ENCODING 41674
SWIDTH 666 0
DWIDTH 16 0
BBX 16 14 0 0
BITMAP
0000
0000
0080
0080
0080
0ff8
0000
0000
0ff8
0000
0000
0ff8
0000
0000
ENDCHAR
STARTCHAR Ca2cb
ENCODING 41675
SWIDTH 666 0
DWIDTH 16 0
BBX 16 14 0 0
BITMAP
0000
0000
0400
0800
1ff8
0008
0410
0220
0140
0080
0140
0220
0410
0808
ENDCHAR
STARTCHAR Ca2cc
ENCODING 41676
SWIDTH 666 0
DWIDTH 16 0
BBX 16 14 0 0
BITMAP
0000
0000
0080
0080
0080
0080
0ff8
0080
0080
0080
0080
0080
0100
0000
ENDCHAR
STARTCHAR Ca2cd
ENCODING 41677
SWIDTH 666 0
DWIDTH 16 0
BBX 16 14 0 0
BITMAP
0000
0000
0020
0220
0220
0220
1ffc
0220
0220
0220
0220
0420
0020
0000
ENDCHAR
STARTCHAR Ca2ce
ENCODING 41678
SWIDTH 666 0
DWIDTH 16 0
BBX 16 14 0 0
BITMAP
0000
0000
0010
0490
0490
0490
3ffe
0490
0490
0490
0490
0890
0010
0000
ENDCHAR
STARTCHAR Ca2cf
ENCODING 41679
SWIDTH 666 0
DWIDTH 16 0
BBX 16 14 0 0
BITMAP
0000
0180
03c0
03c0
0660
0660
0c30
0c30
0ff0
1818
1818
300c
300c
781e
ENDCHAR
STARTCHAR Ca2d0
ENCODING 41680
SWIDTH 666 0
DWIDTH 16 0
BBX 16 14 0 0
BITMAP
0000
1fe0
0c30
0c18
0c18
0c18
0c30
0fe0
0c30
0c18
0c0c
0c0c
0c18
1ff0
ENDCHAR
STARTCHAR Ca2d1
ENCODING 41681
SWIDTH 666 0
DWIDTH 16 0
BBX 16 14 0 0
BITMAP
0000
07e4
0c34
181c
300c
3004
3000
3000
3000
3004
300c
1818
0c30
07e0
ENDCHAR
STARTCHAR Ca2d2
ENCODING 41682
SWIDTH 666 0
DWIDTH 16 0
BBX 16 14 0 0
BITMAP
0000
3fe0
1830
1818
180c
180c
180c
180c
180c
180c
180c
1818
1830
3fe0
ENDCHAR
STARTCHAR Ca2d3
ENCODING 41683
SWIDTH 666 0
DWIDTH 16 0
BBX 16 14 0 0
BITMAP
0000
1ff8
0c18
0c08
0c00
0c00
0c40
0fc0
0c40
0c00
0c00
0c08
0c18
1ff8
ENDCHAR
STARTCHAR Ca2d4
ENCODING 41684
SWIDTH 666 0
DWIDTH 16 0
BBX 16 14 0 0
BITMAP
0000
1ff8
0c18
0c08
0c00
0c00
0c40
0fc0
0c40
0c00
0c00
0c00
0c00
1e00
ENDCHAR
STARTCHAR Ca2d5
ENCODING 41685
SWIDTH 666 0
DWIDTH 16 0
BBX 16 14 0 0
BITMAP
0000
07e8
0c38
1818
3008
3008
3000
3000
303c
3018
3018
1838
0c78
07d8
ENDCHAR
STARTCHAR Ca2d6
ENCODING 41686
SWIDTH 666 0
DWIDTH 16 0
BBX 16 14 0 0
BITMAP
0000
3c3c
1818
1818
1818
1818
1818
1ff8
1818
1818
1818
1818
1818
3c3c
ENDCHAR
STARTCHAR Ca2d7
ENCODING 41687
SWIDTH 666 0
DWIDTH 16 0
BBX 16 14 0 0
BITMAP
0000
07e0
0180
0180
0180
0180
0180
0180
0180
0180
0180
0180
0180
07e0
ENDCHAR
STARTCHAR Ca2d8
ENCODING 41688
SWIDTH 666 0
DWIDTH 16 0
BBX 16 14 0 0
BITMAP
0000
00f8
0030
0030
0030
0030
0030
0030
0030
1830
1830
1830
0c60
07c0
ENDCHAR
STARTCHAR Ca2d9
ENCODING 41689
SWIDTH 666 0
DWIDTH 16 0
BBX 16 14 0 0
BITMAP
0000
3c7c
1830
1860
18c0
1980
1b00
1f00
1980
18c0
1860
1830
1818
3c3e
ENDCHAR
STARTCHAR Ca2da
ENCODING 41690
SWIDTH 666 0
DWIDTH 16 0
BBX 16 14 0 0
BITMAP
0000
1e00
0c00
0c00
0c00
0c00
0c00
0c00
0c00
0c00
0c04
0c0c
0c1c
1ffc
ENDCHAR
STARTCHAR Ca2db
ENCODING 41691
SWIDTH 666 0
DWIDTH 16 0
BBX 16 14 0 0
BITMAP
0000
780f
380e
3c1e
3c1e
3636
3636
3226
3366
3366
31c6
31c6
3086
781f
ENDCHAR
STARTCHAR Ca2dc
ENCODING 41692
SWIDTH 666 0
DWIDTH 16 0
BBX 16 14 0 0
BITMAP
0000
701e
380c
3c0c
3e0c
370c
338c
31cc
30ec
307c
303c
301c
300c
781e
ENDCHAR
STARTCHAR Ca2dd
ENCODING 41693
SWIDTH 666 0
DWIDTH 16 0
BBX 16 14 0 0
BITMAP
0000
0ff0
1c38
381c
300c
300c
300c
300c
300c
300c
300c
381c
1c38
0ff0
ENDCHAR
STARTCHAR Ca2de
ENCODING 41694
SWIDTH 666 0
DWIDTH 16 0
BBX 16 14 0 0
BITMAP
0000
1fe0
0c38
0c1c
0c0c
0c0c
0c1c
0c38
0fe0
0c00
0c00
0c00
0c00
1e00
ENDCHAR
STARTCHAR Ca2df
ENCODING 41695
SWIDTH 666 0
DWIDTH 16 0
BBX 16 14 0 0
BITMAP
0000
0fc0
3870
7038
6018
6018
6018
6018
6018
6018
6798
70f8
3873
0ffe
ENDCHAR
STARTCHAR Ca2e0
ENCODING 41696
SWIDTH 666 0
DWIDTH 16 0
BBX 16 14 0 0
BITMAP
0000
3ff0
1818
180c
180c
180c
1818
1ff0
1980
18c0
1860
1830
1818
3c1e
ENDCHAR
STARTCHAR Ca2e1
ENCODING 41697
SWIDTH 666 0
DWIDTH 16 0
BBX 16 14 0 0
BITMAP
0000
07e8
0c38
1818
1808
0c00
0700
01c0
0070
1018
180c
1c0c
1618
13f0
ENDCHAR
STARTCHAR Ca2e2
ENCODING 41698
SWIDTH 666 0
DWIDTH 16 0
BBX 16 14 0 0
BITMAP
0000
3ffc
399c
318c
2184
0180
0180
0180
0180
0180
0180
0180
0180
03c0
ENDCHAR
STARTCHAR Ca2e3
ENCODING 41699
SWIDTH 666 0
DWIDTH 16 0
BBX 16 14 0 0
BITMAP
0000
3c3c
1818
1818
1818
1818
1818
1818
1818
1818
1818
1818
0e70
07e0
ENDCHAR
STARTCHAR Ca2e4
ENCODING 41700
SWIDTH 666 0
DWIDTH 16 0
BBX 16 14 0 0
BITMAP
0000
783c
3018
3018
3018
3018
3018
3018
3018
1830
0c60
06c0
0380
0100
ENDCHAR
STARTCHAR Ca2e5
ENCODING 41701
SWIDTH 666 0
DWIDTH 16 0
BBX 16 14 0 0
BITMAP
0000
71c7
2082
2082
31c6
11c6
1144
1b6c
1b6c
0a28
0e38
0410
0410
0410
ENDCHAR
STARTCHAR Ca2e6
ENCODING 41702
SWIDTH 666 0
DWIDTH 16 0
BBX 16 14 0 0
BITMAP
0000
7c1f
180c
0c18
0630
0220
0360
01c0
01c0
0360
0630
0c18
180c
7c1f
ENDCHAR
STARTCHAR Ca2e7
ENCODING 41703
SWIDTH 666 0
DWIDTH 16 0
BBX 16 14 0 0
BITMAP
0000
781e
300c
1818
0c30
0660
03c0
0180
0180
0180
0180
0180
0180
03c0
ENDCHAR
STARTCHAR Ca2e8
ENCODING 41704
SWIDTH 666 0
DWIDTH 16 0
BBX 16 14 0 0
BITMAP
0000
1ffc
180c
1018
0030
0060
00c0
0180
0300
0600
0c00
1804
300c
3ffc
ENDCHAR
STARTCHAR Ca2e9
ENCODING 41705
SWIDTH 666 0
DWIDTH 16 0
BBX 16 14 0 0
BITMAP
0000
0000
0000
0000
0000
0fc0
1860
0060
07e0
0c60
1860
18e8
0fb8
0000
ENDCHAR
STARTCHAR Ca2ea
ENCODING 41706
SWIDTH 666 0
DWIDTH 16 0
BBX 16 14 0 0
BITMAP
0000
1c00
0c00
0c00
0c00
0c00
0fe0
0e30
0c18
0c18
0c18
0e30
1fe0
0000
ENDCHAR
STARTCHAR Ca2eb
ENCODING 41707
SWIDTH 666 0
DWIDTH 16 0
BBX 16 14 0 0
BITMAP
0000
0000
0000
0000
0000
07e0
0c30
1800
1800
1800
1800
0c30
07e0
0000
ENDCHAR
STARTCHAR Ca2ec
ENCODING 41708
SWIDTH 666 0
DWIDTH 16 0
BBX 16 14 0 0
BITMAP
0000
0038
0018
0018
0018
0018
07d8
0c78
1818
1818
1818
0c78
07d8
0000
ENDCHAR
STARTCHAR Ca2ed
ENCODING 41709
SWIDTH 666 0
DWIDTH 16 0
BBX 16 14 0 0
BITMAP
0000
0000
0000
0000
0000
07e0
0c30
1818
1ff8
1800
1800
0c18
07f0
0000
ENDCHAR
STARTCHAR Ca2ee
ENCODING 41710
SWIDTH 666 0
DWIDTH 16 0
BBX 16 14 0 0
BITMAP
0000
01e0
0330
0330
0300
0300
1fe0
0300
0300
0300
0300
0300
0780
0000
ENDCHAR
STARTCHAR Ca2ef
ENCODING 41711
SWIDTH 666 0
DWIDTH 16 0
BBX 16 14 0 0
BITMAP
0000
0000
0000
0000
07d8
0c70
0c60
0c60
07c0
07c0
0c60
1830
1830
0c60
ENDCHAR
STARTCHAR Ca2f0
ENCODING 41712
SWIDTH 666 0
DWIDTH 16 0
BBX 16 14 0 0
BITMAP
0000
1c00
0c00
0c00
0c00
0c00
0de0
0f30
0e18
0c18
0c18
0c18
1e3c
0000
ENDCHAR
STARTCHAR Ca2f1
ENCODING 41713
SWIDTH 666 0
DWIDTH 16 0
BBX 16 14 0 0
BITMAP
0000
0000
0180
0180
0000
0000
0380
0180
0180
0180
0180
0180
03c0
0000
ENDCHAR
STARTCHAR Ca2f2
ENCODING 41714
SWIDTH 666 0
DWIDTH 16 0
BBX 16 14 0 0
BITMAP
0000
0000
00c0
00c0
0000
0000
01c0
00c0
00c0
00c0
00c0
0cc0
0cc0
0cc0
ENDCHAR
STARTCHAR Ca2f3
ENCODING 41715
SWIDTH 666 0
DWIDTH 16 0
BBX 16 14 0 0
BITMAP
0000
1c00
0c00
0c00
0c00
0cf8
0c60
0cc0
0d80
0fc0
0e60
0c30
1e7c
0000
ENDCHAR
STARTCHAR Ca2f4
ENCODING 41716
SWIDTH 666 0
DWIDTH 16 0
BBX 16 14 0 0
BITMAP
0000
0380
0180
0180
0180
0180
0180
0180
0180
0180
0180
0180
03c0
0000
ENDCHAR
STARTCHAR Ca2f5
ENCODING 41717
SWIDTH 666 0
DWIDTH 16 0
BBX 16 14 0 0
BITMAP
0000
0000
0000
0000
0000
6f78
39cc
318c
318c
318c
318c
318c
79ce
0000
ENDCHAR
STARTCHAR Ca2f6
ENCODING 41718
SWIDTH 666 0
DWIDTH 16 0
BBX 16 14 0 0
BITMAP
0000
0000
0000
0000
0000
1be0
0e30
0c30
0c30
0c30
0c30
0c30
1e78
0000
ENDCHAR
STARTCHAR Ca2f7
ENCODING 41719
SWIDTH 666 0
DWIDTH 16 0
BBX 16 14 0 0
BITMAP
0000
0000
0000
0000
0000
07e0
0c30
1818
1818
1818
1818
0c30
07e0
0000
ENDCHAR
STARTCHAR Ca2f8
ENCODING 41720
SWIDTH 666 0
DWIDTH 16 0
BBX 16 14 0 0
BITMAP
0000
0000
0000
0000
0000
1be0
0e30
0c18
0c18
0c18
0e30
0fe0
0c00
0c00
ENDCHAR
STARTCHAR Ca2f9
ENCODING 41721
SWIDTH 666 0
DWIDTH 16 0
BBX 16 14 0 0
BITMAP
0000
0000
0000
0000
0000
07c0
0c70
1830
1830
1830
0c70
07f0
0030
0030
ENDCHAR
STARTCHAR Ca2fa
ENCODING 41722
SWIDTH 666 0
DWIDTH 16 0
BBX 16 14 0 0
BITMAP
0000
0000
0000
0000
0000
0de0
0770
0630
0600
0600
0600
0600
0f00
0000
ENDCHAR
STARTCHAR Ca2fb
ENCODING 41723
SWIDTH 666 0
DWIDTH 16 0
BBX 16 14 0 0
BITMAP
0000
0000
0000
0000
07e0
0c70
0c10
0700
0180
00e0
0830
0c30
07e0
0000
ENDCHAR
STARTCHAR Ca2fc
ENCODING 41724
SWIDTH 666 0
DWIDTH 16 0
BBX 16 14 0 0
BITMAP
0000
0300
0300
0300
1fe0
0300
0300
0300
0300
0330
0370
03e0
01c0
0000
ENDCHAR
STARTCHAR Ca2fd
ENCODING 41725
SWIDTH 666 0
DWIDTH 16 0
BBX 16 14 0 0
BITMAP
0000
0000
0000
0000
0000
1c70
0c30
0c30
0c30
0c30
0c30
0c70
07dc
0000
ENDCHAR
STARTCHAR Ca2fe
ENCODING 41726
SWIDTH 666 0
DWIDTH 16 0
BBX 16 14 0 0
BITMAP
0000
0000
0000
0000
0000
1e3c
0c18
0630
0630
0360
0360
01c0
01c0
0080
ENDCHAR
STARTCHAR Ca340
ENCODING 41792
SWIDTH 666 0
DWIDTH 16 0
BBX 16 14 0 0
BITMAP
0000
0000
0000
0000
0000
7bde
318c
318c
318c
3bdc
1ff8
0e70
0420
0000
ENDCHAR
STARTCHAR Ca341
ENCODING 41793
SWIDTH 666 0
DWIDTH 16 0
BBX 16 14 0 0
BITMAP
0000
0000
0000
0000
0000
3e7c
0c30
0660
03c0
03c0
0660
0c30
3e7c
0000
ENDCHAR
STARTCHAR Ca342
ENCODING 41794
SWIDTH 666 0
DWIDTH 16 0
BBX 16 14 0 0
BITMAP
0000
0000
0000
0000
0000
1e3c
0c18
0630
0330
01e0
00e0
00c0
1980
1b80
ENDCHAR
STARTCHAR Ca343
ENCODING 41795
SWIDTH 666 0
DWIDTH 16 0
BBX 16 14 0 0
BITMAP
0000
0000
0000
0000
0ff0
0c30
0860
00c0
0180
0300
0608
0c18
0ff8
0000
ENDCHAR
STARTCHAR Ca344
ENCODING 41796
SWIDTH 666 0
DWIDTH 16 0
BBX 16 14 0 0
BITMAP
0080
01c0
01c0
0360
0360
0360
0630
0630
07f0
0c18
0c18
180c
180c
3c1e
ENDCHAR
STARTCHAR Ca345
ENCODING 41797
SWIDTH 666 0
DWIDTH 16 0
BBX 16 14 0 0
BITMAP
1fe0
0c70
0c18
0c18
0c18
0c30
0fe0
0c30
0c18
0c0c
0c0c
0c0c
0c18
1ff0
ENDCHAR
STARTCHAR Ca346
ENCODING 41798
SWIDTH 666 0
DWIDTH 16 0
BBX 16 14 0 0
BITMAP
1ffc
0c1c
0c0c
0c04
0c00
0c00
0c00
0c00
0c00
0c00
0c00
0c00
0c00
1e00
ENDCHAR
STARTCHAR Ca347
ENCODING 41799
SWIDTH 666 0
DWIDTH 16 0
BBX 16 14 0 0
BITMAP
0180
0180
03c0
0240
0660
0420
0c30
0810
1818
1008
300c
2004
6006
7ffe
ENDCHAR
STARTCHAR Ca348
ENCODING 41800
SWIDTH 666 0
DWIDTH 16 0
BBX 16 14 0 0
BITMAP
1ff8
0c18
0c08
0c00
0c40
0c40
0fc0
0c40
0c40
0c00
0c00
0c08
0c18
1ff8
ENDCHAR
STARTCHAR Ca349
ENCODING 41801
SWIDTH 666 0
DWIDTH 16 0
BBX 16 14 0 0
BITMAP
1ffe
180e
100c
0018
0030
0060
00c0
0180
0300
0600
0c00
1804
300c
3ffc
ENDCHAR
STARTCHAR Ca34a
ENCODING 41802
SWIDTH 666 0
DWIDTH 16 0
BBX 16 14 0 0
BITMAP
3c3c
1818
1818
1818
1818
1818
1ff8
1818
1818
1818
1818
1818
1818
3c3c
ENDCHAR
STARTCHAR Ca34b
ENCODING 41803
SWIDTH 666 0
DWIDTH 16 0
BBX 16 14 0 0
BITMAP
0000
07c0
1c70
3018
3018
3458
37d8
37d8
3458
3018
3018
1c70
07c0
0000
ENDCHAR
STARTCHAR Ca34c
ENCODING 41804
SWIDTH 666 0
DWIDTH 16 0
BBX 16 14 0 0
BITMAP
07e0
0180
0180
0180
0180
0180
0180
0180
0180
0180
0180
0180
0180
07e0
ENDCHAR
STARTCHAR Ca34d
ENCODING 41805
SWIDTH 666 0
DWIDTH 16 0
BBX 16 14 0 0
BITMAP
3c3c
1818
1830
1860
18c0
1980
1b00
1f80
1cc0
1860
1830
1818
180c
3c1e
ENDCHAR
STARTCHAR Ca34e
ENCODING 41806
SWIDTH 666 0
DWIDTH 16 0
BBX 16 14 0 0
BITMAP
0180
0180
03c0
0660
0660
0660
0c30
0c30
1818
1818
300c
300c
6006
700e
ENDCHAR
STARTCHAR Ca34f
ENCODING 41807
SWIDTH 666 0
DWIDTH 16 0
BBX 16 14 0 0
BITMAP
700e
381c
381c
3c3c
342c
342c
366c
366c
324c
324c
33cc
318c
318c
781e
ENDCHAR
STARTCHAR Ca350
ENCODING 41808
SWIDTH 666 0
DWIDTH 16 0
BBX 16 14 0 0
BITMAP
3c1e
1c0c
1e0c
1f0c
1b0c
198c
19cc
18cc
186c
187c
183c
181c
181c
3c0c
ENDCHAR
STARTCHAR Ca351
ENCODING 41809
SWIDTH 666 0
DWIDTH 16 0
BBX 16 14 0 0
BITMAP
0ffc
1ff8
1008
0000
0000
0408
0ff0
1020
0000
0000
0000
1004
1ffc
3ff8
ENDCHAR
STARTCHAR Ca352
ENCODING 41810
SWIDTH 666 0
DWIDTH 16 0
BBX 16 14 0 0
BITMAP
0000
07e0
1c38
300c
300c
300c
300c
300c
300c
300c
300c
300c
1c38
07e0
ENDCHAR
STARTCHAR Ca353
ENCODING 41811
SWIDTH 666 0
DWIDTH 16 0
BBX 16 14 0 0
BITMAP
3ffc
1818
1818
1818
1818
1818
1818
1818
1818
1818
1818
1818
1818
3c3c
ENDCHAR
STARTCHAR Ca354
ENCODING 41812
SWIDTH 666 0
DWIDTH 16 0
BBX 16 14 0 0
BITMAP
1fe0
0c38
0c1c
0c0c
0c0c
0c1c
0c38
0fe0
0c00
0c00
0c00
0c00
0c00
1e00
ENDCHAR
STARTCHAR Ca355
ENCODING 41813
SWIDTH 666 0
DWIDTH 16 0
BBX 16 14 0 0
BITMAP
1ffc
1ffc
0c0c
0604
0300
0180
00c0
00c0
0180
0300
0604
0c0c
1ffc
1ffc
ENDCHAR
STARTCHAR Ca356
ENCODING 41814
SWIDTH 666 0
DWIDTH 16 0
BBX 16 14 0 0
BITMAP
3ffc
399c
318c
2184
0180
0180
0180
0180
0180
0180
0180
0180
0180
03c0
ENDCHAR
STARTCHAR Ca357
ENCODING 41815
SWIDTH 666 0
DWIDTH 16 0
BBX 16 14 0 0
BITMAP
0e70
1ff8
31cc
318c
318c
0180
0180
0180
0180
0180
0180
0180
0180
03c0
ENDCHAR
STARTCHAR Ca358
ENCODING 41816
SWIDTH 666 0
DWIDTH 16 0
BBX 16 14 0 0
BITMAP
03c0
0180
07e0
1db8
318c
6186
6186
6186
6186
318c
1db8
07e0
0180
03c0
ENDCHAR
STARTCHAR Ca359
ENCODING 41817
SWIDTH 666 0
DWIDTH 16 0
BBX 16 14 0 0
BITMAP
7c1e
300c
1818
0c30
0660
03c0
0180
0180
03c0
0660
0c30
1818
300c
7c3e
ENDCHAR
STARTCHAR Ca35a
ENCODING 41818
SWIDTH 666 0
DWIDTH 16 0
BBX 16 14 0 0
BITMAP
63c6
f18f
9999
1998
1998
1998
1998
1998
0db0
0db0
07e0
0180
0180
03c0
ENDCHAR
STARTCHAR Ca35b
ENCODING 41819
SWIDTH 666 0
DWIDTH 16 0
BBX 16 14 0 0
BITMAP
03c0
0660
0c30
1818
1818
1818
1818
1818
0c30
0660
0660
3666
3e7e
0000
ENDCHAR
STARTCHAR Ca35c
ENCODING 41820
SWIDTH 666 0
DWIDTH 16 0
BBX 16 14 0 0
BITMAP
0000
0000
0000
0000
0000
03ce
0778
0c30
1830
1830
1830
1870
0cd8
078e
ENDCHAR
STARTCHAR Ca35d
ENCODING 41821
SWIDTH 666 0
DWIDTH 16 0
BBX 16 14 0 0
BITMAP
00f0
0198
030c
070c
0618
0c30
0de0
0c60
1c30
1818
1818
3c30
33e0
3000
ENDCHAR
STARTCHAR Ca35e
ENCODING 41822
SWIDTH 666 0
DWIDTH 16 0
BBX 16 14 0 0
BITMAP
0000
0000
0000
0000
0000
0630
0f70
19e0
10c0
00c0
01c0
0180
0380
0700
ENDCHAR
STARTCHAR Ca35f
ENCODING 41823
SWIDTH 666 0
DWIDTH 16 0
BBX 16 14 0 0
BITMAP
01e0
0330
0318
0188
00f0
01e0
0730
0630
0c30
0c30
0c30
0c70
0ee0
07c0
ENDCHAR
STARTCHAR Ca360
ENCODING 41824
SWIDTH 666 0
DWIDTH 16 0
BBX 16 14 0 0
BITMAP
0000
0000
0000
0000
0000
03e0
0630
0400
0780
0780
0c00
0c10
07f0
01c0
ENDCHAR
STARTCHAR Ca361
ENCODING 41825
SWIDTH 666 0
DWIDTH 16 0
BBX 16 14 0 0
BITMAP
0300
0620
0c60
07c0
0180
0300
0600
0c00
0c00
0f00
07c0
00e0
0ce0
07c0
ENDCHAR
STARTCHAR Ca362
ENCODING 41826
SWIDTH 666 0
DWIDTH 16 0
BBX 16 14 0 0
BITMAP
0000
0000
0000
0000
0000
1de0
3770
0630
0630
0c30
0c30
0c30
0c60
0060
ENDCHAR
STARTCHAR Ca363
ENCODING 41827
SWIDTH 666 0
DWIDTH 16 0
BBX 16 14 0 0
BITMAP
0000
0000
03c0
0420
0810
0810
0810
0ff0
0810
0810
0810
0420
03c0
0000
ENDCHAR
STARTCHAR Ca364
ENCODING 41828
SWIDTH 666 0
DWIDTH 16 0
BBX 16 14 0 0
BITMAP
0000
0000
0000
0000
0000
0180
0180
0300
0700
0600
0e20
0c60
0fc0
0700
ENDCHAR
STARTCHAR Ca365
ENCODING 41829
SWIDTH 666 0
DWIDTH 16 0
BBX 16 14 0 0
BITMAP
0000
0000
0000
0000
0c00
1e30
3670
26c0
0d80
0f80
0ec0
0cc8
1cf8
3870
ENDCHAR
STARTCHAR Ca366
ENCODING 41830
SWIDTH 666 0
DWIDTH 16 0
BBX 16 14 0 0
BITMAP
0000
0f00
0180
00c0
00c0
00c0
01c0
03c0
03c0
06c0
0660
0c30
0c3c
0c1c
ENDCHAR
STARTCHAR Ca367
ENCODING 41831
SWIDTH 666 0
DWIDTH 16 0
BBX 16 14 0 0
BITMAP
0000
0000
0000
0000
0000
0630
0630
0630
0630
0c30
0c60
0c64
0efc
1bb8
ENDCHAR
STARTCHAR Ca368
ENCODING 41832
SWIDTH 666 0
DWIDTH 16 0
BBX 16 14 0 0
BITMAP
0000
0000
0000
0000
0000
0c18
0618
0718
0318
0330
0660
0660
07c0
0700
ENDCHAR
STARTCHAR Ca369
ENCODING 41833
SWIDTH 666 0
DWIDTH 16 0
BBX 16 14 0 0
BITMAP
01c0
0300
07f0
0600
0600
0300
03f0
0600
0c00
0700
03c0
00e0
0630
03e0
ENDCHAR
STARTCHAR Ca36a
ENCODING 41834
SWIDTH 666 0
DWIDTH 16 0
BBX 16 14 0 0
BITMAP
0000
0000
0000
0000
0000
03e0
0630
0c18
1818
1818
1818
1830
0c60
07c0
ENDCHAR
STARTCHAR Ca36b
ENCODING 41835
SWIDTH 666 0
DWIDTH 16 0
BBX 16 14 0 0
BITMAP
0000
0000
0000
0000
0018
0ff8
1ff0
0660
0660
0660
0660
0e68
1c78
1870
ENDCHAR
STARTCHAR Ca36c
ENCODING 41836
SWIDTH 666 0
DWIDTH 16 0
BBX 16 14 0 0
BITMAP
0000
0000
0000
0000
0000
01e0
0730
0618
0c18
1c18
1c30
1fe0
1800
1800
ENDCHAR
STARTCHAR Ca36d
ENCODING 41837
SWIDTH 666 0
DWIDTH 16 0
BBX 16 14 0 0
BITMAP
0000
0000
0000
0000
0004
03cc
0678
0c30
1830
1830
1830
1860
0cc0
0780
ENDCHAR
STARTCHAR Ca36e
ENCODING 41838
SWIDTH 666 0
DWIDTH 16 0
BBX 16 14 0 0
BITMAP
0000
0000
0000
0000
0030
07e0
1fc0
0300
0300
0600
0600
0e40
0fc0
0700
ENDCHAR
STARTCHAR Ca36f
ENCODING 41839
SWIDTH 666 0
DWIDTH 16 0
BBX 16 14 0 0
BITMAP
0000
0000
0000
0000
0000
0c70
0630
0630
0630
0630
0630
0630
0660
03c0
ENDCHAR
STARTCHAR Ca370
ENCODING 41840
SWIDTH 666 0
DWIDTH 16 0
BBX 16 14 0 0
BITMAP
0060
0060
0060
03e0
07f0
0cd8
18d8
1998
0db0
0fe0
03c0
0300
0600
3c00
ENDCHAR
STARTCHAR Ca371
ENCODING 41841
SWIDTH 666 0
DWIDTH 16 0
BBX 16 14 0 0
BITMAP
0000
0000
0000
0c18
1e38
1360
01c0
0180
0380
06c0
0cc4
38ec
3078
0000
ENDCHAR
STARTCHAR Ca372
ENCODING 41842
SWIDTH 666 0
DWIDTH 16 0
BBX 16 14 0 0
BITMAP
0060
0060
0060
0060
00e0
06c8
0cd8
1cd8
1998
1db8
0db0
07e0
0300
0700
ENDCHAR
STARTCHAR Ca373
ENCODING 41843
SWIDTH 666 0
DWIDTH 16 0
BBX 16 14 0 0
BITMAP
0000
0000
0000
0000
0000
0718
0c0c
180c
18cc
18cc
198c
198c
1dd8
0770
ENDCHAR
STARTCHAR Ca374
ENCODING 41844
SWIDTH 666 0
DWIDTH 16 0
BBX 16 14 0 0
BITMAP
0000
0000
0400
0800
1000
3ffc
0004
0004
0008
0008
0010
0110
00e0
0000
ENDCHAR
STARTCHAR Ca375
ENCODING 41845
SWIDTH 666 0
DWIDTH 16 0
BBX 16 14 0 0
BITMAP
0000
0400
0800
1000
3ff8
0008
0410
0220
0140
0080
0140
0220
0410
0808
ENDCHAR
STARTCHAR Ca376
ENCODING 41846
SWIDTH 666 0
DWIDTH 16 0
BBX 16 14 0 0
BITMAP
0000
0000
0000
1ffc
1004
1004
1004
1004
1004
1004
1004
1004
0000
0000
ENDCHAR
STARTCHAR Ca377
ENCODING 41847
SWIDTH 666 0
DWIDTH 16 0
BBX 16 14 0 0
BITMAP
0000
0000
0000
1ffc
0800
0800
0800
0800
0800
0800
0800
07fc
0000
0000
ENDCHAR
STARTCHAR Ca378
ENCODING 41848
SWIDTH 666 0
DWIDTH 16 0
BBX 16 14 0 0
BITMAP
0000
0000
0400
0800
1000
3ffc
0104
0104
0104
0204
0404
0848
0030
0000
ENDCHAR
STARTCHAR Ca379
ENCODING 41849
SWIDTH 666 0
DWIDTH 16 0
BBX 16 14 0 0
BITMAP
0000
0000
0040
0040
0040
1ffc
0080
0100
0200
0400
0810
1ff8
0004
0000
ENDCHAR
STARTCHAR Ca37a
ENCODING 41850
SWIDTH 666 0
DWIDTH 16 0
BBX 16 14 0 0
BITMAP
0000
0000
1fe0
0040
0080
0100
03fc
0004
0004
0004
0108
0090
0060
0000
ENDCHAR
STARTCHAR Ca37b
ENCODING 41851
SWIDTH 666 0
DWIDTH 16 0
BBX 16 14 0 0
BITMAP
0000
0000
0080
0480
0880
1080
3ffc
0104
0104
0204
0404
0848
0030
0000
ENDCHAR
STARTCHAR Ca37c
ENCODING 41852
SWIDTH 666 0
DWIDTH 16 0
BBX 16 14 0 0
BITMAP
0000
0000
0410
0410
0820
0820
1040
1040
0820
0820
0410
0410
0208
0000
ENDCHAR
STARTCHAR Ca37d
ENCODING 41853
SWIDTH 666 0
DWIDTH 16 0
BBX 16 14 0 0
BITMAP
0000
0000
3ffc
0200
0400
0800
1ffc
0004
0008
0008
0010
0120
00c0
0000
ENDCHAR
STARTCHAR Ca37e
ENCODING 41854
SWIDTH 666 0
DWIDTH 16 0
BBX 16 14 0 0
BITMAP
0000
0000
1ffc
0800
0800
0800
0800
0800
0800
0800
1000
2000
4000
0000
ENDCHAR
STARTCHAR Ca3a1
ENCODING 41889
SWIDTH 666 0
DWIDTH 16 0
BBX 16 14 0 0
BITMAP
0000
0000
0008
0008
1008
1008
1008
1078
1388
1c08
0008
0008
0008
0000
ENDCHAR
STARTCHAR Ca3a2
ENCODING 41890
SWIDTH 666 0
DWIDTH 16 0
BBX 16 14 0 0
BITMAP
0000
0080
0100
0100
0200
0200
0400
0400
0200
0200
0100
0100
0080
0000
ENDCHAR
STARTCHAR Ca3a3
ENCODING 41891
SWIDTH 666 0
DWIDTH 16 0
BBX 16 14 0 0
BITMAP
0000
0000
1ffc
0080
0080
0080
0080
0080
0080
0080
0080
0080
0080
0000
ENDCHAR
STARTCHAR Ca3a4
ENCODING 41892
SWIDTH 666 0
DWIDTH 16 0
BBX 16 14 0 0
BITMAP
0000
0000
0080
0080
0888
0888
0888
0888
0ff8
0080
0080
0080
1ffc
0000
ENDCHAR
STARTCHAR Ca3a5
ENCODING 41893
SWIDTH 666 0
DWIDTH 16 0
BBX 16 14 0 0
BITMAP
0000
0000
0060
0180
0600
1818
0060
0180
0680
1880
0080
0080
0080
0000
ENDCHAR
STARTCHAR Ca3a6
ENCODING 41894
SWIDTH 666 0
DWIDTH 16 0
BBX 16 14 0 0
BITMAP
0000
0000
1ffc
0004
0004
0004
0ffc
0800
0800
0800
1000
2000
4000
0000
ENDCHAR
STARTCHAR Ca3a7
ENCODING 41895
SWIDTH 666 0
DWIDTH 16 0
BBX 16 14 0 0
BITMAP
0000
0000
1ffc
1004
1004
1204
1104
1084
1044
1024
1004
1004
1ffc
0000
ENDCHAR
STARTCHAR Ca3a8
ENCODING 41896
SWIDTH 666 0
DWIDTH 16 0
BBX 16 14 0 0
BITMAP
0000
0000
1ffc
0404
0404
0404
0448
0430
0400
0400
0400
0400
0400
0000
ENDCHAR
STARTCHAR Ca3a9
ENCODING 41897
SWIDTH 666 0
DWIDTH 16 0
BBX 16 14 0 0
BITMAP
0000
0000
0100
0100
1ffc
0200
0400
0ff8
0010
0010
0020
0020
0040
0000
ENDCHAR
STARTCHAR Ca3aa
ENCODING 41898
SWIDTH 666 0
DWIDTH 16 0
BBX 16 14 0 0
BITMAP
0000
0000
0200
0200
0400
0400
0800
0810
1008
101c
21e2
3e00
0000
0000
ENDCHAR
STARTCHAR Ca3ab
ENCODING 41899
SWIDTH 666 0
DWIDTH 16 0
BBX 16 14 0 0
BITMAP
0000
0000
0808
0410
0220
0140
0080
0080
0080
0080
0080
0080
0080
0000
ENDCHAR
STARTCHAR Ca3ac
ENCODING 41900
SWIDTH 666 0
DWIDTH 16 0
BBX 16 14 0 0
BITMAP
0000
0000
0000
1ffc
0040
0040
0740
08c0
1040
1000
1010
0820
07c0
0000
ENDCHAR
STARTCHAR Ca3ad
ENCODING 41901
SWIDTH 666 0
DWIDTH 16 0
BBX 16 14 0 0
BITMAP
0000
0040
0040
1ffc
0040
0040
0740
08c0
1040
1000
1010
0820
07c0
0000
ENDCHAR
STARTCHAR Ca3ae
ENCODING 41902
SWIDTH 666 0
DWIDTH 16 0
BBX 16 14 0 0
BITMAP
0000
0000
0420
0420
0420
3ffe
0420
0420
0420
0400
0200
01f8
0000
0000
ENDCHAR
STARTCHAR Ca3af
ENCODING 41903
SWIDTH 666 0
DWIDTH 16 0
BBX 16 14 0 0
BITMAP
0000
0000
1ffc
0440
0440
0880
1080
1ff8
0108
0210
0210
0420
0420
0000
ENDCHAR
STARTCHAR Ca3b0
ENCODING 41904
SWIDTH 666 0
DWIDTH 16 0
BBX 16 14 0 0
BITMAP
0000
0000
0080
0340
0c40
3020
0020
0010
0010
0008
0008
0004
0004
0000
ENDCHAR
STARTCHAR Ca3b1
ENCODING 41905
SWIDTH 666 0
DWIDTH 16 0
BBX 16 14 0 0
BITMAP
0000
0400
0808
1010
0820
0440
0280
0100
0200
0400
0820
1010
3ff8
0004
ENDCHAR
STARTCHAR Ca3b2
ENCODING 41906
SWIDTH 666 0
DWIDTH 16 0
BBX 16 14 0 0
BITMAP
0000
0000
0ff8
0808
0410
0220
0140
0080
0140
0220
0410
0808
1004
0000
ENDCHAR
STARTCHAR Ca3b3
ENCODING 41907
SWIDTH 666 0
DWIDTH 16 0
BBX 16 14 0 0
BITMAP
0000
0000
1ff8
0208
0208
0410
0410
0ffc
0004
0008
0008
0010
0010
0000
ENDCHAR
STARTCHAR Ca3b4
ENCODING 41908
SWIDTH 666 0
DWIDTH 16 0
BBX 16 14 0 0
BITMAP
0000
0000
0800
0800
0800
1000
1ffc
0004
0008
0008
0010
0010
0020
0000
ENDCHAR
STARTCHAR Ca3b5
ENCODING 41909
SWIDTH 666 0
DWIDTH 16 0
BBX 16 14 0 0
BITMAP
0000
0000
0080
0080
0080
1ffc
0080
00a0
0120
0220
0420
0820
101e
0000
ENDCHAR
STARTCHAR Ca3b6
ENCODING 41910
SWIDTH 666 0
DWIDTH 16 0
BBX 16 14 0 0
BITMAP
0000
0000
0000
0200
0200
0400
0400
0800
0800
1000
1000
3ffc
0000
0000
ENDCHAR
STARTCHAR Ca3b7
ENCODING 41911
SWIDTH 666 0
DWIDTH 16 0
BBX 16 14 0 0
BITMAP
0000
0000
0220
0220
0220
0220
0420
0420
0820
0820
1020
1020
201e
0000
ENDCHAR
STARTCHAR Ca3b8
ENCODING 41912
SWIDTH 666 0
DWIDTH 16 0
BBX 16 14 0 0
BITMAP
0000
0000
0000
0000
0000
0000
0000
1ffc
0000
0000
0000
0000
0000
0000
ENDCHAR
STARTCHAR Ca3b9
ENCODING 41913
SWIDTH 666 0
DWIDTH 16 0
BBX 16 14 0 0
BITMAP
0000
0000
1004
0808
0410
0220
0140
0080
0140
0220
0410
0808
1004
0000
ENDCHAR
STARTCHAR Ca3ba
ENCODING 41914
SWIDTH 666 0
DWIDTH 16 0
BBX 16 14 0 0
BITMAP
0000
0000
1004
1004
1004
1004
1004
1004
1004
1004
1004
0ff8
0000
0000
ENDCHAR
STARTCHAR Ca3bb
ENCODING 41915
SWIDTH 666 0
DWIDTH 16 0
BBX 16 14 0 0
BITMAP
0000
0000
0000
0180
0180
0000
0000
0000
0000
0000
0000
0000
0000
0000
ENDCHAR
STARTCHAR Ca3bc
ENCODING 41916
SWIDTH 666 0
DWIDTH 16 0
BBX 16 14 0 0
BITMAP
0000
0000
0000
0000
0000
0000
0000
0000
0000
0000
0000
0000
0000
0000
ENDCHAR
STARTCHAR Ca3bd
ENCODING 41917
SWIDTH 666 0
DWIDTH 16 0
BBX 16 14 0 0
BITMAP
0000
0000
0010
0020
0040
00c0
0180
0300
0600
0e00
1c00
0000
0000
0000
ENDCHAR
STARTCHAR Ca3be
ENCODING 41918
SWIDTH 666 0
DWIDTH 16 0
BBX 16 14 0 0
BITMAP
0000
0000
0000
0000
0004
0008
0010
0060
18c0
0d80
0700
0200
0000
0000
ENDCHAR
STARTCHAR Ca3bf
ENCODING 41919
SWIDTH 666 0
DWIDTH 16 0
BBX 16 14 0 0
BITMAP
0000
0000
0000
0000
0000
0e00
0700
0380
00c0
0060
0010
0008
0000
0000
ENDCHAR
STARTCHAR Ca3c0
ENCODING 41920
SWIDTH 666 0
DWIDTH 16 0
BBX 16 14 0 0
BITMAP
0410
1ffc
0410
07f0
0410
07f0
0410
3ffe
0808
17f4
2202
47f9
0c08
17f8
ENDCHAR
STARTCHAR Ca3c1
ENCODING 41921
SWIDTH 666 0
DWIDTH 16 0
BBX 16 14 0 0
BITMAP
00c0
3927
7d26
cccc
0d18
0eb0
0ee0
1bc0
1980
3b80
3fc0
30c3
6063
6073
ENDCHAR
STARTCHAR Ca3c2
ENCODING 41922
SWIDTH 666 0
DWIDTH 16 0
BBX 16 14 0 0
BITMAP
0000
0000
0000
78ee
8511
8511
8511
8511
8511
8511
8511
8511
7911
0000
ENDCHAR
STARTCHAR Ca3c3
ENCODING 41923
SWIDTH 666 0
DWIDTH 16 0
BBX 16 14 0 0
BITMAP
0000
07e0
0c30
1188
2384
6186
4182
4182
4182
4182
6186
2184
13c8
0c30
ENDCHAR
STARTCHAR Ca3c4
ENCODING 41924
SWIDTH 666 0
DWIDTH 16 0
BBX 16 14 0 0
BITMAP
0000
07e0
0c30
11c8
2364
6636
4632
4062
40c2
4182
6306
2614
17f8
0c30
ENDCHAR
STARTCHAR Ca3c5
ENCODING 41925
SWIDTH 666 0
DWIDTH 16 0
BBX 16 14 0 0
BITMAP
0000
07e0
0c30
13c8
2664
6026
4062
43c2
4062
4022
6666
23c4
1008
0c30
ENDCHAR
STARTCHAR Ca3c6
ENCODING 41926
SWIDTH 666 0
DWIDTH 16 0
BBX 16 14 0 0
BITMAP
0000
07e0
0c30
10c8
21c4
23c4
46c2
4cc2
58c2
5ff2
20c6
20c4
11e8
0c30
ENDCHAR
STARTCHAR Ca3c7
ENCODING 41927
SWIDTH 666 0
DWIDTH 16 0
BBX 16 14 0 0
BITMAP
0000
07e0
0c30
17e8
2404
2404
4402
47e2
4032
4012
2416
2634
13e8
0c30
ENDCHAR
STARTCHAR Ca3c8
ENCODING 41928
SWIDTH 666 0
DWIDTH 16 0
BBX 16 14 0 0
BITMAP
0000
07e0
0c30
13c8
2664
2404
4402
45c2
4662
4422
2426
2664
13c8
0c30
ENDCHAR
STARTCHAR Ca3c9
ENCODING 41929
SWIDTH 666 0
DWIDTH 16 0
BBX 16 14 0 0
BITMAP
0000
07e0
0c30
1008
27f4
2434
4022
4062
4042
40c2
2086
2184
1188
0c30
ENDCHAR
STARTCHAR Ca3ca
ENCODING 41930
SWIDTH 666 0
DWIDTH 16 0
BBX 16 14 0 0
BITMAP
0000
07e0
0c30
13c8
2664
2424
4662
43c2
4662
4c32
2c36
2664
13c8
0c30
ENDCHAR
STARTCHAR Ca3cb
ENCODING 41931
SWIDTH 666 0
DWIDTH 16 0
BBX 16 14 0 0
BITMAP
0000
07e0
0c30
13c8
2664
2c34
4c32
4672
43f2
4032
2c36
2664
13c8
0c30
ENDCHAR
STARTCHAR Ca3cc
ENCODING 41932
SWIDTH 666 0
DWIDTH 16 0
BBX 16 14 0 0
BITMAP
0000
07e0
0c30
1008
24e4
6d16
4512
4512
4512
4512
6516
2ee4
1008
0c30
ENDCHAR
STARTCHAR Ca3cd
ENCODING 41933
SWIDTH 666 0
DWIDTH 16 0
BBX 16 14 0 0
BITMAP
0000
0000
0810
1188
2384
6186
4182
4182
4182
4182
6186
2184
13c8
0810
ENDCHAR
STARTCHAR Ca3ce
ENCODING 41934
SWIDTH 666 0
DWIDTH 16 0
BBX 16 14 0 0
BITMAP
0000
0000
0810
11c8
2364
6636
4632
4062
40c2
4182
6306
2614
17f8
0810
ENDCHAR
STARTCHAR Ca3cf
ENCODING 41935
SWIDTH 666 0
DWIDTH 16 0
BBX 16 14 0 0
BITMAP
0000
0000
0810
13c8
2664
6026
4062
43c2
4062
4022
6666
23c4
1008
0810
ENDCHAR
STARTCHAR Ca3d0
ENCODING 41936
SWIDTH 666 0
DWIDTH 16 0
BBX 16 14 0 0
BITMAP
0000
0000
0810
10c8
21c4
23c4
46c2
4cc2
58c2
5ff2
20c6
20c4
11e8
0810
ENDCHAR
STARTCHAR Ca3d1
ENCODING 41937
SWIDTH 666 0
DWIDTH 16 0
BBX 16 14 0 0
BITMAP
0000
0000
0810
17e8
2404
2404
4402
47e2
4032
4012
2416
2634
13e8
0810
ENDCHAR
STARTCHAR Ca3d2
ENCODING 41938
SWIDTH 666 0
DWIDTH 16 0
BBX 16 14 0 0
BITMAP
0000
0000
0810
13c8
2664
2404
4402
45c2
4662
4422
2426
2664
13c8
0810
ENDCHAR
STARTCHAR Ca3d3
ENCODING 41939
SWIDTH 666 0
DWIDTH 16 0
BBX 16 14 0 0
BITMAP
0000
0000
0810
1008
27f4
2434
4022
4062
4042
40c2
2086
2184
1188
0810
ENDCHAR
STARTCHAR Ca3d4
ENCODING 41940
SWIDTH 666 0
DWIDTH 16 0
BBX 16 14 0 0
BITMAP
0000
0000
0810
13c8
2664
2424
4662
43c2
4662
4c32
2c36
2664
13c8
0810
ENDCHAR
STARTCHAR Ca3d5
ENCODING 41941
SWIDTH 666 0
DWIDTH 16 0
BBX 16 14 0 0
BITMAP
0000
0000
0810
13c8
2664
2c34
4c32
4672
43f2
4032
2c36
2664
13c8
0810
ENDCHAR
STARTCHAR Ca3d6
ENCODING 41942
SWIDTH 666 0
DWIDTH 16 0
BBX 16 14 0 0
BITMAP
0000
0000
0810
1008
24e4
6d16
4512
4512
4512
4512
6516
2ee4
1008
0810
ENDCHAR
STARTCHAR Ca3d7
ENCODING 41943
SWIDTH 666 0
DWIDTH 16 0
BBX 16 14 0 0
BITMAP
0000
0000
0180
0180
0000
0380
0180
0180
0180
0180
0180
0180
03c0
0000
ENDCHAR
STARTCHAR Ca3d8
ENCODING 41944
SWIDTH 666 0
DWIDTH 16 0
BBX 16 14 0 0
BITMAP
0000
0000
0630
0630
0000
0e70
0630
0630
0630
0630
0630
0630
0f78
0000
ENDCHAR
STARTCHAR Ca3d9
ENCODING 41945
SWIDTH 666 0
DWIDTH 16 0
BBX 16 14 0 0
BITMAP
0000
0000
318c
318c
0000
739c
318c
318c
318c
318c
318c
318c
7bde
0000
ENDCHAR
STARTCHAR Ca3da
ENCODING 41946
SWIDTH 666 0
DWIDTH 16 0
BBX 16 14 0 0
BITMAP
0000
0000
1800
1800
0000
3b8e
1904
1888
1888
1850
1850
1820
3c20
0000
ENDCHAR
STARTCHAR Ca3db
ENCODING 41947
SWIDTH 666 0
DWIDTH 16 0
BBX 16 14 0 0
BITMAP
0000
0000
0000
0000
0000
3c70
1820
0c40
0c40
0680
0680
0300
0300
0000
ENDCHAR
STARTCHAR Ca3dc
ENCODING 41948
SWIDTH 666 0
DWIDTH 16 0
BBX 16 14 0 0
BITMAP
0000
0000
0006
0006
0000
78ee
3046
1886
1886
0d06
0d06
0606
060f
0000
ENDCHAR
STARTCHAR Ca3dd
ENCODING 41949
SWIDTH 666 0
DWIDTH 16 0
BBX 16 14 0 0
BITMAP
0000
0000
0000
0044
0000
eecc
4444
4444
4444
2844
2844
1044
10ee
0000
ENDCHAR
STARTCHAR Ca3de
ENCODING 41950
SWIDTH 666 0
DWIDTH 16 0
BBX 16 14 0 0
BITMAP
0000
0000
0000
0092
0000
efb6
4492
4492
4492
2892
2892
1092
11b7
0000
ENDCHAR
STARTCHAR Ca3df
ENCODING 41951
SWIDTH 666 0
DWIDTH 16 0
BBX 16 14 0 0
BITMAP
0000
0000
3000
3000
0000
73de
318c
30d8
3070
3070
30d8
318c
7bde
0000
ENDCHAR
STARTCHAR Ca3e0
ENCODING 41952
SWIDTH 666 0
DWIDTH 16 0
BBX 16 14 0 0
BITMAP
0000
0000
0000
0000
0000
3e7c
0c30
0660
03c0
03c0
0660
0c30
3e7c
0000
ENDCHAR
STARTCHAR Ca3e1
ENCODING 41953
SWIDTH 666 0
DWIDTH 16 0
BBX 16 14 0 0
BITMAP
0000
0080
0080
0080
0080
0080
0080
0080
0080
0080
0080
0080
0080
0080
ENDCHAR
STARTCHAR Ca3e2
ENCODING 41954
SWIDTH 666 0
DWIDTH 16 0
BBX 16 14 0 0
BITMAP
0000
0020
0020
0020
0020
0020
0020
0020
0020
0020
0020
0040
0080
0100
ENDCHAR
STARTCHAR Ca3e3
ENCODING 41955
SWIDTH 666 0
DWIDTH 16 0
BBX 16 14 0 0
BITMAP
0000
0020
0020
0020
0020
0020
0020
0020
0020
0020
0020
0020
0020
0020
ENDCHAR
STARTCHAR Ca3e4
ENCODING 41956
SWIDTH 666 0
DWIDTH 16 0
BBX 16 14 0 0
BITMAP
0000
0000
0000
0200
0180
0080
7ffe
0000
0000
0000
0000
0000
0000
0000
ENDCHAR
STARTCHAR Ca3e5
ENCODING 41957
SWIDTH 666 0
DWIDTH 16 0
BBX 16 14 0 0
BITMAP
0000
0220
0220
0220
0220
0220
0220
0220
0220
0220
0420
0420
0822
1022
ENDCHAR
STARTCHAR Ca3e6
ENCODING 41958
SWIDTH 666 0
DWIDTH 16 0
BBX 16 14 0 0
BITMAP
0000
7ffc
4004
4004
4004
4004
4004
4004
4004
4004
4004
4004
4004
4004
ENDCHAR
STARTCHAR Ca3e7
ENCODING 41959
SWIDTH 666 0
DWIDTH 16 0
BBX 16 14 0 0
BITMAP
0000
0000
7ffe
4002
4002
400c
0000
0000
0000
0000
0000
0000
0000
0000
ENDCHAR
STARTCHAR Ca3e8
ENCODING 41960
SWIDTH 666 0
DWIDTH 16 0
BBX 16 14 0 0
BITMAP
0000
0000
0400
0300
0180
0180
0000
0040
0080
0180
0300
0e00
0600
0600
ENDCHAR
STARTCHAR Ca3e9
ENCODING 41961
SWIDTH 666 0
DWIDTH 16 0
BBX 16 14 0 0
BITMAP
0800
0c00
0800
1ffc
1004
2004
2004
4004
0004
0004
0004
0008
0010
0020
ENDCHAR
STARTCHAR Ca3ea
ENCODING 41962
SWIDTH 666 0
DWIDTH 16 0
BBX 16 14 0 0
BITMAP
2000
2030
2030
2060
20c0
20c0
2180
2300
2600
3800
2008
2008
2008
2008
ENDCHAR
STARTCHAR Ca3eb
ENCODING 41963
SWIDTH 666 0
DWIDTH 16 0
BBX 16 14 0 0
BITMAP
0000
0000
7ffe
2000
2000
2000
2000
2000
2000
2000
2000
2000
2000
1ffe
ENDCHAR
STARTCHAR Ca3ec
ENCODING 41964
SWIDTH 666 0
DWIDTH 16 0
BBX 16 14 0 0
BITMAP
0004
07fc
0204
0204
0204
0204
0204
0208
0228
0210
0200
0200
0200
0200
ENDCHAR
STARTCHAR Ca3ed
ENCODING 41965
SWIDTH 666 0
DWIDTH 16 0
BBX 16 14 0 0
BITMAP
0000
0000
0100
0180
0200
0400
0810
1008
200c
3ffe
0002
0000
0000
0000
ENDCHAR
STARTCHAR Ca3ee
ENCODING 41966
SWIDTH 666 0
DWIDTH 16 0
BBX 16 14 0 0
BITMAP
0000
0000
2004
3ffc
2004
2004
2004
2004
2004
2004
2004
2004
3ffc
2004
ENDCHAR
STARTCHAR Ca3ef
ENCODING 41967
SWIDTH 666 0
DWIDTH 16 0
BBX 16 14 0 0
BITMAP
0000
0000
0008
1ff8
1008
1008
0810
0420
0240
0180
0180
0240
0420
0818
ENDCHAR
STARTCHAR Ca3f0
ENCODING 41968
SWIDTH 666 0
DWIDTH 16 0
BBX 16 14 0 0
BITMAP
0000
0000
0300
0180
0080
7ffe
4002
4002
4004
2018
0000
0000
0000
0000
ENDCHAR
STARTCHAR Ca3f1
ENCODING 41969
SWIDTH 666 0
DWIDTH 16 0
BBX 16 14 0 0
BITMAP
0000
0000
0888
0888
1110
1110
2220
2220
1110
1110
0888
0888
0444
0000
ENDCHAR
STARTCHAR Ca3f2
ENCODING 41970
SWIDTH 666 0
DWIDTH 16 0
BBX 16 14 0 0
BITMAP
0100
0180
0200
0400
0820
1830
0840
0480
0300
0200
0420
0810
1078
1f88
ENDCHAR
STARTCHAR Ca3f3
ENCODING 41971
SWIDTH 666 0
DWIDTH 16 0
BBX 16 14 0 0
BITMAP
0000
0100
00c0
0040
0ffc
0800
0800
0800
0800
0800
0800
0800
1000
1000
ENDCHAR
STARTCHAR Ca3f4
ENCODING 41972
SWIDTH 666 0
DWIDTH 16 0
BBX 16 14 0 0
BITMAP
0000
3f00
0300
0200
0400
1f00
0100
3100
1300
0a00
0600
0600
0900
30c0
ENDCHAR
STARTCHAR Ca3f5
ENCODING 41973
SWIDTH 666 0
DWIDTH 16 0
BBX 16 14 0 0
BITMAP
0000
0000
0ff8
0008
0008
0008
0ff8
0008
0008
0008
7ffe
0000
0000
0000
ENDCHAR
STARTCHAR Ca3f6
ENCODING 41974
SWIDTH 666 0
DWIDTH 16 0
BBX 16 14 0 0
BITMAP
0000
00c0
0180
0300
0660
18c0
0180
0318
0630
1860
00c0
0180
0700
3c00
ENDCHAR
STARTCHAR Ca3f7
ENCODING 41975
SWIDTH 666 0
DWIDTH 16 0
BBX 16 14 0 0
BITMAP
0200
0200
03f0
0200
0200
1ff0
1020
0820
0840
0480
0300
0280
0440
1830
ENDCHAR
STARTCHAR Ca3f8
ENCODING 41976
SWIDTH 666 0
DWIDTH 16 0
BBX 16 14 0 0
BITMAP
0000
0000
3ff8
0200
0200
0200
7ffc
0280
0280
0480
0880
1082
2082
407e
ENDCHAR
STARTCHAR Ca3f9
ENCODING 41977
SWIDTH 666 0
DWIDTH 16 0
BBX 16 14 0 0
BITMAP
0040
0840
0840
0840
0840
0fc0
0040
0040
1fc0
0840
0840
0840
0840
1040
ENDCHAR
STARTCHAR Ca3fa
ENCODING 41978
SWIDTH 666 0
DWIDTH 16 0
BBX 16 14 0 0
BITMAP
0040
0040
0fff
0800
4800
2800
2800
0800
1800
2800
6800
1000
1000
2000
ENDCHAR
STARTCHAR Ca3fb
ENCODING 41979
SWIDTH 666 0
DWIDTH 16 0
BBX 16 14 0 0
BITMAP
0000
1e60
02c0
2298
1460
0820
1018
6006
0000
0000
0000
0000
0000
0000
ENDCHAR
STARTCHAR Ca3fc
ENCODING 41980
SWIDTH 666 0
DWIDTH 16 0
BBX 16 14 0 0
BITMAP
0000
0000
0820
0820
2aa8
2aa8
2aa8
2aa8
3ef8
0820
0820
1020
1020
2020
ENDCHAR
STARTCHAR Ca3fd
ENCODING 41981
SWIDTH 666 0
DWIDTH 16 0
BBX 16 14 0 0
BITMAP
00e0
0300
1c18
00e0
0304
1c1c
00e0
0380
1c80
0080
08fc
0880
1480
2280
ENDCHAR
STARTCHAR Ca3fe
ENCODING 41982
SWIDTH 666 0
DWIDTH 16 0
BBX 16 14 0 0
BITMAP
0000
0000
0100
0ff0
0110
3ffc
0110
0ff0
0100
1918
0d60
0140
0520
1930
ENDCHAR
STARTCHAR Ca440
ENCODING 42048
SWIDTH 666 0
DWIDTH 16 0
BBX 16 14 0 0
BITMAP
0000
0000
0000
0000
0000
0000
0004
fffe
0000
0000
0000
0000
0000
0000
ENDCHAR
STARTCHAR Ca441
ENCODING 42049
SWIDTH 666 0
DWIDTH 16 0
BBX 16 14 0 0
BITMAP
0000
7ff0
0020
0040
0080
0100
0200
0400
0800
1000
2000
4004
4004
3ffc
ENDCHAR
STARTCHAR Ca442
ENCODING 42050
SWIDTH 666 0
DWIDTH 16 0
BBX 16 14 0 0
BITMAP
0004
fffe
0100
0100
0100
0100
0100
0100
0100
0100
0100
0100
0500
0200
ENDCHAR
STARTCHAR Ca443
ENCODING 42051
SWIDTH 666 0
DWIDTH 16 0
BBX 16 14 0 0
BITMAP
0400
0400
0400
0400
0404
fffe
0400
0400
0400
0400
0400
0404
0404
03fc
ENDCHAR
STARTCHAR Ca444
ENCODING 42052
SWIDTH 666 0
DWIDTH 16 0
BBX 16 14 0 0
BITMAP
0020
7ff0
0820
0840
0884
08fe
0804
0804
1004
1004
2004
4088
8050
0020
ENDCHAR
STARTCHAR Ca445
ENCODING 42053
SWIDTH 666 0
DWIDTH 16 0
BBX 16 14 0 0
BITMAP
0800
0800
0840
ffe0
0840
0840
0840
0840
0840
0840
1040
1042
2042
c03e
ENDCHAR
STARTCHAR Ca446
ENCODING 42054
SWIDTH 666 0
DWIDTH 16 0
BBX 16 14 0 0
BITMAP
0004
fffe
0010
0020
0040
0180
0080
0080
0080
0080
0080
0480
0280
0100
ENDCHAR
STARTCHAR Ca447
ENCODING 42055
SWIDTH 666 0
DWIDTH 16 0
BBX 16 14 0 0
BITMAP
0000
0010
3ff8
0000
0000
0000
0000
0000
0000
0000
0004
fffe
0000
0000
ENDCHAR
STARTCHAR Ca448
ENCODING 42056
SWIDTH 666 0
DWIDTH 16 0
BBX 16 14 0 0
BITMAP
0100
0100
0100
0100
0100
0100
0280
0280
0440
0440
0820
1010
200e
4004
ENDCHAR
STARTCHAR Ca449
ENCODING 42057
SWIDTH 666 0
DWIDTH 16 0
BBX 16 14 0 0
BITMAP
1040
1040
1040
1040
1040
1040
1040
1040
1040
1042
1042
2042
4042
807e
ENDCHAR
STARTCHAR Ca44a
ENCODING 42058
SWIDTH 666 0
DWIDTH 16 0
BBX 16 14 0 0
BITMAP
0400
0200
0100
0100
0280
0280
0440
0440
0820
0820
1010
2010
400e
8004
ENDCHAR
STARTCHAR Ca44b
ENCODING 42059
SWIDTH 666 0
DWIDTH 16 0
BBX 16 14 0 0
BITMAP
0040
0460
0440
0440
0440
0440
0440
0820
0820
0820
1010
1008
200e
4004
ENDCHAR
STARTCHAR Ca44c
ENCODING 42060
SWIDTH 666 0
DWIDTH 16 0
BBX 16 14 0 0
BITMAP
0820
0ff0
0820
0820
0820
0820
0820
0820
0820
0820
0822
1022
201e
c000
ENDCHAR
STARTCHAR Ca44d
ENCODING 42061
SWIDTH 666 0
DWIDTH 16 0
BBX 16 14 0 0
BITMAP
0004
fffe
0204
0204
0204
0204
0204
0204
0404
0804
0804
1044
2028
4010
ENDCHAR
STARTCHAR Ca44e
ENCODING 42062
SWIDTH 666 0
DWIDTH 16 0
BBX 16 14 0 0
BITMAP
0004
fffe
0004
0024
0044
0084
0104
0204
0404
0804
1004
6044
0028
0010
ENDCHAR
STARTCHAR Ca44f
ENCODING 42063
SWIDTH 666 0
DWIDTH 16 0
BBX 16 14 0 0
BITMAP
0200
0200
0204
fffe
0204
0204
0204
0204
0404
0404
0804
1044
2028
c010
ENDCHAR
STARTCHAR Ca450
ENCODING 42064
SWIDTH 666 0
DWIDTH 16 0
BBX 16 14 0 0
BITMAP
1000
1020
1060
1080
1100
1200
1400
1800
1000
1000
1004
1004
0ffc
0000
ENDCHAR
STARTCHAR Ca451
ENCODING 42065
SWIDTH 666 0
DWIDTH 16 0
BBX 16 14 0 0
BITMAP
0100
0100
0100
0100
0104
fffe
0100
0100
0100
0100
0100
0100
0100
0100
ENDCHAR
STARTCHAR Ca452
ENCODING 42066
SWIDTH 666 0
DWIDTH 16 0
BBX 16 14 0 0
BITMAP
0200
0200
0200
0200
0280
0260
0230
0210
0200
0200
0200
0200
0200
0200
ENDCHAR
STARTCHAR Ca453
ENCODING 42067
SWIDTH 666 0
DWIDTH 16 0
BBX 16 14 0 0
BITMAP
0010
7ff8
1010
1020
0820
0840
0440
0280
0100
0280
0440
0830
300e
c004
ENDCHAR
STARTCHAR Ca454
ENCODING 42068
SWIDTH 666 0
DWIDTH 16 0
BBX 16 14 0 0
BITMAP
0000
0008
7ffc
0000
0000
0000
0010
3ff8
0000
0000
0000
0004
fffe
0000
ENDCHAR
STARTCHAR Ca455
ENCODING 42069
SWIDTH 666 0
DWIDTH 16 0
BBX 16 14 0 0
BITMAP
0004
fffe
0200
0200
0280
0240
0230
0210
0200
0200
0200
0200
0200
0200
ENDCHAR
STARTCHAR Ca456
ENCODING 42070
SWIDTH 666 0
DWIDTH 16 0
BBX 16 14 0 0
BITMAP
0040
0040
0044
fffe
0040
0840
0840
0440
0280
0100
0280
0460
181e
e004
ENDCHAR
STARTCHAR Ca457
ENCODING 42071
SWIDTH 666 0
DWIDTH 16 0
BBX 16 14 0 0
BITMAP
0100
0100
0100
0100
0110
01f8
0100
0100
0100
0100
0100
0100
0104
fffe
ENDCHAR
STARTCHAR Ca458
ENCODING 42072
SWIDTH 666 0
DWIDTH 16 0
BBX 16 14 0 0
BITMAP
2010
1030
0c40
0480
0100
0100
0100
0100
0100
0100
0100
0100
0100
0100
ENDCHAR
STARTCHAR Ca459
ENCODING 42073
SWIDTH 666 0
DWIDTH 16 0
BBX 16 14 0 0
BITMAP
0200
0200
0220
7ff0
0220
0220
0220
0520
04a0
04a2
0822
0822
301e
c000
ENDCHAR
STARTCHAR Ca45a
ENCODING 42074
SWIDTH 666 0
DWIDTH 16 0
BBX 16 14 0 0
BITMAP
0020
0ff0
0820
0820
0a20
0920
09a0
08a0
0820
0822
1022
1022
201e
4000
ENDCHAR
STARTCHAR Ca45b
ENCODING 42075
SWIDTH 666 0
DWIDTH 16 0
BBX 16 14 0 0
BITMAP
0400
0420
07f0
0820
1020
2040
0040
0080
0140
0220
0420
0810
300e
c004
ENDCHAR
STARTCHAR Ca45c
ENCODING 42076
SWIDTH 666 0
DWIDTH 16 0
BBX 16 14 0 0
BITMAP
0100
0200
0400
0800
1020
2040
c080
0100
0200
0400
0810
1008
fffc
0002
ENDCHAR
STARTCHAR Ca45d
ENCODING 42077
SWIDTH 666 0
DWIDTH 16 0
BBX 16 14 0 0
BITMAP
0100
0110
1138
11d0
1710
3910
d110
1110
1120
1100
1102
1002
1002
0ffe
ENDCHAR
STARTCHAR Ca45e
ENCODING 42078
SWIDTH 666 0
DWIDTH 16 0
BBX 16 14 0 0
BITMAP
0800
1008
1ffc
2000
4020
9ff0
0040
0080
0100
0200
0402
0802
1002
0ffe
ENDCHAR
STARTCHAR Ca45f
ENCODING 42079
SWIDTH 666 0
DWIDTH 16 0
BBX 16 14 0 0
BITMAP
0010
3ff8
0100
0100
0104
fffe
0100
0100
0100
0100
0100
0100
0500
0200
ENDCHAR
STARTCHAR Ca460
ENCODING 42080
SWIDTH 666 0
DWIDTH 16 0
BBX 16 14 0 0
BITMAP
0200
0100
0100
0004
fffe
1000
1000
1000
1000
1000
1000
1000
1008
0ffc
ENDCHAR
STARTCHAR Ca461
ENCODING 42081
SWIDTH 666 0
DWIDTH 16 0
BBX 16 14 0 0
BITMAP
0004
fffe
0440
0440
0440
0440
0440
0440
0440
0840
0842
1042
203e
4000
ENDCHAR
STARTCHAR Ca462
ENCODING 42082
SWIDTH 666 0
DWIDTH 16 0
BBX 16 14 0 0
BITMAP
0004
7ffe
0104
0104
0104
0104
1904
0d04
0204
0204
0404
0844
1028
6010
ENDCHAR
STARTCHAR Ca463
ENCODING 42083
SWIDTH 666 0
DWIDTH 16 0
BBX 16 14 0 0
BITMAP
1000
1004
3ffe
2004
4004
8004
0404
0204
0304
0104
0004
0044
0028
0010
ENDCHAR
STARTCHAR Ca464
ENCODING 42084
SWIDTH 666 0
DWIDTH 16 0
BBX 16 14 0 0
BITMAP
0020
00f0
3f00
0100
0100
0104
fffe
0100
0100
0100
0100
0100
0100
0100
ENDCHAR
STARTCHAR Ca465
ENCODING 42085
SWIDTH 666 0
DWIDTH 16 0
BBX 16 14 0 0
BITMAP
0008
3ffc
0008
1208
1110
0910
0420
0240
0180
0280
0440
0830
300e
c004
ENDCHAR
STARTCHAR Ca466
ENCODING 42086
SWIDTH 666 0
DWIDTH 16 0
BBX 16 14 0 0
BITMAP
0000
0008
3ffc
2008
2008
2008
2008
2008
2008
2008
2008
2008
3ff8
2008
ENDCHAR
STARTCHAR Ca467
ENCODING 42087
SWIDTH 666 0
DWIDTH 16 0
BBX 16 14 0 0
BITMAP
0100
0100
0100
0100
0108
7ffc
0100
0100
0100
0100
0100
0100
0104
fffe
ENDCHAR
STARTCHAR Ca468
ENCODING 42088
SWIDTH 666 0
DWIDTH 16 0
BBX 16 14 0 0
BITMAP
0100
0100
0100
0100
0104
fffe
0100
0100
0100
0100
0100
0110
3ff8
0000
ENDCHAR
STARTCHAR Ca469
ENCODING 42089
SWIDTH 666 0
DWIDTH 16 0
BBX 16 14 0 0
BITMAP
0200
0208
07fc
0408
0808
1010
2410
4320
0140
0180
0200
0400
1800
6000
ENDCHAR
STARTCHAR Ca46a
ENCODING 42090
SWIDTH 666 0
DWIDTH 16 0
BBX 16 14 0 0
BITMAP
0100
0100
0100
0104
fffe
0100
0100
0280
0240
0440
0420
0810
100e
6004
ENDCHAR
STARTCHAR Ca46b
ENCODING 42091
SWIDTH 666 0
DWIDTH 16 0
BBX 16 14 0 0
BITMAP
0100
0100
0200
0204
fffe
0420
0820
1020
0c40
0280
0180
0660
1818
6008
ENDCHAR
STARTCHAR Ca46c
ENCODING 42092
SWIDTH 666 0
DWIDTH 16 0
BBX 16 14 0 0
BITMAP
0010
3ff8
0020
0040
0180
0104
fffe
0100
0100
0100
0100
0100
0500
0200
ENDCHAR
STARTCHAR Ca46d
ENCODING 42093
SWIDTH 666 0
DWIDTH 16 0
BBX 16 14 0 0
BITMAP
3ff0
0020
0040
0180
010c
0130
01c0
1f00
6100
0100
0100
0100
0500
0200
ENDCHAR
STARTCHAR Ca46e
ENCODING 42094
SWIDTH 666 0
DWIDTH 16 0
BBX 16 14 0 0
BITMAP
3ff0
0020
0040
1180
0900
0500
0300
0180
0140
0130
010c
0100
0500
0200
ENDCHAR
STARTCHAR Ca46f
ENCODING 42095
SWIDTH 666 0
DWIDTH 16 0
BBX 16 14 0 0
BITMAP
0040
0040
0040
0044
fffe
0040
0840
0440
0440
0040
0040
0040
0140
0080
ENDCHAR
STARTCHAR Ca470
ENCODING 42096
SWIDTH 666 0
DWIDTH 16 0
BBX 16 14 0 0
BITMAP
0100
0100
0100
0100
0100
0920
1910
2108
4104
8102
0100
0100
0500
0200
ENDCHAR
STARTCHAR Ca471
ENCODING 42097
SWIDTH 666 0
DWIDTH 16 0
BBX 16 14 0 0
BITMAP
0200
0200
0204
fffe
0280
0280
0280
0480
0480
0480
0884
1084
207c
4000
ENDCHAR
STARTCHAR Ca472
ENCODING 42098
SWIDTH 666 0
DWIDTH 16 0
BBX 16 14 0 0
BITMAP
0008
3ffc
2008
2008
2008
3ff8
2008
2000
2000
2000
2000
4000
4000
8000
ENDCHAR
STARTCHAR Ca473
ENCODING 42099
SWIDTH 666 0
DWIDTH 16 0
BBX 16 14 0 0
BITMAP
0100
0100
0100
0100
0100
4104
4104
4104
4104
4104
4104
4104
7ffc
4004
ENDCHAR
STARTCHAR Ca474
ENCODING 42100
SWIDTH 666 0
DWIDTH 16 0
BBX 16 14 0 0
BITMAP
0004
1004
1084
1084
1084
1084
1084
1084
1084
1084
1084
2004
4004
0004
ENDCHAR
STARTCHAR Ca475
ENCODING 42101
SWIDTH 666 0
DWIDTH 16 0
BBX 16 14 0 0
BITMAP
0000
0008
7ffc
0100
0100
0100
0100
0100
0100
0100
0100
0100
0104
fffe
ENDCHAR
STARTCHAR Ca476
ENCODING 42102
SWIDTH 666 0
DWIDTH 16 0
BBX 16 14 0 0
BITMAP
0008
fffc
0008
0008
0008
0008
7ff8
4008
4000
4000
4002
4002
4002
3ffe
ENDCHAR
STARTCHAR Ca477
ENCODING 42103
SWIDTH 666 0
DWIDTH 16 0
BBX 16 14 0 0
BITMAP
0008
fffc
0008
0008
4008
4008
7ff8
4008
4000
4000
4002
4002
4002
3ffe
ENDCHAR
STARTCHAR Ca478
ENCODING 42104
SWIDTH 666 0
DWIDTH 16 0
BBX 16 14 0 0
BITMAP
0010
fff8
4010
4010
4010
4010
7ff0
4010
4000
4000
4002
4002
4002
3ffe
ENDCHAR
STARTCHAR Ca479
ENCODING 42105
SWIDTH 666 0
DWIDTH 16 0
BBX 16 14 0 0
BITMAP
0100
0100
0108
3ffc
2108
2108
2108
2108
2108
2128
2110
0100
0100
0100
ENDCHAR
STARTCHAR Ca47a
ENCODING 42106
SWIDTH 666 0
DWIDTH 16 0
BBX 16 14 0 0
BITMAP
0010
3ff8
0100
0100
0100
0104
fffe
0100
0100
0100
0100
0100
0100
0100
ENDCHAR
STARTCHAR Ca47b
ENCODING 42107
SWIDTH 666 0
DWIDTH 16 0
BBX 16 14 0 0
BITMAP
0000
0000
0000
0440
0440
0440
0440
fffe
0440
0440
0840
0840
1040
2040
ENDCHAR
STARTCHAR Ca47c
ENCODING 42108
SWIDTH 666 0
DWIDTH 16 0
BBX 16 14 0 0
BITMAP
0240
0220
0224
03fe
fe00
0200
0100
0100
0080
0080
0044
0024
001c
0000
ENDCHAR
STARTCHAR Ca47d
ENCODING 42109
SWIDTH 666 0
DWIDTH 16 0
BBX 16 14 0 0
BITMAP
0010
7ff8
0010
0010
3ff0
2010
2000
4008
7ffc
0008
0008
0090
0050
0020
ENDCHAR
STARTCHAR Ca47e
ENCODING 42110
SWIDTH 666 0
DWIDTH 16 0
BBX 16 14 0 0
BITMAP
0080
0080
0084
fffe
0080
0180
0180
0280
0480
0880
1080
6080
0280
0100
ENDCHAR
STARTCHAR Ca4a1
ENCODING 42145
SWIDTH 666 0
DWIDTH 16 0
BBX 16 14 0 0
BITMAP
0010
3ff8
0210
0210
0210
0210
0210
7ffe
0410
0410
0410
0410
0414
fffe
ENDCHAR
STARTCHAR Ca4a2
ENCODING 42146
SWIDTH 666 0
DWIDTH 16 0
BBX 16 14 0 0
BITMAP
fffe
0100
0110
21f8
2100
2100
2104
3ffe
0004
0004
0004
0044
0028
0010
ENDCHAR
STARTCHAR Ca4a3
ENCODING 42147
SWIDTH 666 0
DWIDTH 16 0
BBX 16 14 0 0
BITMAP
0004
fffe
0080
0100
0100
0340
0520
0918
110c
2104
4100
0100
0100
0100
ENDCHAR
STARTCHAR Ca4a4
ENCODING 42148
SWIDTH 666 0
DWIDTH 16 0
BBX 16 14 0 0
BITMAP
0100
0100
0104
7ffe
4104
4104
4104
7ffc
4104
0100
0100
0100
0100
0100
ENDCHAR
STARTCHAR Ca4a5
ENCODING 42149
SWIDTH 666 0
DWIDTH 16 0
BBX 16 14 0 0
BITMAP
0100
0170
0780
3900
0100
0110
3ff8
0100
0104
fffe
0100
0100
0100
0100
ENDCHAR
STARTCHAR Ca4a6
ENCODING 42150
SWIDTH 666 0
DWIDTH 16 0
BBX 16 14 0 0
BITMAP
0010
1ff8
1010
1210
1110
1110
1010
fffe
1010
1010
1010
1010
2050
4020
ENDCHAR
STARTCHAR Ca4a7
ENCODING 42151
SWIDTH 666 0
DWIDTH 16 0
BBX 16 14 0 0
BITMAP
0200
0100
0010
7ff8
0020
0040
0080
0100
0200
0c00
3000
4800
07fe
0000
ENDCHAR
STARTCHAR Ca4a8
ENCODING 42152
SWIDTH 666 0
DWIDTH 16 0
BBX 16 14 0 0
BITMAP
0010
3ff8
0410
0410
fffe
0410
0410
3ff0
0410
0400
0800
1000
2000
4000
ENDCHAR
STARTCHAR Ca4a9
ENCODING 42153
SWIDTH 666 0
DWIDTH 16 0
BBX 16 14 0 0
BITMAP
0020
3ff0
0040
0280
0184
fffe
0104
0108
0100
0100
0100
0100
0500
0200
ENDCHAR
STARTCHAR Ca4aa
ENCODING 42154
SWIDTH 666 0
DWIDTH 16 0
BBX 16 14 0 0
BITMAP
0020
1ff0
0000
0000
0004
fffe
0200
0400
0420
0810
1008
7ffc
2002
0002
ENDCHAR
STARTCHAR Ca4ab
ENCODING 42155
SWIDTH 666 0
DWIDTH 16 0
BBX 16 14 0 0
BITMAP
0820
0820
0820
7ffc
0820
0820
0824
fffe
0820
0820
1020
1020
2020
4020
ENDCHAR
STARTCHAR Ca4ac
ENCODING 42156
SWIDTH 666 0
DWIDTH 16 0
BBX 16 14 0 0
BITMAP
0008
7ffc
0800
0800
0820
0ff0
0820
0820
1020
3fe0
1040
0080
0084
fffe
ENDCHAR
STARTCHAR Ca4ad
ENCODING 42157
SWIDTH 666 0
DWIDTH 16 0
BBX 16 14 0 0
BITMAP
0008
7ffc
0200
0200
0200
0210
3ffc
0410
0410
0810
0810
0814
fffe
0000
ENDCHAR
STARTCHAR Ca4ae
ENCODING 42158
SWIDTH 666 0
DWIDTH 16 0
BBX 16 14 0 0
BITMAP
0200
0104
fffe
0000
0020
0ff0
0820
0820
0820
0820
1022
1022
2022
401e
ENDCHAR
STARTCHAR Ca4af
ENCODING 42159
SWIDTH 666 0
DWIDTH 16 0
BBX 16 14 0 0
BITMAP
0800
0808
17fc
1000
3000
5000
9000
1000
1000
1004
1ffe
1000
1000
1000
ENDCHAR
STARTCHAR Ca4b0
ENCODING 42160
SWIDTH 666 0
DWIDTH 16 0
BBX 16 14 0 0
BITMAP
0840
0840
1040
1040
3044
5ffe
9040
1040
1040
1040
1040
1040
1040
1040
ENDCHAR
STARTCHAR Ca4b1
ENCODING 42161
SWIDTH 666 0
DWIDTH 16 0
BBX 16 14 0 0
BITMAP
0804
0bfe
1020
1020
3020
5020
9020
1020
1020
1020
1020
1120
10a0
1040
ENDCHAR
STARTCHAR Ca4b2
ENCODING 42162
SWIDTH 666 0
DWIDTH 16 0
BBX 16 14 0 0
BITMAP
0440
0440
0840
0840
1050
304c
5046
9042
1040
1040
1040
1040
1040
1040
ENDCHAR
STARTCHAR Ca4b3
ENCODING 42163
SWIDTH 666 0
DWIDTH 16 0
BBX 16 14 0 0
BITMAP
0900
0900
1110
17f8
3110
5110
9110
1110
1110
1210
1212
1412
180e
1000
ENDCHAR
STARTCHAR Ca4b4
ENCODING 42164
SWIDTH 666 0
DWIDTH 16 0
BBX 16 14 0 0
BITMAP
1000
1008
27fc
2108
6110
a124
213e
2104
2104
2204
2204
2444
2428
2810
ENDCHAR
STARTCHAR Ca4b5
ENCODING 42165
SWIDTH 666 0
DWIDTH 16 0
BBX 16 14 0 0
BITMAP
0100
0280
0440
0820
1010
27ce
c004
0000
1ff0
0010
0020
0040
0080
0100
ENDCHAR
STARTCHAR Ca4b6
ENCODING 42166
SWIDTH 666 0
DWIDTH 16 0
BBX 16 14 0 0
BITMAP
0100
0280
0440
0820
1010
244e
c444
0440
0440
0840
0840
0840
1040
2040
ENDCHAR
STARTCHAR Ca4b7
ENCODING 42167
SWIDTH 666 0
DWIDTH 16 0
BBX 16 14 0 0
BITMAP
3ffc
2000
2080
2080
2080
2080
2080
2140
2220
2220
4410
4810
900e
2004
ENDCHAR
STARTCHAR Ca4b8
ENCODING 42168
SWIDTH 666 0
DWIDTH 16 0
BBX 16 14 0 0
BITMAP
0010
3ff8
0000
0004
fffe
0440
0440
0440
0440
0840
0842
1042
2042
c03e
ENDCHAR
STARTCHAR Ca4b9
ENCODING 42169
SWIDTH 666 0
DWIDTH 16 0
BBX 16 14 0 0
BITMAP
0200
0440
0820
1010
7ff8
0488
0480
0480
0880
0880
1082
1082
207e
c000
ENDCHAR
STARTCHAR Ca4ba
ENCODING 42170
SWIDTH 666 0
DWIDTH 16 0
BBX 16 14 0 0
BITMAP
0200
0100
0104
fffe
4104
4104
4104
4284
4444
4834
5014
4004
4014
4008
ENDCHAR
STARTCHAR Ca4bb
ENCODING 42171
SWIDTH 666 0
DWIDTH 16 0
BBX 16 14 0 0
BITMAP
0400
0200
0300
0104
fffe
0000
0000
0440
0c20
0810
1018
100c
200c
4004
ENDCHAR
STARTCHAR Ca4bc
ENCODING 42172
SWIDTH 666 0
DWIDTH 16 0
BBX 16 14 0 0
BITMAP
0440
0820
0820
1010
2058
4fee
8404
0820
1ff0
0020
0020
0220
0140
0080
ENDCHAR
STARTCHAR Ca4bd
ENCODING 42173
SWIDTH 666 0
DWIDTH 16 0
BBX 16 14 0 0
BITMAP
00c0
0480
0440
0840
0820
1010
210e
c104
0200
0400
0840
1020
3ff0
1010
ENDCHAR
STARTCHAR Ca4be
ENCODING 42174
SWIDTH 666 0
DWIDTH 16 0
BBX 16 14 0 0
BITMAP
0004
7ffe
4004
8008
0040
07e0
0440
0440
0440
0440
0840
0842
3042
c03e
ENDCHAR
STARTCHAR Ca4bf
ENCODING 42175
SWIDTH 666 0
DWIDTH 16 0
BBX 16 14 0 0
BITMAP
8002
9012
8822
8442
8282
8102
8282
8442
8822
901a
a00a
8002
fffe
8002
ENDCHAR
STARTCHAR Ca4c0
ENCODING 42176
SWIDTH 666 0
DWIDTH 16 0
BBX 16 14 0 0
BITMAP
0080
0480
0440
0820
1010
2008
5fee
8424
0420
0420
0820
0820
1140
2080
ENDCHAR
STARTCHAR Ca4c1
ENCODING 42177
SWIDTH 666 0
DWIDTH 16 0
BBX 16 14 0 0
BITMAP
1000
1004
11fe
1044
fe44
1044
1044
1044
1244
1c44
f084
6104
0228
0c10
ENDCHAR
STARTCHAR Ca4c2
ENCODING 42178
SWIDTH 666 0
DWIDTH 16 0
BBX 16 14 0 0
BITMAP
4104
2104
1124
1224
0a24
0a24
0424
0a24
0924
1104
1084
2084
4014
0008
ENDCHAR
STARTCHAR Ca4c3
ENCODING 42179
SWIDTH 666 0
DWIDTH 16 0
BBX 16 14 0 0
BITMAP
0800
0804
1ffe
1004
2604
4304
8104
00e4
0304
1c04
0804
0044
0028
0010
ENDCHAR
STARTCHAR Ca4c4
ENCODING 42180
SWIDTH 666 0
DWIDTH 16 0
BBX 16 14 0 0
BITMAP
0800
0804
0ffe
1004
2204
4404
8404
0884
1044
3fc4
1044
0004
0028
0010
ENDCHAR
STARTCHAR Ca4c5
ENCODING 42181
SWIDTH 666 0
DWIDTH 16 0
BBX 16 14 0 0
BITMAP
1000
1000
1004
1ffe
2444
4444
8444
0844
0884
1084
2104
4204
0428
0810
ENDCHAR
STARTCHAR Ca4c6
ENCODING 42182
SWIDTH 666 0
DWIDTH 16 0
BBX 16 14 0 0
BITMAP
0880
0880
1080
1080
3080
508c
90f0
1080
1080
1080
1082
1082
107e
1000
ENDCHAR
STARTCHAR Ca4c7
ENCODING 42183
SWIDTH 666 0
DWIDTH 16 0
BBX 16 14 0 0
BITMAP
0008
fffc
4440
4440
4440
4440
4440
4440
4440
483c
5000
4004
fffe
4000
ENDCHAR
STARTCHAR Ca4c8
ENCODING 42184
SWIDTH 666 0
DWIDTH 16 0
BBX 16 14 0 0
BITMAP
0800
0810
0ff8
1100
2100
4100
0104
fffe
0100
0100
0100
0100
0100
0100
ENDCHAR
STARTCHAR Ca4c9
ENCODING 42185
SWIDTH 666 0
DWIDTH 16 0
BBX 16 14 0 0
BITMAP
0120
07a0
7c20
0420
0420
0424
fffe
0420
0420
0820
0820
1020
2020
0020
ENDCHAR
STARTCHAR Ca4ca
ENCODING 42186
SWIDTH 666 0
DWIDTH 16 0
BBX 16 14 0 0
BITMAP
1010
1110
1110
1110
1110
1114
fffe
1110
1110
1110
1110
2110
2010
4010
ENDCHAR
STARTCHAR Ca4cb
ENCODING 42187
SWIDTH 666 0
DWIDTH 16 0
BBX 16 14 0 0
BITMAP
0600
0300
0104
fffe
0100
0100
0140
0120
0110
0110
0100
0100
0100
0100
ENDCHAR
STARTCHAR Ca4cc
ENCODING 42188
SWIDTH 666 0
DWIDTH 16 0
BBX 16 14 0 0
BITMAP
0004
3ffe
2000
2010
27f8
2410
2410
2410
2490
2460
2402
2402
4402
83fe
ENDCHAR
STARTCHAR Ca4cd
ENCODING 42189
SWIDTH 666 0
DWIDTH 16 0
BBX 16 14 0 0
BITMAP
0400
0404
fffe
0400
0ff0
0810
1420
1220
2140
4080
8140
0630
180e
6004
ENDCHAR
STARTCHAR Ca4ce
ENCODING 42190
SWIDTH 666 0
DWIDTH 16 0
BBX 16 14 0 0
BITMAP
0020
7ff0
0820
0840
0840
08f8
1408
1210
1110
20a0
20c0
4130
860e
1804
ENDCHAR
STARTCHAR Ca4cf
ENCODING 42191
SWIDTH 666 0
DWIDTH 16 0
BBX 16 14 0 0
BITMAP
0010
0078
3f80
2000
3ff8
2408
2210
2220
2140
2080
4140
4230
840e
1804
ENDCHAR
STARTCHAR Ca4d0
ENCODING 42192
SWIDTH 666 0
DWIDTH 16 0
BBX 16 14 0 0
BITMAP
0010
0078
3f80
0100
0100
0100
0104
fffe
0100
0100
0100
0100
0110
3ff8
ENDCHAR
STARTCHAR Ca4d1
ENCODING 42193
SWIDTH 666 0
DWIDTH 16 0
BBX 16 14 0 0
BITMAP
0008
7ffc
0100
0100
0104
fffe
0100
0280
0440
0440
0820
1010
200e
c004
ENDCHAR
STARTCHAR Ca4d2
ENCODING 42194
SWIDTH 666 0
DWIDTH 16 0
BBX 16 14 0 0
BITMAP
0100
0108
7ffc
0100
0104
fffe
0100
0280
0280
0440
0440
0830
100e
6004
ENDCHAR
STARTCHAR Ca4d3
ENCODING 42195
SWIDTH 666 0
DWIDTH 16 0
BBX 16 14 0 0
BITMAP
0100
0100
0100
0104
fffe
0100
0100
0280
0280
0440
0640
0930
310e
c004
ENDCHAR
STARTCHAR Ca4d4
ENCODING 42196
SWIDTH 666 0
DWIDTH 16 0
BBX 16 14 0 0
BITMAP
01f8
3f00
0100
0100
0100
0104
fffe
0380
0280
0440
0420
0810
300e
c004
ENDCHAR
STARTCHAR Ca4d5
ENCODING 42197
SWIDTH 666 0
DWIDTH 16 0
BBX 16 14 0 0
BITMAP
0240
7f40
0240
0440
0840
0840
0bc0
1c40
e840
0842
0842
0842
2842
103e
ENDCHAR
STARTCHAR Ca4d6
ENCODING 42198
SWIDTH 666 0
DWIDTH 16 0
BBX 16 14 0 0
BITMAP
0100
0100
0920
0910
110c
2100
4110
0110
0120
0040
0080
0100
0200
7c00
ENDCHAR
STARTCHAR Ca4d7
ENCODING 42199
SWIDTH 666 0
DWIDTH 16 0
BBX 16 14 0 0
BITMAP
0100
0120
0110
0104
fffe
0280
0280
0480
0480
0880
0882
1082
2082
407e
ENDCHAR
STARTCHAR Ca4d8
ENCODING 42200
SWIDTH 666 0
DWIDTH 16 0
BBX 16 14 0 0
BITMAP
0010
1ff8
1010
1010
1ff0
1410
1400
1200
1100
1080
2040
2030
400e
8004
ENDCHAR
STARTCHAR Ca4d9
ENCODING 42201
SWIDTH 666 0
DWIDTH 16 0
BBX 16 14 0 0
BITMAP
0100
0100
0104
fffe
0100
2108
2108
2108
3ff8
2108
0100
0102
0102
00fe
ENDCHAR
STARTCHAR Ca4da
ENCODING 42202
SWIDTH 666 0
DWIDTH 16 0
BBX 16 14 0 0
BITMAP
0008
7ffc
4108
4108
4108
4108
7ff8
4008
4000
4000
4000
4002
4002
3ffe
ENDCHAR
STARTCHAR Ca4db
ENCODING 42203
SWIDTH 666 0
DWIDTH 16 0
BBX 16 14 0 0
BITMAP
0804
11fe
1004
2204
2204
4404
fc04
0804
1004
2404
4204
ff44
4128
0110
ENDCHAR
STARTCHAR Ca4dc
ENCODING 42204
SWIDTH 666 0
DWIDTH 16 0
BBX 16 14 0 0
BITMAP
0820
0820
0820
0824
fffe
0820
0820
0820
0820
0820
0820
0820
0fe0
0820
ENDCHAR
STARTCHAR Ca4dd
ENCODING 42205
SWIDTH 666 0
DWIDTH 16 0
BBX 16 14 0 0
BITMAP
7ff8
0210
0210
7ff0
4210
4204
7ffc
4204
0204
0204
0248
0230
0200
0200
ENDCHAR
STARTCHAR Ca4de
ENCODING 42206
SWIDTH 666 0
DWIDTH 16 0
BBX 16 14 0 0
BITMAP
0108
7f88
0108
0108
3f08
2008
2008
4108
ff88
0108
0108
1108
0a08
0408
ENDCHAR
STARTCHAR Ca4df
ENCODING 42207
SWIDTH 666 0
DWIDTH 16 0
BBX 16 14 0 0
BITMAP
0100
0080
00c0
0880
0800
2808
2804
2802
4802
8802
0810
0810
07f0
0000
ENDCHAR
STARTCHAR Ca4e0
ENCODING 42208
SWIDTH 666 0
DWIDTH 16 0
BBX 16 14 0 0
BITMAP
0480
0440
0404
04fe
ff00
0420
0430
0240
0280
0100
0280
0c44
7034
000c
ENDCHAR
STARTCHAR Ca4e1
ENCODING 42209
SWIDTH 666 0
DWIDTH 16 0
BBX 16 14 0 0
BITMAP
0100
0084
3ffe
2004
2004
2004
3ffc
2004
2000
2000
2000
4000
4000
8000
ENDCHAR
STARTCHAR Ca4e2
ENCODING 42210
SWIDTH 666 0
DWIDTH 16 0
BBX 16 14 0 0
BITMAP
0010
00f8
7f00
0100
0110
3ff8
0100
0104
fffe
0100
0100
0100
0500
0200
ENDCHAR
STARTCHAR Ca4e3
ENCODING 42211
SWIDTH 666 0
DWIDTH 16 0
BBX 16 14 0 0
BITMAP
0840
0840
0840
ff40
0840
0a40
0c40
3840
c840
0840
0842
0842
283e
1000
ENDCHAR
STARTCHAR Ca4e4
ENCODING 42212
SWIDTH 666 0
DWIDTH 16 0
BBX 16 14 0 0
BITMAP
0100
0104
fffe
0100
1ff0
0820
0820
0440
0280
0100
0280
0c60
301e
c004
ENDCHAR
STARTCHAR Ca4e5
ENCODING 42213
SWIDTH 666 0
DWIDTH 16 0
BBX 16 14 0 0
BITMAP
0200
0104
fffe
1010
0820
0420
0440
0280
0100
0280
0460
0810
300e
c004
ENDCHAR
STARTCHAR Ca4e6
ENCODING 42214
SWIDTH 666 0
DWIDTH 16 0
BBX 16 14 0 0
BITMAP
0840
0640
0240
1040
0c40
0440
0044
007e
ffc0
0040
0040
0040
0040
0040
ENDCHAR
STARTCHAR Ca4e7
ENCODING 42215
SWIDTH 666 0
DWIDTH 16 0
BBX 16 14 0 0
BITMAP
0010
0038
1fc0
1000
1004
1ffe
1040
1040
1040
1040
2040
2040
4040
0040
ENDCHAR
STARTCHAR Ca4e8
ENCODING 42216
SWIDTH 666 0
DWIDTH 16 0
BBX 16 14 0 0
BITMAP
0400
0300
0100
0004
fffe
0400
0410
07f8
0410
0410
0810
1010
20a0
4040
ENDCHAR
STARTCHAR Ca4e9
ENCODING 42217
SWIDTH 666 0
DWIDTH 16 0
BBX 16 14 0 0
BITMAP
0010
3ff8
2010
2010
2010
2010
3ff0
2010
2010
2010
2010
2010
3ff0
2010
ENDCHAR
STARTCHAR Ca4ea
ENCODING 42218
SWIDTH 666 0
DWIDTH 16 0
BBX 16 14 0 0
BITMAP
0000
0004
fffe
8004
8004
8004
8004
fffc
8004
8004
8004
8004
fffc
8004
ENDCHAR
STARTCHAR Ca4eb
ENCODING 42219
SWIDTH 666 0
DWIDTH 16 0
BBX 16 14 0 0
BITMAP
0010
1ff8
1010
1010
1ff0
1010
1010
1ff0
1010
1010
1010
1010
2050
4020
ENDCHAR
STARTCHAR Ca4ec
ENCODING 42220
SWIDTH 666 0
DWIDTH 16 0
BBX 16 14 0 0
BITMAP
0100
0100
0104
fffe
0100
0380
0340
0520
0910
1108
210e
c104
0100
0100
ENDCHAR
STARTCHAR Ca4ed
ENCODING 42221
SWIDTH 666 0
DWIDTH 16 0
BBX 16 14 0 0
BITMAP
0800
0808
1ffc
1008
2110
4120
8100
0280
0280
0440
0820
1010
200e
c004
ENDCHAR
STARTCHAR Ca4ee
ENCODING 42222
SWIDTH 666 0
DWIDTH 16 0
BBX 16 14 0 0
BITMAP
0100
0100
0100
1100
1100
1110
11f8
1100
1100
1100
1100
1100
1104
fffe
ENDCHAR
STARTCHAR Ca4ef
ENCODING 42223
SWIDTH 666 0
DWIDTH 16 0
BBX 16 14 0 0
BITMAP
0004
fffe
0200
0208
07fc
0c08
0a10
1190
20a0
4040
0080
0300
0c00
3000
ENDCHAR
STARTCHAR Ca4f0
ENCODING 42224
SWIDTH 666 0
DWIDTH 16 0
BBX 16 14 0 0
BITMAP
0010
1ff8
1110
1110
1110
1110
fffe
1110
2210
2210
3ffc
0810
1050
2020
ENDCHAR
STARTCHAR Ca4f1
ENCODING 42225
SWIDTH 666 0
DWIDTH 16 0
BBX 16 14 0 0
BITMAP
0080
4080
4080
4080
4088
4498
7ea0
40c0
4080
4080
4082
4682
5882
e07e
ENDCHAR
STARTCHAR Ca4f2
ENCODING 42226
SWIDTH 666 0
DWIDTH 16 0
BBX 16 14 0 0
BITMAP
0078
3f80
0200
0220
03f0
3e00
0208
03fc
fe00
0200
0200
0202
0202
01fe
ENDCHAR
STARTCHAR Ca4f3
ENCODING 42227
SWIDTH 666 0
DWIDTH 16 0
BBX 16 14 0 0
BITMAP
0020
20f0
3f00
2100
2100
2108
3ffc
2080
2040
2240
2422
2812
300a
6006
ENDCHAR
STARTCHAR Ca4f4
ENCODING 42228
SWIDTH 666 0
DWIDTH 16 0
BBX 16 14 0 0
BITMAP
0100
0100
0108
0118
7d20
05c0
0580
0960
1110
210e
4104
8100
0500
0200
ENDCHAR
STARTCHAR Ca4f5
ENCODING 42229
SWIDTH 666 0
DWIDTH 16 0
BBX 16 14 0 0
BITMAP
0100
0100
0100
1108
1118
1120
2140
4280
0280
0440
0820
1010
200e
4004
ENDCHAR
STARTCHAR Ca4f6
ENCODING 42230
SWIDTH 666 0
DWIDTH 16 0
BBX 16 14 0 0
BITMAP
0010
0078
1f80
1120
1120
1120
1120
1120
1110
2110
2108
410e
8104
0100
ENDCHAR
STARTCHAR Ca4f7
ENCODING 42231
SWIDTH 666 0
DWIDTH 16 0
BBX 16 14 0 0
BITMAP
0820
1010
200c
4024
0820
0440
0440
0280
0100
0280
0440
0830
300e
c004
ENDCHAR
STARTCHAR Ca4f8
ENCODING 42232
SWIDTH 666 0
DWIDTH 16 0
BBX 16 14 0 0
BITMAP
1030
0c40
0280
0100
02c0
0c30
7028
0c40
0280
0100
0280
0c60
301e
c004
ENDCHAR
STARTCHAR Ca4f9
ENCODING 42233
SWIDTH 666 0
DWIDTH 16 0
BBX 16 14 0 0
BITMAP
0080
2080
2080
2080
3ff0
2000
2010
3ffc
2040
2040
2040
2040
4040
8040
ENDCHAR
STARTCHAR Ca4fa
ENCODING 42234
SWIDTH 666 0
DWIDTH 16 0
BBX 16 14 0 0
BITMAP
0008
7ffc
2040
2040
2040
2044
7ffe
0240
0440
0840
3040
c040
0140
0080
ENDCHAR
STARTCHAR Ca4fb
ENCODING 42235
SWIDTH 666 0
DWIDTH 16 0
BBX 16 14 0 0
BITMAP
0100
1100
1110
1ff8
2100
4100
0104
fffe
0100
0100
0100
0100
0100
0100
ENDCHAR
STARTCHAR Ca4fc
ENCODING 42236
SWIDTH 666 0
DWIDTH 16 0
BBX 16 14 0 0
BITMAP
0140
0130
0110
0104
fffe
0100
0100
0280
0280
0440
0420
0810
100e
6004
ENDCHAR
STARTCHAR Ca4fd
ENCODING 42237
SWIDTH 666 0
DWIDTH 16 0
BBX 16 14 0 0
BITMAP
0008
7ffc
0100
0100
0100
0100
0110
3ff8
0100
0100
0100
0100
0104
fffe
ENDCHAR
STARTCHAR Ca4fe
ENCODING 42238
SWIDTH 666 0
DWIDTH 16 0
BBX 16 14 0 0
BITMAP
0004
fffe
0100
0100
0104
7ffe
4104
4184
4244
4424
4824
4004
4014
4008
ENDCHAR
STARTCHAR Ca540
ENCODING 42304
SWIDTH 666 0
DWIDTH 16 0
BBX 16 14 0 0
BITMAP
1000
1110
1110
1110
1114
fffe
1110
1110
1110
11f0
1110
1000
1008
1ffc
ENDCHAR
STARTCHAR Ca541
ENCODING 42305
SWIDTH 666 0
DWIDTH 16 0
BBX 16 14 0 0
BITMAP
7ffc
0080
0080
0100
0300
0560
0910
310c
4104
0100
0100
0104
fffe
0000
ENDCHAR
STARTCHAR Ca542
ENCODING 42306
SWIDTH 666 0
DWIDTH 16 0
BBX 16 14 0 0
BITMAP
0020
1ff0
1020
1020
1020
1fe0
1020
1020
1fe0
1020
1020
1020
1024
fffe
ENDCHAR
STARTCHAR Ca543
ENCODING 42307
SWIDTH 666 0
DWIDTH 16 0
BBX 16 14 0 0
BITMAP
0020
0070
0180
1e00
1000
1010
1ff8
1040
1040
1040
1040
1040
1044
fffe
ENDCHAR
STARTCHAR Ca544
ENCODING 42308
SWIDTH 666 0
DWIDTH 16 0
BBX 16 14 0 0
BITMAP
0200
0100
0108
7ffc
0100
0100
0100
0110
3ff8
0100
0100
0100
0104
fffe
ENDCHAR
STARTCHAR Ca545
ENCODING 42309
SWIDTH 666 0
DWIDTH 16 0
BBX 16 14 0 0
BITMAP
0800
0804
0ffe
1200
2210
43f8
8200
0200
0208
03fc
0200
0200
0200
0200
ENDCHAR
STARTCHAR Ca546
ENCODING 42310
SWIDTH 666 0
DWIDTH 16 0
BBX 16 14 0 0
BITMAP
0078
7f80
0100
0100
0100
3ff8
0010
0060
0180
0600
0800
3000
4800
07fe
ENDCHAR
STARTCHAR Ca547
ENCODING 42311
SWIDTH 666 0
DWIDTH 16 0
BBX 16 14 0 0
BITMAP
0078
3f80
0100
1110
0d30
0540
0104
fffe
0100
0100
0100
0100
0500
0200
ENDCHAR
STARTCHAR Ca548
ENCODING 42312
SWIDTH 666 0
DWIDTH 16 0
BBX 16 14 0 0
BITMAP
0010
2010
2410
2210
2310
2110
2010
2210
2410
2820
3030
6048
c18c
8606
ENDCHAR
STARTCHAR Ca549
ENCODING 42313
SWIDTH 666 0
DWIDTH 16 0
BBX 16 14 0 0
BITMAP
0810
0810
1010
1010
37fe
5010
9010
1110
1090
1090
1010
1010
1050
1020
ENDCHAR
STARTCHAR Ca54a
ENCODING 42314
SWIDTH 666 0
DWIDTH 16 0
BBX 16 14 0 0
BITMAP
0bf8
0808
1010
1020
3040
5044
9ffe
1040
1040
1040
1040
1040
1140
1080
ENDCHAR
STARTCHAR Ca54b
ENCODING 42315
SWIDTH 666 0
DWIDTH 16 0
BBX 16 14 0 0
BITMAP
0840
0840
1040
1044
3ffe
5040
9040
1040
1040
1040
1048
17fc
1000
1000
ENDCHAR
STARTCHAR Ca54c
ENCODING 42316
SWIDTH 666 0
DWIDTH 16 0
BBX 16 14 0 0
BITMAP
0840
0840
1040
1248
327c
53c8
9e48
1248
1250
1240
1242
1202
11fe
1000
ENDCHAR
STARTCHAR Ca54d
ENCODING 42317
SWIDTH 666 0
DWIDTH 16 0
BBX 16 14 0 0
BITMAP
0820
0820
1024
17fe
3020
5120
9120
10a0
10a0
1040
1060
1090
110e
1604
ENDCHAR
STARTCHAR Ca54e
ENCODING 42318
SWIDTH 666 0
DWIDTH 16 0
BBX 16 14 0 0
BITMAP
0880
08a0
0890
1090
1084
30fe
5f80
9040
1040
1020
1012
1012
100a
1006
ENDCHAR
STARTCHAR Ca54f
ENCODING 42319
SWIDTH 666 0
DWIDTH 16 0
BBX 16 14 0 0
BITMAP
0100
0280
0440
0820
1010
27ce
c004
1ff0
0010
0020
0440
0280
0100
0080
ENDCHAR
STARTCHAR Ca550
ENCODING 42320
SWIDTH 666 0
DWIDTH 16 0
BBX 16 14 0 0
BITMAP
1040
1040
2040
2444
6444
a444
2444
2444
2444
2444
2444
27fc
2404
2000
ENDCHAR
STARTCHAR Ca551
ENCODING 42321
SWIDTH 666 0
DWIDTH 16 0
BBX 16 14 0 0
BITMAP
0800
0804
17fe
1044
3044
5244
9244
1484
1084
1104
1104
1204
1428
1810
ENDCHAR
STARTCHAR Ca552
ENCODING 42322
SWIDTH 666 0
DWIDTH 16 0
BBX 16 14 0 0
BITMAP
0100
0104
fffe
0200
0440
0820
3ff0
0448
0440
0440
0842
0842
1042
603e
ENDCHAR
STARTCHAR Ca553
ENCODING 42323
SWIDTH 666 0
DWIDTH 16 0
BBX 16 14 0 0
BITMAP
0008
3ffc
2008
2008
2008
3ff8
2448
0440
0440
0840
0842
1042
2042
403e
ENDCHAR
STARTCHAR Ca554
ENCODING 42324
SWIDTH 666 0
DWIDTH 16 0
BBX 16 14 0 0
BITMAP
0100
0108
3ffc
2108
2108
3ff8
2108
2108
fffe
2008
2008
2008
2028
2010
ENDCHAR
STARTCHAR Ca555
ENCODING 42325
SWIDTH 666 0
DWIDTH 16 0
BBX 16 14 0 0
BITMAP
0008
1ffc
1248
1248
1248
1248
fffe
1248
1248
1248
1248
1248
26a8
4110
ENDCHAR
STARTCHAR Ca556
ENCODING 42326
SWIDTH 666 0
DWIDTH 16 0
BBX 16 14 0 0
BITMAP
0400
07f0
0820
1440
2280
0100
02c0
0c30
300e
c604
0180
0600
0180
0040
ENDCHAR
STARTCHAR Ca557
ENCODING 42327
SWIDTH 666 0
DWIDTH 16 0
BBX 16 14 0 0
BITMAP
0000
0004
7c7e
4444
4444
4444
4444
4444
47c4
4004
4004
4004
7ffc
4004
ENDCHAR
STARTCHAR Ca558
ENCODING 42328
SWIDTH 666 0
DWIDTH 16 0
BBX 16 14 0 0
BITMAP
0100
0100
2108
2108
2108
3ff8
2108
0100
4104
4104
4104
4104
7ffc
4004
ENDCHAR
STARTCHAR Ca559
ENCODING 42329
SWIDTH 666 0
DWIDTH 16 0
BBX 16 14 0 0
BITMAP
0020
0ff0
0820
0820
0820
0824
783e
4004
4004
4004
4004
4004
7ffc
4004
ENDCHAR
STARTCHAR Ca55a
ENCODING 42330
SWIDTH 666 0
DWIDTH 16 0
BBX 16 14 0 0
BITMAP
0104
3f84
0404
0424
0424
04a4
ffe4
0424
0424
0424
0404
0404
0414
0408
ENDCHAR
STARTCHAR Ca55b
ENCODING 42331
SWIDTH 666 0
DWIDTH 16 0
BBX 16 14 0 0
BITMAP
1000
1000
1004
127e
ff44
1244
1244
1244
1244
1244
1244
2244
4a7c
8444
ENDCHAR
STARTCHAR Ca55c
ENCODING 42332
SWIDTH 666 0
DWIDTH 16 0
BBX 16 14 0 0
BITMAP
0080
0880
fc80
1084
17fe
1084
1084
1084
1d04
f104
4104
0244
0428
0810
ENDCHAR
STARTCHAR Ca55d
ENCODING 42333
SWIDTH 666 0
DWIDTH 16 0
BBX 16 14 0 0
BITMAP
0800
0808
1ffc
1008
2008
5f88
9088
1088
1f88
1008
1032
1002
1002
0ffe
ENDCHAR
STARTCHAR Ca55e
ENCODING 42334
SWIDTH 666 0
DWIDTH 16 0
BBX 16 14 0 0
BITMAP
0800
0804
1ffe
1244
2244
4a44
8644
0544
08c4
1134
2214
4404
0828
0010
ENDCHAR
STARTCHAR Ca55f
ENCODING 42335
SWIDTH 666 0
DWIDTH 16 0
BBX 16 14 0 0
BITMAP
0440
0440
0440
0444
7c58
0460
0440
0440
0440
0440
0442
0442
1c42
e03e
ENDCHAR
STARTCHAR Ca560
ENCODING 42336
SWIDTH 666 0
DWIDTH 16 0
BBX 16 14 0 0
BITMAP
0008
7ffc
4080
4080
4088
5ffc
4888
4888
4888
48a8
4890
4080
4084
7ffe
ENDCHAR
STARTCHAR Ca561
ENCODING 42337
SWIDTH 666 0
DWIDTH 16 0
BBX 16 14 0 0
BITMAP
0810
0838
0bc0
1040
3040
5044
9ffe
1040
1040
1040
1040
1040
1040
1040
ENDCHAR
STARTCHAR Ca562
ENCODING 42338
SWIDTH 666 0
DWIDTH 16 0
BBX 16 14 0 0
BITMAP
0100
3118
0920
0540
3ff8
0100
0100
0104
fffe
0100
0100
0100
0100
0100
ENDCHAR
STARTCHAR Ca563
ENCODING 42339
SWIDTH 666 0
DWIDTH 16 0
BBX 16 14 0 0
BITMAP
0100
0108
7ffc
0100
0920
0920
0824
fffe
0820
0820
0820
1020
2020
0020
ENDCHAR
STARTCHAR Ca564
ENCODING 42340
SWIDTH 666 0
DWIDTH 16 0
BBX 16 14 0 0
BITMAP
0200
0220
03f0
0200
0204
fffe
0200
0200
0280
0260
0230
0210
0200
0200
ENDCHAR
STARTCHAR Ca565
ENCODING 42341
SWIDTH 666 0
DWIDTH 16 0
BBX 16 14 0 0
BITMAP
0200
0208
03fc
0200
0200
0200
0208
7ffc
4008
4008
4008
4008
7ff8
4008
ENDCHAR
STARTCHAR Ca566
ENCODING 42342
SWIDTH 666 0
DWIDTH 16 0
BBX 16 14 0 0
BITMAP
0400
0e04
707e
4244
4244
4244
4244
4e64
7254
0248
0440
1840
6040
0040
ENDCHAR
STARTCHAR Ca567
ENCODING 42343
SWIDTH 666 0
DWIDTH 16 0
BBX 16 14 0 0
BITMAP
01f8
3e00
2004
3ffe
2000
2010
27f8
2410
2490
2450
4420
4402
8402
03fe
ENDCHAR
STARTCHAR Ca568
ENCODING 42344
SWIDTH 666 0
DWIDTH 16 0
BBX 16 14 0 0
BITMAP
0100
0108
7ffc
0100
0100
0104
fffe
0200
0200
0420
0810
1008
7ffc
0004
ENDCHAR
STARTCHAR Ca569
ENCODING 42345
SWIDTH 666 0
DWIDTH 16 0
BBX 16 14 0 0
BITMAP
0004
fffe
0008
0008
1f88
1088
1088
1088
1f88
1088
0008
0008
0050
0020
ENDCHAR
STARTCHAR Ca56a
ENCODING 42346
SWIDTH 666 0
DWIDTH 16 0
BBX 16 14 0 0
BITMAP
0100
0100
0104
fffe
0100
0100
0110
1ff8
1010
1010
1010
1010
1ff0
1010
ENDCHAR
STARTCHAR Ca56b
ENCODING 42347
SWIDTH 666 0
DWIDTH 16 0
BBX 16 14 0 0
BITMAP
0200
0204
fffe
0400
0400
0800
0808
1ffc
2808
4808
8808
0808
0ff8
0808
ENDCHAR
STARTCHAR Ca56c
ENCODING 42348
SWIDTH 666 0
DWIDTH 16 0
BBX 16 14 0 0
BITMAP
0008
3ffc
0408
0408
0808
0888
1050
2020
4ff8
0808
0808
0808
0ff8
0808
ENDCHAR
STARTCHAR Ca56d
ENCODING 42349
SWIDTH 666 0
DWIDTH 16 0
BBX 16 14 0 0
BITMAP
0004
fbfe
8820
8820
8820
8820
8820
8820
8820
f820
8820
0020
0120
00c0
ENDCHAR
STARTCHAR Ca56e
ENCODING 42350
SWIDTH 666 0
DWIDTH 16 0
BBX 16 14 0 0
BITMAP
08fc
7c88
4888
4888
4888
4888
4888
4888
48c8
78a8
4890
0080
0080
0080
ENDCHAR
STARTCHAR Ca56f
ENCODING 42351
SWIDTH 666 0
DWIDTH 16 0
BBX 16 14 0 0
BITMAP
0804
7dfe
4844
4844
4844
4844
4844
48c4
4884
7904
4904
0204
0428
0810
ENDCHAR
STARTCHAR Ca570
ENCODING 42352
SWIDTH 666 0
DWIDTH 16 0
BBX 16 14 0 0
BITMAP
0004
f9fe
8804
8804
8814
8824
8844
8884
fb04
8a04
0004
0044
0028
0010
ENDCHAR
STARTCHAR Ca571
ENCODING 42353
SWIDTH 666 0
DWIDTH 16 0
BBX 16 14 0 0
BITMAP
fffe
0002
0042
7fe2
0002
0082
3fc2
2082
2082
2082
3f82
2082
0014
0008
ENDCHAR
STARTCHAR Ca572
ENCODING 42354
SWIDTH 666 0
DWIDTH 16 0
BBX 16 14 0 0
BITMAP
0008
7ffc
4000
4020
47f0
4420
4420
4420
4420
47e0
4420
4000
4004
7ffe
ENDCHAR
STARTCHAR Ca573
ENCODING 42355
SWIDTH 666 0
DWIDTH 16 0
BBX 16 14 0 0
BITMAP
0004
0004
fc84
8484
8484
8484
8484
8484
849c
fce4
8584
0004
0004
0004
ENDCHAR
STARTCHAR Ca574
ENCODING 42356
SWIDTH 666 0
DWIDTH 16 0
BBX 16 14 0 0
BITMAP
0010
1ff8
1010
1010
1ff0
1200
0204
7ffe
0204
0404
0404
0844
1028
6010
ENDCHAR
STARTCHAR Ca575
ENCODING 42357
SWIDTH 666 0
DWIDTH 16 0
BBX 16 14 0 0
BITMAP
0008
3ffc
2008
2008
2008
2008
3ff8
2008
0000
0440
0c20
1018
200c
4004
ENDCHAR
STARTCHAR Ca576
ENCODING 42358
SWIDTH 666 0
DWIDTH 16 0
BBX 16 14 0 0
BITMAP
0100
0108
3ffc
2108
2108
3ff8
2108
0900
0500
0200
0580
0860
301e
c004
ENDCHAR
STARTCHAR Ca577
ENCODING 42359
SWIDTH 666 0
DWIDTH 16 0
BBX 16 14 0 0
BITMAP
0880
7c88
4898
48a0
48c0
4880
4980
4e80
4880
7880
4882
0082
007e
0000
ENDCHAR
STARTCHAR Ca578
ENCODING 42360
SWIDTH 666 0
DWIDTH 16 0
BBX 16 14 0 0
BITMAP
0200
0400
0820
1010
2008
7ffc
0002
0000
3ff8
2008
2008
2008
3ff8
2008
ENDCHAR
STARTCHAR Ca579
ENCODING 42361
SWIDTH 666 0
DWIDTH 16 0
BBX 16 14 0 0
BITMAP
1000
1004
1ffe
2004
4044
9fe4
0844
0844
0844
0fc4
0844
0004
0028
0010
ENDCHAR
STARTCHAR Ca57a
ENCODING 42362
SWIDTH 666 0
DWIDTH 16 0
BBX 16 14 0 0
BITMAP
0020
0120
0930
fd20
8920
8920
8920
8920
8920
fa10
8a18
040e
0804
1000
ENDCHAR
STARTCHAR Ca57b
ENCODING 42363
SWIDTH 666 0
DWIDTH 16 0
BBX 16 14 0 0
BITMAP
0840
7c40
4844
4bfe
4844
4844
4844
48c4
4884
7904
4904
0204
0428
0810
ENDCHAR
STARTCHAR Ca57c
ENCODING 42364
SWIDTH 666 0
DWIDTH 16 0
BBX 16 14 0 0
BITMAP
0000
0004
fffe
4444
4444
4444
4444
4444
483c
5004
4004
7ffc
4004
0000
ENDCHAR
STARTCHAR Ca57d
ENCODING 42365
SWIDTH 666 0
DWIDTH 16 0
BBX 16 14 0 0
BITMAP
0004
7ffe
4004
4104
4104
4104
4104
4184
4244
4424
4814
4004
7ffc
4004
ENDCHAR
STARTCHAR Ca57e
ENCODING 42366
SWIDTH 666 0
DWIDTH 16 0
BBX 16 14 0 0
BITMAP
0840
0840
1040
1f40
2160
2150
6248
9246
0a42
0440
0840
1040
2040
0040
ENDCHAR
STARTCHAR Ca5a1
ENCODING 42401
SWIDTH 666 0
DWIDTH 16 0
BBX 16 14 0 0
BITMAP
0100
0110
1ff8
1110
1110
1110
1110
fffe
0100
0280
0440
0830
300e
c004
ENDCHAR
STARTCHAR Ca5a2
ENCODING 42402
SWIDTH 666 0
DWIDTH 16 0
BBX 16 14 0 0
BITMAP
0100
1100
1110
1ff8
2100
4100
0104
fffe
0100
0280
0440
0830
100e
6004
ENDCHAR
STARTCHAR Ca5a3
ENCODING 42403
SWIDTH 666 0
DWIDTH 16 0
BBX 16 14 0 0
BITMAP
1000
11fc
1004
fe84
2288
2288
4248
2450
1450
0820
1450
2288
410e
0604
ENDCHAR
STARTCHAR Ca5a4
ENCODING 42404
SWIDTH 666 0
DWIDTH 16 0
BBX 16 14 0 0
BITMAP
1008
17fc
1088
fc88
2490
2490
24bc
4904
2904
1104
2a04
4a04
8428
0810
ENDCHAR
STARTCHAR Ca5a5
ENCODING 42405
SWIDTH 666 0
DWIDTH 16 0
BBX 16 14 0 0
BITMAP
3ff0
0820
0824
087e
1004
17c4
2054
4088
0100
fffe
0100
0100
0500
0200
ENDCHAR
STARTCHAR Ca5a6
ENCODING 42406
SWIDTH 666 0
DWIDTH 16 0
BBX 16 14 0 0
BITMAP
0200
0104
7ffe
4004
8008
0800
0800
0860
0980
0e00
0808
0808
0808
07f8
ENDCHAR
STARTCHAR Ca5a7
ENCODING 42407
SWIDTH 666 0
DWIDTH 16 0
BBX 16 14 0 0
BITMAP
0008
3ffc
2008
2008
3ff8
2400
2400
2410
27f8
2400
2402
4402
4402
83fe
ENDCHAR
STARTCHAR Ca5a8
ENCODING 42408
SWIDTH 666 0
DWIDTH 16 0
BBX 16 14 0 0
BITMAP
0010
7ff8
4000
4000
4010
7ff8
4010
4010
4010
7ff0
4010
4000
4008
7ffc
ENDCHAR
STARTCHAR Ca5a9
ENCODING 42409
SWIDTH 666 0
DWIDTH 16 0
BBX 16 14 0 0
BITMAP
0004
03fe
fc40
1040
1080
1104
11fe
1004
1c04
f004
4004
0044
0028
0010
ENDCHAR
STARTCHAR Ca5aa
ENCODING 42410
SWIDTH 666 0
DWIDTH 16 0
BBX 16 14 0 0
BITMAP
0200
0200
0208
fffc
0400
0400
0810
0ff8
1080
2080
4080
8080
0084
7ffe
ENDCHAR
STARTCHAR Ca5ab
ENCODING 42411
SWIDTH 666 0
DWIDTH 16 0
BBX 16 14 0 0
BITMAP
0200
0100
0004
fffe
0100
0108
3ffc
2108
2108
2108
2128
2110
0100
0100
ENDCHAR
STARTCHAR Ca5ac
ENCODING 42412
SWIDTH 666 0
DWIDTH 16 0
BBX 16 14 0 0
BITMAP
0200
0208
fffc
0400
0900
1108
3ffc
5108
9108
1108
1128
1110
0100
0100
ENDCHAR
STARTCHAR Ca5ad
ENCODING 42413
SWIDTH 666 0
DWIDTH 16 0
BBX 16 14 0 0
BITMAP
0008
7ffc
0100
1110
0910
0920
0104
fffe
0100
0100
0100
0100
0100
0100
ENDCHAR
STARTCHAR Ca5ae
ENCODING 42414
SWIDTH 666 0
DWIDTH 16 0
BBX 16 14 0 0
BITMAP
0040
1040
1040
2044
25fe
4444
f844
1044
2044
4884
fc84
4504
0228
0410
ENDCHAR
STARTCHAR Ca5af
ENCODING 42415
SWIDTH 666 0
DWIDTH 16 0
BBX 16 14 0 0
BITMAP
0100
0200
0420
1ff0
0010
0440
0444
fffe
0440
0440
0840
0840
1040
2040
ENDCHAR
STARTCHAR Ca5b0
ENCODING 42416
SWIDTH 666 0
DWIDTH 16 0
BBX 16 14 0 0
BITMAP
0420
fe30
0420
4420
7c20
4420
4020
7c40
0480
0490
0508
0bfc
4902
3002
ENDCHAR
STARTCHAR Ca5b1
ENCODING 42417
SWIDTH 666 0
DWIDTH 16 0
BBX 16 14 0 0
BITMAP
0440
0448
7ffc
0448
0448
3ff8
2440
2444
3ffe
2444
0854
3048
c040
0040
ENDCHAR
STARTCHAR Ca5b2
ENCODING 42418
SWIDTH 666 0
DWIDTH 16 0
BBX 16 14 0 0
BITMAP
0200
0120
0130
0820
4848
4846
4882
8900
0a08
0c08
1808
2808
47f8
0000
ENDCHAR
STARTCHAR Ca5b3
ENCODING 42419
SWIDTH 666 0
DWIDTH 16 0
BBX 16 14 0 0
BITMAP
0080
0090
0088
3ffe
2080
2084
2048
2048
2030
2020
4060
4092
830a
0006
ENDCHAR
STARTCHAR Ca5b4
ENCODING 42420
SWIDTH 666 0
DWIDTH 16 0
BBX 16 14 0 0
BITMAP
1000
1004
13fe
fc20
1020
1420
1820
3020
d020
1020
1020
1020
50a0
2040
ENDCHAR
STARTCHAR Ca5b5
ENCODING 42421
SWIDTH 666 0
DWIDTH 16 0
BBX 16 14 0 0
BITMAP
1000
1000
13fc
fc88
1088
1490
18be
3082
d102
1102
1202
1222
5414
2008
ENDCHAR
STARTCHAR Ca5b6
ENCODING 42422
SWIDTH 666 0
DWIDTH 16 0
BBX 16 14 0 0
BITMAP
1000
1020
1130
fd20
1120
1520
1920
3120
d120
1210
1218
140e
5804
2000
ENDCHAR
STARTCHAR Ca5b7
ENCODING 42423
SWIDTH 666 0
DWIDTH 16 0
BBX 16 14 0 0
BITMAP
1040
1040
1040
fe40
1060
1458
184c
3044
d040
1040
1040
1040
5040
2040
ENDCHAR
STARTCHAR Ca5b8
ENCODING 42424
SWIDTH 666 0
DWIDTH 16 0
BBX 16 14 0 0
BITMAP
0078
3f80
2000
2008
3ffc
2080
2080
2380
20e0
20b0
4090
4080
8080
0080
ENDCHAR
STARTCHAR Ca5b9
ENCODING 42425
SWIDTH 666 0
DWIDTH 16 0
BBX 16 14 0 0
BITMAP
0010
1ff8
1010
1010
1010
1ff0
1010
1010
1010
1ff0
1010
0000
0004
fffe
ENDCHAR
STARTCHAR Ca5ba
ENCODING 42426
SWIDTH 666 0
DWIDTH 16 0
BBX 16 14 0 0
BITMAP
0100
0110
0108
0104
fffe
0100
1110
1110
1110
1110
2110
c11e
0100
0100
ENDCHAR
STARTCHAR Ca5bb
ENCODING 42427
SWIDTH 666 0
DWIDTH 16 0
BBX 16 14 0 0
BITMAP
0100
0100
0108
7ffc
0540
0540
0540
0920
0920
1110
2fee
c104
0100
0100
ENDCHAR
STARTCHAR Ca5bc
ENCODING 42428
SWIDTH 666 0
DWIDTH 16 0
BBX 16 14 0 0
BITMAP
0100
0108
7ffc
0100
0104
fffe
0380
0540
0920
1110
210e
4104
0100
0100
ENDCHAR
STARTCHAR Ca5bd
ENCODING 42429
SWIDTH 666 0
DWIDTH 16 0
BBX 16 14 0 0
BITMAP
0100
0104
fffe
0100
0108
7ffc
0380
0540
0920
1118
210e
c104
0100
0100
ENDCHAR
STARTCHAR Ca5be
ENCODING 42430
SWIDTH 666 0
DWIDTH 16 0
BBX 16 14 0 0
BITMAP
0840
0840
0840
ff40
0840
1840
1c40
2a40
2a40
4840
0842
0842
083e
0800
ENDCHAR
STARTCHAR Ca5bf
ENCODING 42431
SWIDTH 666 0
DWIDTH 16 0
BBX 16 14 0 0
BITMAP
0008
7ffc
0100
0100
0100
0100
1110
11f8
1100
1100
1100
1100
1104
fffe
ENDCHAR
STARTCHAR Ca5c0
ENCODING 42432
SWIDTH 666 0
DWIDTH 16 0
BBX 16 14 0 0
BITMAP
0010
1ff8
1210
1190
1090
1010
fffe
1210
1190
2090
3ffc
0010
00a0
0040
ENDCHAR
STARTCHAR Ca5c1
ENCODING 42433
SWIDTH 666 0
DWIDTH 16 0
BBX 16 14 0 0
BITMAP
7ff8
4010
4010
7ff0
4200
4208
7ffc
4200
4100
4100
4880
5042
6032
400e
ENDCHAR
STARTCHAR Ca5c2
ENCODING 42434
SWIDTH 666 0
DWIDTH 16 0
BBX 16 14 0 0
BITMAP
00f8
3f80
2080
2080
2084
3ffe
2080
20c0
2240
2420
2820
3312
208a
0006
ENDCHAR
STARTCHAR Ca5c3
ENCODING 42435
SWIDTH 666 0
DWIDTH 16 0
BBX 16 14 0 0
BITMAP
0700
0000
1f00
0108
0118
7da0
05c0
0540
0920
1110
210e
4104
0500
0200
ENDCHAR
STARTCHAR Ca5c4
ENCODING 42436
SWIDTH 666 0
DWIDTH 16 0
BBX 16 14 0 0
BITMAP
4040
3040
1040
8040
6044
27fe
0840
1040
2040
e040
2040
2040
2040
2040
ENDCHAR
STARTCHAR Ca5c5
ENCODING 42437
SWIDTH 666 0
DWIDTH 16 0
BBX 16 14 0 0
BITMAP
4000
3004
17fe
8040
6040
2040
0840
1040
2040
e040
2040
2040
2140
2080
ENDCHAR
STARTCHAR Ca5c6
ENCODING 42438
SWIDTH 666 0
DWIDTH 16 0
BBX 16 14 0 0
BITMAP
4000
27fc
1204
0204
8204
4204
2228
0210
0a00
1200
2200
c204
4204
41fe
ENDCHAR
STARTCHAR Ca5c7
ENCODING 42439
SWIDTH 666 0
DWIDTH 16 0
BBX 16 14 0 0
BITMAP
4408
29fc
1108
2908
4908
8908
1948
2930
4900
8900
0902
0902
50fe
2000
ENDCHAR
STARTCHAR Ca5c8
ENCODING 42440
SWIDTH 666 0
DWIDTH 16 0
BBX 16 14 0 0
BITMAP
0200
0104
fffe
0200
0420
0840
3080
0900
0600
0420
0810
1008
7ffc
0004
ENDCHAR
STARTCHAR Ca5c9
ENCODING 42441
SWIDTH 666 0
DWIDTH 16 0
BBX 16 14 0 0
BITMAP
0008
7ffc
0100
0100
0100
0110
3ff8
0100
0140
0130
0110
0104
fffe
0000
ENDCHAR
STARTCHAR Ca5ca
ENCODING 42442
SWIDTH 666 0
DWIDTH 16 0
BBX 16 14 0 0
BITMAP
0038
01c0
1e40
1240
1240
1240
1240
1220
2220
2290
2248
42a6
4324
8000
ENDCHAR
STARTCHAR Ca5cb
ENCODING 42443
SWIDTH 666 0
DWIDTH 16 0
BBX 16 14 0 0
BITMAP
0008
7ffc
0800
0800
0820
0ff0
0820
1220
1120
1120
2020
2022
2e22
f01e
ENDCHAR
STARTCHAR Ca5cc
ENCODING 42444
SWIDTH 666 0
DWIDTH 16 0
BBX 16 14 0 0
BITMAP
0820
0820
0824
fffe
0820
0820
0820
0fe0
0820
0820
0820
0820
0fe0
0820
ENDCHAR
STARTCHAR Ca5cd
ENCODING 42445
SWIDTH 666 0
DWIDTH 16 0
BBX 16 14 0 0
BITMAP
0100
1100
1108
3ffc
2100
4100
8100
0110
3ff8
0100
0100
0100
0104
fffe
ENDCHAR
STARTCHAR Ca5ce
ENCODING 42446
SWIDTH 666 0
DWIDTH 16 0
BBX 16 14 0 0
BITMAP
0008
3ffc
2108
2108
3ff8
2108
2108
3ff8
2108
2108
2108
4108
4128
8010
ENDCHAR
STARTCHAR Ca5cf
ENCODING 42447
SWIDTH 666 0
DWIDTH 16 0
BBX 16 14 0 0
BITMAP
0008
3ffc
2108
2108
3ff8
2108
2108
3ff8
2108
2108
2128
2112
4102
80fe
ENDCHAR
STARTCHAR Ca5d0
ENCODING 42448
SWIDTH 666 0
DWIDTH 16 0
BBX 16 14 0 0
BITMAP
0000
7ffc
4104
4104
4104
4104
7ffc
4104
4104
4104
4104
7ffc
4004
0000
ENDCHAR
STARTCHAR Ca5d1
ENCODING 42449
SWIDTH 666 0
DWIDTH 16 0
BBX 16 14 0 0
BITMAP
0100
0100
0100
0104
7ffe
4104
4104
4104
7ffc
4104
4104
4104
7ffc
4004
ENDCHAR
STARTCHAR Ca5d2
ENCODING 42450
SWIDTH 666 0
DWIDTH 16 0
BBX 16 14 0 0
BITMAP
0004
7ffe
4104
4104
7ffc
4104
4104
7ffc
4104
0100
0100
0100
0100
0100
ENDCHAR
STARTCHAR Ca5d3
ENCODING 42451
SWIDTH 666 0
DWIDTH 16 0
BBX 16 14 0 0
BITMAP
0100
0100
0108
3ffc
2108
2108
3ff8
2108
2108
3ff8
2108
0100
0100
0100
ENDCHAR
STARTCHAR Ca5d4
ENCODING 42452
SWIDTH 666 0
DWIDTH 16 0
BBX 16 14 0 0
BITMAP
0008
7ffc
0108
0110
0900
0900
0910
19f8
1100
1900
2500
2300
4186
807c
ENDCHAR
STARTCHAR Ca5d5
ENCODING 42453
SWIDTH 666 0
DWIDTH 16 0
BBX 16 14 0 0
BITMAP
0200
0400
0808
3ffc
2008
2008
2008
3ff8
2008
2008
2008
2008
3ff8
2008
ENDCHAR
STARTCHAR Ca5d6
ENCODING 42454
SWIDTH 666 0
DWIDTH 16 0
BBX 16 14 0 0
BITMAP
0080
0080
3ffc
2084
2088
2ff8
2008
2410
2220
2140
2080
4160
461e
9804
ENDCHAR
STARTCHAR Ca5d7
ENCODING 42455
SWIDTH 666 0
DWIDTH 16 0
BBX 16 14 0 0
BITMAP
0000
0008
3ffc
2448
2448
2448
2448
2448
2448
2448
2448
2448
fffe
0000
ENDCHAR
STARTCHAR Ca5d8
ENCODING 42456
SWIDTH 666 0
DWIDTH 16 0
BBX 16 14 0 0
BITMAP
0010
3ff8
2010
2010
2010
3ff0
2010
2010
3ff0
2010
2010
2010
3ff0
2010
ENDCHAR
STARTCHAR Ca5d9
ENCODING 42457
SWIDTH 666 0
DWIDTH 16 0
BBX 16 14 0 0
BITMAP
1ff0
0020
0240
0180
0084
fffe
0184
0288
0480
0880
1080
2080
0280
0100
ENDCHAR
STARTCHAR Ca5da
ENCODING 42458
SWIDTH 666 0
DWIDTH 16 0
BBX 16 14 0 0
BITMAP
1000
1010
1ff8
1100
2100
4100
0104
fffe
0100
0280
0440
0820
101c
6008
ENDCHAR
STARTCHAR Ca5db
ENCODING 42459
SWIDTH 666 0
DWIDTH 16 0
BBX 16 14 0 0
BITMAP
0004
fffe
0200
0400
0400
0808
1ffc
2808
4808
8808
0808
0808
0ff8
0808
ENDCHAR
STARTCHAR Ca5dc
ENCODING 42460
SWIDTH 666 0
DWIDTH 16 0
BBX 16 14 0 0
BITMAP
0010
3ff8
0000
0000
0004
fffe
0100
0920
1918
210c
4104
0100
0500
0200
ENDCHAR
STARTCHAR Ca5dd
ENCODING 42461
SWIDTH 666 0
DWIDTH 16 0
BBX 16 14 0 0
BITMAP
0010
0038
3fc0
0100
0104
fffe
0100
0380
0540
0920
1118
210e
4104
0100
ENDCHAR
STARTCHAR Ca5de
ENCODING 42462
SWIDTH 666 0
DWIDTH 16 0
BBX 16 14 0 0
BITMAP
0200
0100
0104
7ffe
4004
8088
0480
0440
0840
1020
1010
200e
4004
0000
ENDCHAR
STARTCHAR Ca5df
ENCODING 42463
SWIDTH 666 0
DWIDTH 16 0
BBX 16 14 0 0
BITMAP
0200
0100
0008
7ffc
0000
0010
1010
0820
0440
0440
0480
0004
fffe
0000
ENDCHAR
STARTCHAR Ca5e0
ENCODING 42464
SWIDTH 666 0
DWIDTH 16 0
BBX 16 14 0 0
BITMAP
0020
3ff0
0040
0080
0108
7d18
05a0
0940
0930
110e
2104
4500
0204
fffe
ENDCHAR
STARTCHAR Ca5e1
ENCODING 42465
SWIDTH 666 0
DWIDTH 16 0
BBX 16 14 0 0
BITMAP
01e0
1f00
0100
0110
3ff8
0100
0100
0104
fffe
0200
0400
0820
1010
3ff8
ENDCHAR
STARTCHAR Ca5e2
ENCODING 42466
SWIDTH 666 0
DWIDTH 16 0
BBX 16 14 0 0
BITMAP
0030
0fc0
0800
0808
0ffc
0820
0820
0824
fffe
0000
0200
0600
0800
1000
ENDCHAR
STARTCHAR Ca5e3
ENCODING 42467
SWIDTH 666 0
DWIDTH 16 0
BBX 16 14 0 0
BITMAP
0030
0fc0
0800
0808
0ffc
0820
0820
0824
fffe
0000
0040
0030
0018
0008
ENDCHAR
STARTCHAR Ca5e4
ENCODING 42468
SWIDTH 666 0
DWIDTH 16 0
BBX 16 14 0 0
BITMAP
1040
1240
1f40
1040
1040
1040
1240
7f40
4240
4242
4242
4242
7e3e
4200
ENDCHAR
STARTCHAR Ca5e5
ENCODING 42469
SWIDTH 666 0
DWIDTH 16 0
BBX 16 14 0 0
BITMAP
7ffc
0000
0010
1ff8
1010
1010
1ff0
1010
1ff0
1010
0000
0004
fffe
0000
ENDCHAR
STARTCHAR Ca5e6
ENCODING 42470
SWIDTH 666 0
DWIDTH 16 0
BBX 16 14 0 0
BITMAP
0100
0104
fffe
0810
100c
2824
4440
0280
0100
0280
0440
0830
300e
c004
ENDCHAR
STARTCHAR Ca5e7
ENCODING 42471
SWIDTH 666 0
DWIDTH 16 0
BBX 16 14 0 0
BITMAP
0200
0100
0104
fffe
0440
0440
1450
1448
2444
4444
0440
0840
1140
2080
ENDCHAR
STARTCHAR Ca5e8
ENCODING 42472
SWIDTH 666 0
DWIDTH 16 0
BBX 16 14 0 0
BITMAP
0200
0104
fffe
0200
0460
0880
1f10
0230
0440
08c0
3120
0610
180c
6004
ENDCHAR
STARTCHAR Ca5e9
ENCODING 42473
SWIDTH 666 0
DWIDTH 16 0
BBX 16 14 0 0
BITMAP
0880
0840
1004
17fe
3080
5088
90fc
1088
1088
1088
1108
1108
1250
1420
ENDCHAR
STARTCHAR Ca5ea
ENCODING 42474
SWIDTH 666 0
DWIDTH 16 0
BBX 16 14 0 0
BITMAP
0880
0844
17fe
1000
3010
51f8
9110
1110
1110
1110
1212
1212
140e
1800
ENDCHAR
STARTCHAR Ca5eb
ENCODING 42475
SWIDTH 666 0
DWIDTH 16 0
BBX 16 14 0 0
BITMAP
0840
0840
1040
1244
324c
5250
9460
1040
10a0
1110
1110
1208
140e
1804
ENDCHAR
STARTCHAR Ca5ec
ENCODING 42476
SWIDTH 666 0
DWIDTH 16 0
BBX 16 14 0 0
BITMAP
0808
0bfc
0888
1088
3ffe
5088
9088
13f8
1088
1080
1100
1100
1200
1400
ENDCHAR
STARTCHAR Ca5ed
ENCODING 42477
SWIDTH 666 0
DWIDTH 16 0
BBX 16 14 0 0
BITMAP
0840
0840
1040
23f8
6040
a040
2040
27fc
2040
2040
20a0
2110
2208
2404
ENDCHAR
STARTCHAR Ca5ee
ENCODING 42478
SWIDTH 666 0
DWIDTH 16 0
BBX 16 14 0 0
BITMAP
1000
1008
17fc
2080
6080
a088
27fc
2108
2108
2208
2208
2208
3ffe
2000
ENDCHAR
STARTCHAR Ca5ef
ENCODING 42479
SWIDTH 666 0
DWIDTH 16 0
BBX 16 14 0 0
BITMAP
0880
08a0
0890
1090
30fc
5780
9088
1050
1060
1040
10a0
1112
160a
1006
ENDCHAR
STARTCHAR Ca5f0
ENCODING 42480
SWIDTH 666 0
DWIDTH 16 0
BBX 16 14 0 0
BITMAP
0840
0840
1044
17fe
3040
50e0
90e0
1150
1150
1248
1446
1844
1040
1040
ENDCHAR
STARTCHAR Ca5f1
ENCODING 42481
SWIDTH 666 0
DWIDTH 16 0
BBX 16 14 0 0
BITMAP
0850
0848
1048
1040
3ffe
5040
9040
10a0
10a0
1110
1110
1208
140e
1804
ENDCHAR
STARTCHAR Ca5f2
ENCODING 42482
SWIDTH 666 0
DWIDTH 16 0
BBX 16 14 0 0
BITMAP
0840
0840
1044
17fe
3444
5444
9444
1444
17fc
1444
1040
1040
1040
1040
ENDCHAR
STARTCHAR Ca5f3
ENCODING 42483
SWIDTH 666 0
DWIDTH 16 0
BBX 16 14 0 0
BITMAP
1040
1240
2248
23fc
6440
a440
2840
2044
3ffe
2040
2040
2040
2040
2040
ENDCHAR
STARTCHAR Ca5f4
ENCODING 42484
SWIDTH 666 0
DWIDTH 16 0
BBX 16 14 0 0
BITMAP
0000
0800
0838
0bc0
1040
3040
5044
9ffe
1040
1040
1040
1048
17fc
1000
ENDCHAR
STARTCHAR Ca5f5
ENCODING 42485
SWIDTH 666 0
DWIDTH 16 0
BBX 16 14 0 0
BITMAP
0880
0904
127e
1444
2444
6444
a444
2444
2544
2654
2448
2040
2040
2040
ENDCHAR
STARTCHAR Ca5f6
ENCODING 42486
SWIDTH 666 0
DWIDTH 16 0
BBX 16 14 0 0
BITMAP
0a20
0a20
1220
1222
3224
53b8
9220
1220
1220
1220
1220
13a2
1222
101e
ENDCHAR
STARTCHAR Ca5f7
ENCODING 42487
SWIDTH 666 0
DWIDTH 16 0
BBX 16 14 0 0
BITMAP
0820
0920
1110
1210
320e
5404
9bf0
1110
1110
1110
1210
1210
14a0
1040
ENDCHAR
STARTCHAR Ca5f8
ENCODING 42488
SWIDTH 666 0
DWIDTH 16 0
BBX 16 14 0 0
BITMAP
0100
0280
0440
0820
1110
210e
c104
0900
09f0
0900
0900
0900
0904
fffe
ENDCHAR
STARTCHAR Ca5f9
ENCODING 42489
SWIDTH 666 0
DWIDTH 16 0
BBX 16 14 0 0
BITMAP
1000
27fc
4208
a210
2220
2240
22fe
2282
2244
2228
2210
2428
28c4
2302
ENDCHAR
STARTCHAR Ca5fa
ENCODING 42490
SWIDTH 666 0
DWIDTH 16 0
BBX 16 14 0 0
BITMAP
0100
110c
0910
0920
0104
fffe
0440
0440
0440
0840
0842
1042
203e
4000
ENDCHAR
STARTCHAR Ca5fb
ENCODING 42491
SWIDTH 666 0
DWIDTH 16 0
BBX 16 14 0 0
BITMAP
4010
4890
4510
4210
4510
4890
4010
7ff0
4890
0880
0880
1082
2082
c0fe
ENDCHAR
STARTCHAR Ca5fc
ENCODING 42492
SWIDTH 666 0
DWIDTH 16 0
BBX 16 14 0 0
BITMAP
0480
0480
6498
14a0
14c0
0480
04c0
1ca0
6498
0880
0882
1082
2082
c07e
ENDCHAR
STARTCHAR Ca5fd
ENCODING 42493
SWIDTH 666 0
DWIDTH 16 0
BBX 16 14 0 0
BITMAP
0100
1110
1ff8
1100
2100
0104
fffe
0480
0480
0880
0882
1082
2082
c07e
ENDCHAR
STARTCHAR Ca5fe
ENCODING 42494
SWIDTH 666 0
DWIDTH 16 0
BBX 16 14 0 0
BITMAP
0100
0280
0440
0820
1010
2fee
c104
0100
0100
0fe0
0100
0100
0108
7ffc
ENDCHAR
STARTCHAR Ca640
ENCODING 42560
SWIDTH 666 0
DWIDTH 16 0
BBX 16 14 0 0
BITMAP
0440
0440
0448
7ffc
0440
0440
0440
0444
fffe
0000
0440
0c30
1018
2008
ENDCHAR
STARTCHAR Ca641
ENCODING 42561
SWIDTH 666 0
DWIDTH 16 0
BBX 16 14 0 0
BITMAP
7ffc
0100
0110
1ff8
1110
1110
1ff0
1110
1110
fffe
1010
1010
1050
1020
ENDCHAR
STARTCHAR Ca642
ENCODING 42562
SWIDTH 666 0
DWIDTH 16 0
BBX 16 14 0 0
BITMAP
4080
3080
1084
008c
0f90
11e0
12c0
22a0
e490
2488
288e
3084
2280
2100
ENDCHAR
STARTCHAR Ca643
ENCODING 42563
SWIDTH 666 0
DWIDTH 16 0
BBX 16 14 0 0
BITMAP
0104
7f84
1004
1024
1f24
2124
2124
5224
8a24
0424
0804
1004
2014
4008
ENDCHAR
STARTCHAR Ca644
ENCODING 42564
SWIDTH 666 0
DWIDTH 16 0
BBX 16 14 0 0
BITMAP
0084
7fc4
1104
1124
1124
1124
ffe4
1124
1124
1124
2104
2104
4114
0108
ENDCHAR
STARTCHAR Ca645
ENCODING 42565
SWIDTH 666 0
DWIDTH 16 0
BBX 16 14 0 0
BITMAP
1404
1204
1024
13a4
fc24
1024
1124
1224
0c24
0824
1404
2484
4294
0188
ENDCHAR
STARTCHAR Ca646
ENCODING 42566
SWIDTH 666 0
DWIDTH 16 0
BBX 16 14 0 0
BITMAP
2004
2024
3ff4
2aa4
4aa4
4aa4
8aa4
12a4
14a4
24a4
4884
1284
0114
0008
ENDCHAR
STARTCHAR Ca647
ENCODING 42567
SWIDTH 666 0
DWIDTH 16 0
BBX 16 14 0 0
BITMAP
3e08
2248
2248
2248
3e48
2248
2248
3e48
2248
2248
4208
4208
8a28
0410
ENDCHAR
STARTCHAR Ca648
ENCODING 42568
SWIDTH 666 0
DWIDTH 16 0
BBX 16 14 0 0
BITMAP
0100
1118
110c
2334
00c0
0700
1900
e108
1ffc
0108
0208
0408
0850
3020
ENDCHAR
STARTCHAR Ca649
ENCODING 42569
SWIDTH 666 0
DWIDTH 16 0
BBX 16 14 0 0
BITMAP
0800
1004
1ffe
2004
4044
9044
28a4
2524
2224
2524
28a4
3fe4
2004
0018
ENDCHAR
STARTCHAR Ca64a
ENCODING 42570
SWIDTH 666 0
DWIDTH 16 0
BBX 16 14 0 0
BITMAP
0008
7ffc
4000
5ff0
4100
4100
4100
4fe0
4100
4100
4100
5ff0
4000
7ffe
ENDCHAR
STARTCHAR Ca64b
ENCODING 42571
SWIDTH 666 0
DWIDTH 16 0
BBX 16 14 0 0
BITMAP
0008
fffc
8070
8f80
8800
8810
8ff8
8840
8840
8840
9040
a040
8044
fffe
ENDCHAR
STARTCHAR Ca64c
ENCODING 42572
SWIDTH 666 0
DWIDTH 16 0
BBX 16 14 0 0
BITMAP
0e04
f0fe
8084
8084
8484
fe84
8084
8084
8084
8ea8
f090
0080
0080
0080
ENDCHAR
STARTCHAR Ca64d
ENCODING 42573
SWIDTH 666 0
DWIDTH 16 0
BBX 16 14 0 0
BITMAP
0800
0fe0
1040
2088
5ffc
1000
13f8
1210
1210
1250
2222
2202
4202
81fe
ENDCHAR
STARTCHAR Ca64e
ENCODING 42574
SWIDTH 666 0
DWIDTH 16 0
BBX 16 14 0 0
BITMAP
0100
0104
fffe
0100
0110
3ff8
0000
0010
1ff8
1010
1010
1010
1ff0
1010
ENDCHAR
STARTCHAR Ca64f
ENCODING 42575
SWIDTH 666 0
DWIDTH 16 0
BBX 16 14 0 0
BITMAP
0100
0104
fffe
0100
0108
3ffc
2108
2108
3ff8
0900
0600
0580
1870
e00e
ENDCHAR
STARTCHAR Ca650
ENCODING 42576
SWIDTH 666 0
DWIDTH 16 0
BBX 16 14 0 0
BITMAP
0004
7ffe
4004
4024
5ff4
4004
4fe4
4824
4824
4fe4
4824
4004
4014
4008
ENDCHAR
STARTCHAR Ca651
ENCODING 42577
SWIDTH 666 0
DWIDTH 16 0
BBX 16 14 0 0
BITMAP
0010
1ff8
1010
1010
1ff0
0100
0104
7ffe
4104
4104
4114
4108
0100
0100
ENDCHAR
STARTCHAR Ca652
ENCODING 42578
SWIDTH 666 0
DWIDTH 16 0
BBX 16 14 0 0
BITMAP
0040
0840
fc40
8840
8848
8ffc
8840
8840
8840
f840
8840
0040
0044
0ffe
ENDCHAR
STARTCHAR Ca653
ENCODING 42579
SWIDTH 666 0
DWIDTH 16 0
BBX 16 14 0 0
BITMAP
0008
03fc
f840
8840
8844
8ffe
8840
8840
f840
8840
0040
0040
0140
0080
ENDCHAR
STARTCHAR Ca654
ENCODING 42580
SWIDTH 666 0
DWIDTH 16 0
BBX 16 14 0 0
BITMAP
0010
0010
f810
8ffe
8810
8810
8910
8890
8890
f810
8810
0090
0050
0020
ENDCHAR
STARTCHAR Ca655
ENCODING 42581
SWIDTH 666 0
DWIDTH 16 0
BBX 16 14 0 0
BITMAP
0400
07f0
0810
1420
2240
0180
0660
181e
e004
0ff0
0810
0810
0ff0
0810
ENDCHAR
STARTCHAR Ca656
ENCODING 42582
SWIDTH 666 0
DWIDTH 16 0
BBX 16 14 0 0
BITMAP
0200
0400
0804
7ffe
4004
4044
47e4
4444
4444
47c4
4444
4004
4014
4008
ENDCHAR
STARTCHAR Ca657
ENCODING 42583
SWIDTH 666 0
DWIDTH 16 0
BBX 16 14 0 0
BITMAP
0200
07f8
0410
0c20
1240
0180
0600
1808
effc
0808
0808
0808
0ff8
0808
ENDCHAR
STARTCHAR Ca658
ENCODING 42584
SWIDTH 666 0
DWIDTH 16 0
BBX 16 14 0 0
BITMAP
0100
0280
0440
0820
3018
cfe6
0000
0020
0ff0
0820
0820
0820
0fe0
0820
ENDCHAR
STARTCHAR Ca659
ENCODING 42585
SWIDTH 666 0
DWIDTH 16 0
BBX 16 14 0 0
BITMAP
0080
0104
f9fe
8a00
8c10
8bf8
8810
8820
8840
f880
8900
0202
0202
01fe
ENDCHAR
STARTCHAR Ca65a
ENCODING 42586
SWIDTH 666 0
DWIDTH 16 0
BBX 16 14 0 0
BITMAP
0010
0078
3f80
2000
2004
3ffe
2000
2008
27fc
2408
2408
4408
87f8
0408
ENDCHAR
STARTCHAR Ca65b
ENCODING 42587
SWIDTH 666 0
DWIDTH 16 0
BBX 16 14 0 0
BITMAP
0840
7c40
4880
4884
4904
4bf8
4808
4830
4840
7880
4908
0204
03fe
0002
ENDCHAR
STARTCHAR Ca65c
ENCODING 42588
SWIDTH 666 0
DWIDTH 16 0
BBX 16 14 0 0
BITMAP
0000
000c
7cf0
4420
4420
4424
45fe
4420
4420
7c20
4420
0022
0022
001e
ENDCHAR
STARTCHAR Ca65d
ENCODING 42589
SWIDTH 666 0
DWIDTH 16 0
BBX 16 14 0 0
BITMAP
0004
7ffe
4104
4104
5ff4
4104
4284
4244
4424
4814
5014
4004
7ffc
4004
ENDCHAR
STARTCHAR Ca65e
ENCODING 42590
SWIDTH 666 0
DWIDTH 16 0
BBX 16 14 0 0
BITMAP
0004
7ffe
4004
4044
47e4
4444
4444
4444
4444
47c4
4444
4004
7ffc
4004
ENDCHAR
STARTCHAR Ca65f
ENCODING 42591
SWIDTH 666 0
DWIDTH 16 0
BBX 16 14 0 0
BITMAP
7ffc
4004
4fe4
4044
4084
4124
5ff4
4104
4104
4104
4304
4004
7ffc
4004
ENDCHAR
STARTCHAR Ca660
ENCODING 42592
SWIDTH 666 0
DWIDTH 16 0
BBX 16 14 0 0
BITMAP
1004
1104
1124
1524
ff24
1124
1124
1124
1d24
f124
4224
0204
0404
0004
ENDCHAR
STARTCHAR Ca661
ENCODING 42593
SWIDTH 666 0
DWIDTH 16 0
BBX 16 14 0 0
BITMAP
0040
2040
2240
2248
227c
fbc8
2648
2248
2268
2250
2242
3a02
e202
41fe
ENDCHAR
STARTCHAR Ca662
ENCODING 42594
SWIDTH 666 0
DWIDTH 16 0
BBX 16 14 0 0
BITMAP
0200
0204
fffe
0400
0440
0840
0848
13fc
3040
5040
9040
1044
17fe
1000
ENDCHAR
STARTCHAR Ca663
ENCODING 42595
SWIDTH 666 0
DWIDTH 16 0
BBX 16 14 0 0
BITMAP
0100
0110
3ff8
0100
0100
0104
fffe
0100
0110
3ff8
0100
0100
0104
fffe
ENDCHAR
STARTCHAR Ca664
ENCODING 42596
SWIDTH 666 0
DWIDTH 16 0
BBX 16 14 0 0
BITMAP
1008
11fc
1000
1400
fe04
13fe
1040
1088
1dfc
f008
4008
0088
0050
0020
ENDCHAR
STARTCHAR Ca665
ENCODING 42597
SWIDTH 666 0
DWIDTH 16 0
BBX 16 14 0 0
BITMAP
1008
13fc
1208
1208
fe08
1208
13f8
1208
1e00
f200
4202
0202
01fe
0000
ENDCHAR
STARTCHAR Ca666
ENCODING 42598
SWIDTH 666 0
DWIDTH 16 0
BBX 16 14 0 0
BITMAP
1008
11fc
1020
1420
fe20
1024
13fe
1020
1e20
f020
4020
0020
00a0
0040
ENDCHAR
STARTCHAR Ca667
ENCODING 42599
SWIDTH 666 0
DWIDTH 16 0
BBX 16 14 0 0
BITMAP
3ff0
2010
2090
2fd0
2210
2210
27d0
2c50
3290
2110
2212
4412
480a
8004
ENDCHAR
STARTCHAR Ca668
ENCODING 42600
SWIDTH 666 0
DWIDTH 16 0
BBX 16 14 0 0
BITMAP
0200
07f0
0820
1840
2580
0280
0c88
71fc
0208
0c10
3220
01c0
0e00
7000
ENDCHAR
STARTCHAR Ca669
ENCODING 42601
SWIDTH 666 0
DWIDTH 16 0
BBX 16 14 0 0
BITMAP
0100
0104
fffe
0100
3ff0
0110
3ff0
2100
3ffc
0104
0298
0c40
3030
c00e
ENDCHAR
STARTCHAR Ca66a
ENCODING 42602
SWIDTH 666 0
DWIDTH 16 0
BBX 16 14 0 0
BITMAP
0100
0108
7ffc
0280
0440
1bb0
e00e
3ff8
0400
0fe0
0020
0420
0240
0180
ENDCHAR
STARTCHAR Ca66b
ENCODING 42603
SWIDTH 666 0
DWIDTH 16 0
BBX 16 14 0 0
BITMAP
0200
0108
7ffc
1000
1020
1ff0
0200
fffe
0420
0820
0440
0380
0460
3818
ENDCHAR
STARTCHAR Ca66c
ENCODING 42604
SWIDTH 666 0
DWIDTH 16 0
BBX 16 14 0 0
BITMAP
1008
11fc
1020
fc20
2424
27fe
2420
4420
2820
1020
2820
4420
8420
0020
ENDCHAR
STARTCHAR Ca66d
ENCODING 42605
SWIDTH 666 0
DWIDTH 16 0
BBX 16 14 0 0
BITMAP
1008
11fc
1008
fc08
2408
25f8
2508
6500
2900
1100
2902
4502
84fe
0000
ENDCHAR
STARTCHAR Ca66e
ENCODING 42606
SWIDTH 666 0
DWIDTH 16 0
BBX 16 14 0 0
BITMAP
11fc
1004
1008
fc10
2420
2424
27fe
4420
2820
1020
2820
4420
84a0
0040
ENDCHAR
STARTCHAR Ca66f
ENCODING 42607
SWIDTH 666 0
DWIDTH 16 0
BBX 16 14 0 0
BITMAP
1020
1020
1020
fd24
253e
25e4
2724
4524
2928
1120
1120
2922
4502
84fe
ENDCHAR
STARTCHAR Ca670
ENCODING 42608
SWIDTH 666 0
DWIDTH 16 0
BBX 16 14 0 0
BITMAP
1000
1000
1004
fefe
2284
2284
2284
4284
2484
1484
0884
14fc
2284
4000
ENDCHAR
STARTCHAR Ca671
ENCODING 42609
SWIDTH 666 0
DWIDTH 16 0
BBX 16 14 0 0
BITMAP
1080
1084
10fe
fd04
2604
2404
2484
6444
2804
1004
2804
4444
8428
0010
ENDCHAR
STARTCHAR Ca672
ENCODING 42610
SWIDTH 666 0
DWIDTH 16 0
BBX 16 14 0 0
BITMAP
0200
0100
3ffc
2004
4048
1fe0
0080
0104
fffe
0100
0100
0100
0500
0200
ENDCHAR
STARTCHAR Ca673
ENCODING 42611
SWIDTH 666 0
DWIDTH 16 0
BBX 16 14 0 0
BITMAP
0200
0204
fffe
0400
0bf8
1010
1020
3044
5ffe
9040
1040
1040
1140
1080
ENDCHAR
STARTCHAR Ca674
ENCODING 42612
SWIDTH 666 0
DWIDTH 16 0
BBX 16 14 0 0
BITMAP
0200
0100
7ffe
4002
8024
1ff0
0100
0108
7ffc
0100
0100
0100
0500
0200
ENDCHAR
STARTCHAR Ca675
ENCODING 42613
SWIDTH 666 0
DWIDTH 16 0
BBX 16 14 0 0
BITMAP
0200
0100
7ffe
4002
8024
0024
7ffe
0020
0820
0420
0420
0020
00a0
0040
ENDCHAR
STARTCHAR Ca676
ENCODING 42614
SWIDTH 666 0
DWIDTH 16 0
BBX 16 14 0 0
BITMAP
0100
7ffc
4004
8068
0180
3e00
0200
0208
fffc
0200
0200
0202
0202
01fe
ENDCHAR
STARTCHAR Ca677
ENCODING 42615
SWIDTH 666 0
DWIDTH 16 0
BBX 16 14 0 0
BITMAP
0100
3ffc
2004
4208
0200
fffe
0420
0820
1840
0640
0180
0240
0c20
3018
ENDCHAR
STARTCHAR Ca678
ENCODING 42616
SWIDTH 666 0
DWIDTH 16 0
BBX 16 14 0 0
BITMAP
0100
0108
7ffc
0100
0110
3ff8
0020
0024
7ffe
0820
0420
0020
00a0
0040
ENDCHAR
STARTCHAR Ca679
ENCODING 42617
SWIDTH 666 0
DWIDTH 16 0
BBX 16 14 0 0
BITMAP
0100
0920
0d10
1118
2108
0000
0104
fffe
0100
0240
0420
0818
300c
c004
ENDCHAR
STARTCHAR Ca67a
ENCODING 42618
SWIDTH 666 0
DWIDTH 16 0
BBX 16 14 0 0
BITMAP
2080
2084
20fe
a900
aa00
a9f8
a808
a810
a820
a840
a882
f902
8902
00fe
ENDCHAR
STARTCHAR Ca67b
ENCODING 42619
SWIDTH 666 0
DWIDTH 16 0
BBX 16 14 0 0
BITMAP
1004
1084
1084
54a4
5294
5294
9084
1084
1084
1084
2084
2084
4004
0004
ENDCHAR
STARTCHAR Ca67c
ENCODING 42620
SWIDTH 666 0
DWIDTH 16 0
BBX 16 14 0 0
BITMAP
2008
20fc
f888
a888
a8c8
a8a8
a8a8
a888
b888
a888
210a
210a
220a
2406
ENDCHAR
STARTCHAR Ca67d
ENCODING 42621
SWIDTH 666 0
DWIDTH 16 0
BBX 16 14 0 0
BITMAP
1010
0c30
0440
3ffc
0420
0420
0424
fffe
0420
0420
0820
0820
1020
2020
ENDCHAR
STARTCHAR Ca67e
ENCODING 42622
SWIDTH 666 0
DWIDTH 16 0
BBX 16 14 0 0
BITMAP
0800
0808
0ffc
1100
2110
5ff8
1100
1100
1104
fffe
0100
0100
0100
0100
ENDCHAR
STARTCHAR Ca6a1
ENCODING 42657
SWIDTH 666 0
DWIDTH 16 0
BBX 16 14 0 0
BITMAP
00a0
0090
0084
fffe
0080
0080
3e80
08c0
0840
0920
0e22
7012
200a
0004
ENDCHAR
STARTCHAR Ca6a2
ENCODING 42658
SWIDTH 666 0
DWIDTH 16 0
BBX 16 14 0 0
BITMAP
7c20
0920
0920
0924
793e
41e4
4724
4124
7924
0934
0922
0902
50fe
2000
ENDCHAR
STARTCHAR Ca6a3
ENCODING 42659
SWIDTH 666 0
DWIDTH 16 0
BBX 16 14 0 0
BITMAP
1080
1060
1020
1004
5ffe
5a00
5200
9200
1200
1200
1200
1208
13fc
1000
ENDCHAR
STARTCHAR Ca6a4
ENCODING 42660
SWIDTH 666 0
DWIDTH 16 0
BBX 16 14 0 0
BITMAP
1010
1010
1014
5bfe
5410
5010
9110
1090
1010
1010
1010
1010
1050
1020
ENDCHAR
STARTCHAR Ca6a5
ENCODING 42661
SWIDTH 666 0
DWIDTH 16 0
BBX 16 14 0 0
BITMAP
0080
00a0
0090
fffc
0080
1080
1088
7e90
1090
1060
20a0
2312
4c0a
0006
ENDCHAR
STARTCHAR Ca6a6
ENCODING 42662
SWIDTH 666 0
DWIDTH 16 0
BBX 16 14 0 0
BITMAP
0080
0090
0088
3ffe
2080
2084
2444
3e48
2048
2030
4060
4092
830a
0006
ENDCHAR
STARTCHAR Ca6a7
ENCODING 42663
SWIDTH 666 0
DWIDTH 16 0
BBX 16 14 0 0
BITMAP
0080
00a0
0090
3ffc
2080
2088
2848
2650
2250
2060
2090
2312
4c0a
8006
ENDCHAR
STARTCHAR Ca6a8
ENCODING 42664
SWIDTH 666 0
DWIDTH 16 0
BBX 16 14 0 0
BITMAP
0080
00a0
0090
3ffc
2080
2084
3e44
2248
2230
2a20
2462
4092
810a
0006
ENDCHAR
STARTCHAR Ca6a9
ENCODING 42665
SWIDTH 666 0
DWIDTH 16 0
BBX 16 14 0 0
BITMAP
0800
0800
0804
fefe
0884
0a84
0c84
1884
e884
0884
08fc
0884
2800
1000
ENDCHAR
STARTCHAR Ca6aa
ENCODING 42666
SWIDTH 666 0
DWIDTH 16 0
BBX 16 14 0 0
BITMAP
1000
1008
13fc
fc40
1040
1440
1840
3040
d040
1040
1044
1ffe
5000
2000
ENDCHAR
STARTCHAR Ca6ab
ENCODING 42667
SWIDTH 666 0
DWIDTH 16 0
BBX 16 14 0 0
BITMAP
1010
1038
17c0
1040
fc40
1440
1844
37fe
d040
1040
1040
1042
5042
203e
ENDCHAR
STARTCHAR Ca6ac
ENCODING 42668
SWIDTH 666 0
DWIDTH 16 0
BBX 16 14 0 0
BITMAP
0880
0880
4884
48fe
4908
4988
4a88
58d8
6850
4820
0850
0888
090e
0e04
ENDCHAR
STARTCHAR Ca6ad
ENCODING 42669
SWIDTH 666 0
DWIDTH 16 0
BBX 16 14 0 0
BITMAP
0010
1ff8
1010
1ff0
1010
1ff0
0100
0104
fffe
0100
0100
0100
0100
0100
ENDCHAR
STARTCHAR Ca6ae
ENCODING 42670
SWIDTH 666 0
DWIDTH 16 0
BBX 16 14 0 0
BITMAP
2000
2000
3ff8
2000
2004
1ff8
0000
1ff0
1010
1010
1ff0
1010
1010
1ff0
ENDCHAR
STARTCHAR Ca6af
ENCODING 42671
SWIDTH 666 0
DWIDTH 16 0
BBX 16 14 0 0
BITMAP
0800
0804
0ffe
1004
1044
2fe4
8844
0fc4
0844
0fc4
0844
0004
0028
0010
ENDCHAR
STARTCHAR Ca6b0
ENCODING 42672
SWIDTH 666 0
DWIDTH 16 0
BBX 16 14 0 0
BITMAP
1000
1008
10fc
fe88
1288
1288
12f8
1288
1288
1288
22fa
2202
4202
81fe
ENDCHAR
STARTCHAR Ca6b1
ENCODING 42673
SWIDTH 666 0
DWIDTH 16 0
BBX 16 14 0 0
BITMAP
0440
0440
0444
7ffe
4444
4444
4444
7ffc
4444
4444
4444
4444
7ffc
4004
ENDCHAR
STARTCHAR Ca6b2
ENCODING 42674
SWIDTH 666 0
DWIDTH 16 0
BBX 16 14 0 0
BITMAP
0200
0210
3ff8
2210
3ff0
2210
3ff0
2210
0120
01c0
0682
1842
e032
000e
ENDCHAR
STARTCHAR Ca6b3
ENCODING 42675
SWIDTH 666 0
DWIDTH 16 0
BBX 16 14 0 0
BITMAP
0200
0204
fffe
0400
0410
0ff8
1810
2ff0
4810
0ff0
0810
0810
0850
0820
ENDCHAR
STARTCHAR Ca6b4
ENCODING 42676
SWIDTH 666 0
DWIDTH 16 0
BBX 16 14 0 0
BITMAP
1000
1004
17fe
1080
fc80
3108
39fc
5408
5008
9008
1008
1088
1050
1020
ENDCHAR
STARTCHAR Ca6b5
ENCODING 42677
SWIDTH 666 0
DWIDTH 16 0
BBX 16 14 0 0
BITMAP
1020
1020
1020
fe20
1030
302c
3826
5422
5220
9020
1020
1020
1020
1020
ENDCHAR
STARTCHAR Ca6b6
ENCODING 42678
SWIDTH 666 0
DWIDTH 16 0
BBX 16 14 0 0
BITMAP
1100
1110
1ff8
2100
0104
fffe
0300
0580
0940
1130
210e
c104
0100
0100
ENDCHAR
STARTCHAR Ca6b7
ENCODING 42679
SWIDTH 666 0
DWIDTH 16 0
BBX 16 14 0 0
BITMAP
1fe0
0820
0820
1020
613e
0100
0104
fffe
0540
0920
1118
6108
0100
0100
ENDCHAR
STARTCHAR Ca6b8
ENCODING 42680
SWIDTH 666 0
DWIDTH 16 0
BBX 16 14 0 0
BITMAP
4080
3080
1104
01fe
0a04
1248
2440
e040
20a0
20a0
2110
2108
220e
2404
ENDCHAR
STARTCHAR Ca6b9
ENCODING 42681
SWIDTH 666 0
DWIDTH 16 0
BBX 16 14 0 0
BITMAP
0440
0440
2444
244c
2450
2760
2440
2440
2440
2440
2440
2742
f842
403e
ENDCHAR
STARTCHAR Ca6ba
ENCODING 42682
SWIDTH 666 0
DWIDTH 16 0
BBX 16 14 0 0
BITMAP
fffe
0840
0840
1040
1f44
214c
2150
f260
0c40
0440
0842
1042
203e
4000
ENDCHAR
STARTCHAR Ca6bb
ENCODING 42683
SWIDTH 666 0
DWIDTH 16 0
BBX 16 14 0 0
BITMAP
1000
1ffc
1000
2ff8
4000
9ff8
7f88
0888
0908
09e8
102a
102a
214a
4084
ENDCHAR
STARTCHAR Ca6bc
ENCODING 42684
SWIDTH 666 0
DWIDTH 16 0
BBX 16 14 0 0
BITMAP
8080
6080
2080
0080
8ffe
6108
2208
0410
1210
2120
c0c0
4120
4218
4c08
ENDCHAR
STARTCHAR Ca6bd
ENCODING 42685
SWIDTH 666 0
DWIDTH 16 0
BBX 16 14 0 0
BITMAP
8008
67fc
2040
0040
8040
6040
2844
0ffe
1040
e040
2040
2040
2040
2040
ENDCHAR
STARTCHAR Ca6be
ENCODING 42686
SWIDTH 666 0
DWIDTH 16 0
BBX 16 14 0 0
BITMAP
8008
67fc
2040
0040
8044
6ffe
2040
0840
1040
e040
2040
2240
2140
2080
ENDCHAR
STARTCHAR Ca6bf
ENCODING 42687
SWIDTH 666 0
DWIDTH 16 0
BBX 16 14 0 0
BITMAP
4000
3008
17fc
8040
6040
2840
0840
1040
e040
2040
2044
2ffe
2000
2000
ENDCHAR
STARTCHAR Ca6c0
ENCODING 42688
SWIDTH 666 0
DWIDTH 16 0
BBX 16 14 0 0
BITMAP
4040
3240
1248
827c
63c8
2e48
1250
2240
e240
2240
2242
2202
21fe
2000
ENDCHAR
STARTCHAR Ca6c1
ENCODING 42689
SWIDTH 666 0
DWIDTH 16 0
BBX 16 14 0 0
BITMAP
4080
3084
10fe
8104
6104
2204
0b08
14c8
2050
e020
2040
2080
2100
2200
ENDCHAR
STARTCHAR Ca6c2
ENCODING 42690
SWIDTH 666 0
DWIDTH 16 0
BBX 16 14 0 0
BITMAP
0040
4040
3040
1040
8444
6444
2444
1444
2444
e444
2444
2444
27fc
2404
ENDCHAR
STARTCHAR Ca6c3
ENCODING 42691
SWIDTH 666 0
DWIDTH 16 0
BBX 16 14 0 0
BITMAP
4008
33fc
1000
8004
6ffe
2100
0900
1108
23fc
e008
2008
2088
2050
2020
ENDCHAR
STARTCHAR Ca6c4
ENCODING 42692
SWIDTH 666 0
DWIDTH 16 0
BBX 16 14 0 0
BITMAP
47f8
3010
1110
8110
6110
2110
0bf0
1110
2110
e112
2112
2212
220a
2406
ENDCHAR
STARTCHAR Ca6c5
ENCODING 42693
SWIDTH 666 0
DWIDTH 16 0
BBX 16 14 0 0
BITMAP
8100
6100
2110
0ff8
0110
8110
6110
2190
0150
1150
2112
c212
4412
581e
ENDCHAR
STARTCHAR Ca6c6
ENCODING 42694
SWIDTH 666 0
DWIDTH 16 0
BBX 16 14 0 0
BITMAP
43f0
3210
1210
0210
8210
6310
2290
0250
0a10
1210
2212
c212
4412
581e
ENDCHAR
STARTCHAR Ca6c7
ENCODING 42695
SWIDTH 666 0
DWIDTH 16 0
BBX 16 14 0 0
BITMAP
0400
0404
fffe
0480
0888
0c98
12a0
1080
2140
4140
8220
0410
080e
3004
ENDCHAR
STARTCHAR Ca6c8
ENCODING 42696
SWIDTH 666 0
DWIDTH 16 0
BBX 16 14 0 0
BITMAP
0200
0420
0810
3ff8
0108
1110
1ff8
2100
4100
0104
fffe
0100
0100
0100
ENDCHAR
STARTCHAR Ca6c9
ENCODING 42697
SWIDTH 666 0
DWIDTH 16 0
BBX 16 14 0 0
BITMAP
0880
2880
2884
3e8c
4890
48a0
88c0
1e80
6880
0880
0882
0882
087e
0800
ENDCHAR
STARTCHAR Ca6ca
ENCODING 42698
SWIDTH 666 0
DWIDTH 16 0
BBX 16 14 0 0
BITMAP
0004
fffe
0100
0200
0408
3ffc
2008
2008
3ff8
2008
2008
2008
3ff8
2008
ENDCHAR
STARTCHAR Ca6cb
ENCODING 42699
SWIDTH 666 0
DWIDTH 16 0
BBX 16 14 0 0
BITMAP
1040
1040
1244
1f7e
2890
4910
8a10
0810
0810
0810
0810
0810
0850
0820
ENDCHAR
STARTCHAR Ca6cc
ENCODING 42700
SWIDTH 666 0
DWIDTH 16 0
BBX 16 14 0 0
BITMAP
2108
1918
0d20
0540
0104
fffe
0380
0540
0920
1110
210e
c104
0100
0100
ENDCHAR
STARTCHAR Ca6cd
ENCODING 42701
SWIDTH 666 0
DWIDTH 16 0
BBX 16 14 0 0
BITMAP
0300
0400
0810
1030
3fc0
0100
0220
3ff8
0100
0920
1918
210c
4504
0200
ENDCHAR
STARTCHAR Ca6ce
ENCODING 42702
SWIDTH 666 0
DWIDTH 16 0
BBX 16 14 0 0
BITMAP
0800
0810
1ff8
2100
4100
0100
0104
fffe
2108
2108
2108
2108
3ff8
2008
ENDCHAR
STARTCHAR Ca6cf
ENCODING 42703
SWIDTH 666 0
DWIDTH 16 0
BBX 16 14 0 0
BITMAP
0820
0440
0288
7ffc
0100
0110
3ff8
0100
0100
0104
fffe
0100
0100
0100
ENDCHAR
STARTCHAR Ca6d0
ENCODING 42704
SWIDTH 666 0
DWIDTH 16 0
BBX 16 14 0 0
BITMAP
0004
7efe
0204
2244
1224
1224
0204
0a14
1224
62c4
2244
0204
1428
0810
ENDCHAR
STARTCHAR Ca6d1
ENCODING 42705
SWIDTH 666 0
DWIDTH 16 0
BBX 16 14 0 0
BITMAP
0200
0208
3fd8
0220
0244
fffe
0100
0600
0c00
1410
27f8
4400
8400
03fc
ENDCHAR
STARTCHAR Ca6d2
ENCODING 42706
SWIDTH 666 0
DWIDTH 16 0
BBX 16 14 0 0
BITMAP
0210
3fe0
0240
0284
fffe
0400
0ff8
1200
27f0
4010
8010
0220
0120
00c0
ENDCHAR
STARTCHAR Ca6d3
ENCODING 42707
SWIDTH 666 0
DWIDTH 16 0
BBX 16 14 0 0
BITMAP
0004
fffe
0200
0404
7ffe
4444
4444
4444
4444
4444
4444
4444
4454
4008
ENDCHAR
STARTCHAR Ca6d4
ENCODING 42708
SWIDTH 666 0
DWIDTH 16 0
BBX 16 14 0 0
BITMAP
0100
0108
7ffc
0100
3ff8
0100
0104
fffe
0540
0920
1110
210e
4104
0100
ENDCHAR
STARTCHAR Ca6d5
ENCODING 42709
SWIDTH 666 0
DWIDTH 16 0
BBX 16 14 0 0
BITMAP
7ffc
0820
0820
0fe0
0820
0820
0fe0
0820
0824
083e
0fe0
f020
0020
0020
ENDCHAR
STARTCHAR Ca6d6
ENCODING 42710
SWIDTH 666 0
DWIDTH 16 0
BBX 16 14 0 0
BITMAP
0100
0108
3ffc
0108
fffe
0108
3ff8
0100
7ffc
0100
fffe
0100
0100
0100
ENDCHAR
STARTCHAR Ca6d7
ENCODING 42711
SWIDTH 666 0
DWIDTH 16 0
BBX 16 14 0 0
BITMAP
0100
0104
7ffe
4104
4104
4284
4464
4924
4104
4284
4464
4824
4014
4008
ENDCHAR
STARTCHAR Ca6d8
ENCODING 42712
SWIDTH 666 0
DWIDTH 16 0
BBX 16 14 0 0
BITMAP
0220
3f20
2220
2224
3efe
2224
2224
3e24
2224
2244
2244
2284
4b28
8410
ENDCHAR
STARTCHAR Ca6d9
ENCODING 42713
SWIDTH 666 0
DWIDTH 16 0
BBX 16 14 0 0
BITMAP
0400
3e08
24fc
2488
3c88
2488
2488
3c88
2488
2488
248a
248a
4d0a
8606
ENDCHAR
STARTCHAR Ca6da
ENCODING 42714
SWIDTH 666 0
DWIDTH 16 0
BBX 16 14 0 0
BITMAP
0008
fffc
4100
4100
4108
7ffc
4008
4008
7ff8
4108
4100
4100
4108
7ffc
ENDCHAR
STARTCHAR Ca6db
ENCODING 42715
SWIDTH 666 0
DWIDTH 16 0
BBX 16 14 0 0
BITMAP
0200
0400
0808
3ffc
2008
2008
3ff8
2008
2008
3ff8
2008
2008
3ff8
2008
ENDCHAR
STARTCHAR Ca6dc
ENCODING 42716
SWIDTH 666 0
DWIDTH 16 0
BBX 16 14 0 0
BITMAP
7ffc
0200
0400
0820
1010
3ff8
0108
0100
0110
3ff8
0100
0100
0104
fffe
ENDCHAR
STARTCHAR Ca6dd
ENCODING 42717
SWIDTH 666 0
DWIDTH 16 0
BBX 16 14 0 0
BITMAP
0200
0700
5804
60fe
4004
4004
4404
7efc
4004
4004
4004
4004
7ffc
4004
ENDCHAR
STARTCHAR Ca6de
ENCODING 42718
SWIDTH 666 0
DWIDTH 16 0
BBX 16 14 0 0
BITMAP
00f0
1f00
0100
0104
fffe
0100
0108
3ffc
2008
2008
2008
2008
3ff8
2008
ENDCHAR
STARTCHAR Ca6df
ENCODING 42719
SWIDTH 666 0
DWIDTH 16 0
BBX 16 14 0 0
BITMAP
1010
1010
1010
1ffc
2210
2290
2290
dc94
08fe
0810
1010
2010
c010
0010
ENDCHAR
STARTCHAR Ca6e0
ENCODING 42720
SWIDTH 666 0
DWIDTH 16 0
BBX 16 14 0 0
BITMAP
0200
0410
1ff8
1010
1210
1110
fffe
1010
1210
1110
1110
1010
4050
0020
ENDCHAR
STARTCHAR Ca6e1
ENCODING 42721
SWIDTH 666 0
DWIDTH 16 0
BBX 16 14 0 0
BITMAP
3ff0
2010
2010
3ff0
2010
2010
3ff0
2430
2240
2180
2060
281e
3004
2000
ENDCHAR
STARTCHAR Ca6e2
ENCODING 42722
SWIDTH 666 0
DWIDTH 16 0
BBX 16 14 0 0
BITMAP
0800
0ff0
1020
2048
5ffc
9088
1088
1088
1ff8
1008
1000
1002
1002
0ffe
ENDCHAR
STARTCHAR Ca6e3
ENCODING 42723
SWIDTH 666 0
DWIDTH 16 0
BBX 16 14 0 0
BITMAP
0440
0444
fffe
0440
0020
0820
0440
0440
0280
0100
0280
0c70
300e
c004
ENDCHAR
STARTCHAR Ca6e4
ENCODING 42724
SWIDTH 666 0
DWIDTH 16 0
BBX 16 14 0 0
BITMAP
0100
0100
0108
3ffc
2108
2108
2108
3ff8
2108
0110
0108
01fc
7e04
2004
ENDCHAR
STARTCHAR Ca6e5
ENCODING 42725
SWIDTH 666 0
DWIDTH 16 0
BBX 16 14 0 0
BITMAP
0100
0200
0400
0808
3ffc
2448
2448
2448
2448
2448
2448
2448
fffe
0000
ENDCHAR
STARTCHAR Ca6e6
ENCODING 42726
SWIDTH 666 0
DWIDTH 16 0
BBX 16 14 0 0
BITMAP
1008
13fc
2000
4800
0804
17fe
3010
5010
9010
1010
1010
1010
1050
1020
ENDCHAR
STARTCHAR Ca6e7
ENCODING 42727
SWIDTH 666 0
DWIDTH 16 0
BBX 16 14 0 0
BITMAP
0200
0104
fffe
0200
0510
0920
18c0
2880
4840
8820
0910
0a0e
0c04
3800
ENDCHAR
STARTCHAR Ca6e8
ENCODING 42728
SWIDTH 666 0
DWIDTH 16 0
BBX 16 14 0 0
BITMAP
0004
fffe
0440
0440
0444
7ffe
4444
4444
4444
483c
5004
4004
7ffc
4004
ENDCHAR
STARTCHAR Ca6e9
ENCODING 42729
SWIDTH 666 0
DWIDTH 16 0
BBX 16 14 0 0
BITMAP
7c1c
45e0
4820
4820
5020
4824
4bfe
4420
4420
6820
5020
4020
4020
4020
ENDCHAR
STARTCHAR Ca6ea
ENCODING 42730
SWIDTH 666 0
DWIDTH 16 0
BBX 16 14 0 0
BITMAP
0100
0108
3ffc
2108
2108
3ff8
0100
7ffe
4104
4104
7ffc
0100
0100
0100
ENDCHAR
STARTCHAR Ca6eb
ENCODING 42731
SWIDTH 666 0
DWIDTH 16 0
BBX 16 14 0 0
BITMAP
0200
0108
fffc
0000
1ff0
1010
1ff0
0000
7ff8
0060
0080
0880
0480
0300
ENDCHAR
STARTCHAR Ca6ec
ENCODING 42732
SWIDTH 666 0
DWIDTH 16 0
BBX 16 14 0 0
BITMAP
0880
0840
1008
17fc
3000
5208
9208
1110
1110
10a0
1024
1ffe
1000
1000
ENDCHAR
STARTCHAR Ca6ed
ENCODING 42733
SWIDTH 666 0
DWIDTH 16 0
BBX 16 14 0 0
BITMAP
0880
0840
0844
17fe
3040
5040
9048
17fc
1040
1040
1040
1044
1ffe
1000
ENDCHAR
STARTCHAR Ca6ee
ENCODING 42734
SWIDTH 666 0
DWIDTH 16 0
BBX 16 14 0 0
BITMAP
0880
0840
13fc
1204
3408
5000
9000
1000
1000
1000
1004
1ffe
1000
1000
ENDCHAR
STARTCHAR Ca6ef
ENCODING 42735
SWIDTH 666 0
DWIDTH 16 0
BBX 16 14 0 0
BITMAP
0840
0820
13fc
1204
3508
5100
9110
1170
1180
1100
1104
1104
10fc
1000
ENDCHAR
STARTCHAR Ca6f0
ENCODING 42736
SWIDTH 666 0
DWIDTH 16 0
BBX 16 14 0 0
BITMAP
0bf8
0800
1008
17fc
3080
5084
9ffe
1110
1210
11a0
1040
10a0
1118
1604
ENDCHAR
STARTCHAR Ca6f1
ENCODING 42737
SWIDTH 666 0
DWIDTH 16 0
BBX 16 14 0 0
BITMAP
0840
0a44
0948
1040
27fc
3040
5040
9044
1ffe
1040
1040
1040
1040
1040
ENDCHAR
STARTCHAR Ca6f2
ENCODING 42738
SWIDTH 666 0
DWIDTH 16 0
BBX 16 14 0 0
BITMAP
1020
1120
2ff8
2128
6128
a7f8
2520
2524
27fe
2124
2234
2228
2c20
2020
ENDCHAR
STARTCHAR Ca6f3
ENCODING 42739
SWIDTH 666 0
DWIDTH 16 0
BBX 16 14 0 0
BITMAP
0800
0804
0ffe
1008
1008
33c8
5248
9248
1248
13c8
1248
1008
1028
1010
ENDCHAR
STARTCHAR Ca6f4
ENCODING 42740
SWIDTH 666 0
DWIDTH 16 0
BBX 16 14 0 0
BITMAP
0840
0840
1044
1ffe
3040
5040
9048
13fc
1208
1208
1208
1208
13f8
1208
ENDCHAR
STARTCHAR Ca6f5
ENCODING 42741
SWIDTH 666 0
DWIDTH 16 0
BBX 16 14 0 0
BITMAP
0880
0884
17fe
1080
3080
5100
9108
11fc
1220
1420
1820
1024
17fe
1000
ENDCHAR
STARTCHAR Ca6f6
ENCODING 42742
SWIDTH 666 0
DWIDTH 16 0
BBX 16 14 0 0
BITMAP
0880
0880
1084
1ffe
3100
5100
9208
13fc
1508
1908
1108
1108
11f8
1108
ENDCHAR
STARTCHAR Ca6f7
ENCODING 42743
SWIDTH 666 0
DWIDTH 16 0
BBX 16 14 0 0
BITMAP
1400
1404
24be
3fe4
64a4
a4a4
24a4
24a4
24a4
24a4
28a4
28bc
32a4
2100
ENDCHAR
STARTCHAR Ca6f8
ENCODING 42744
SWIDTH 666 0
DWIDTH 16 0
BBX 16 14 0 0
BITMAP
0804
0bfe
0804
1024
37f4
5004
93e4
1224
1224
1224
13e4
1204
1014
1008
ENDCHAR
STARTCHAR Ca6f9
ENCODING 42745
SWIDTH 666 0
DWIDTH 16 0
BBX 16 14 0 0
BITMAP
0840
0840
0844
17fe
3444
5444
97fc
1444
1444
17fc
1444
1040
1040
1040
ENDCHAR
STARTCHAR Ca6fa
ENCODING 42746
SWIDTH 666 0
DWIDTH 16 0
BBX 16 14 0 0
BITMAP
1004
17fe
1444
2444
2444
6444
a7fc
2444
2444
2444
2444
27fc
2404
2000
ENDCHAR
STARTCHAR Ca6fb
ENCODING 42747
SWIDTH 666 0
DWIDTH 16 0
BBX 16 14 0 0
BITMAP
1040
1040
2040
407c
a040
2040
2044
23fe
2204
2204
2204
2204
23fc
2204
ENDCHAR
STARTCHAR Ca6fc
ENCODING 42748
SWIDTH 666 0
DWIDTH 16 0
BBX 16 14 0 0
BITMAP
1000
1008
1408
2508
2488
6448
a448
2408
2490
2520
2628
2446
2882
2100
ENDCHAR
STARTCHAR Ca6fd
ENCODING 42749
SWIDTH 666 0
DWIDTH 16 0
BBX 16 14 0 0
BITMAP
1000
1008
17fc
2408
6408
a7f8
2408
2408
27f8
2408
2000
2004
3ffe
2000
ENDCHAR
STARTCHAR Ca6fe
ENCODING 42750
SWIDTH 666 0
DWIDTH 16 0
BBX 16 14 0 0
BITMAP
1004
17fe
1444
2444
67fc
a444
2444
2444
27fc
2444
2444
2444
2854
3008
ENDCHAR
STARTCHAR Ca740
ENCODING 42816
SWIDTH 666 0
DWIDTH 16 0
BBX 16 14 0 0
BITMAP
0900
0904
11fe
1280
3280
5488
98fc
1080
1080
1084
10fe
1080
1080
1080
ENDCHAR
STARTCHAR Ca741
ENCODING 42817
SWIDTH 666 0
DWIDTH 16 0
BBX 16 14 0 0
BITMAP
1100
1104
23fe
2204
6408
a840
2040
2150
2148
224c
2444
2040
2140
2080
ENDCHAR
STARTCHAR Ca742
ENCODING 42818
SWIDTH 666 0
DWIDTH 16 0
BBX 16 14 0 0
BITMAP
0840
0884
11fe
1104
3104
5104
9104
11fc
1104
1104
1104
1104
11fc
1104
ENDCHAR
STARTCHAR Ca743
ENCODING 42819
SWIDTH 666 0
DWIDTH 16 0
BBX 16 14 0 0
BITMAP
1008
103c
17c0
2440
6440
a444
27fe
2420
2420
2410
2512
260a
2c0a
25e6
ENDCHAR
STARTCHAR Ca744
ENCODING 42820
SWIDTH 666 0
DWIDTH 16 0
BBX 16 14 0 0
BITMAP
0840
08a0
10a0
1110
3208
55ee
9804
1000
13f8
1008
1010
10a0
1040
1020
ENDCHAR
STARTCHAR Ca745
ENCODING 42821
SWIDTH 666 0
DWIDTH 16 0
BBX 16 14 0 0
BITMAP
0100
0280
0440
0820
1010
2fee
c104
0110
3ff8
0920
1918
210c
4504
0200
ENDCHAR
STARTCHAR Ca746
ENCODING 42822
SWIDTH 666 0
DWIDTH 16 0
BBX 16 14 0 0
BITMAP
0900
0904
13fe
1204
3424
5bf4
9224
1224
1224
13e4
1224
1044
1028
1010
ENDCHAR
STARTCHAR Ca747
ENCODING 42823
SWIDTH 666 0
DWIDTH 16 0
BBX 16 14 0 0
BITMAP
2080
2080
2ffe
4080
8140
4240
47fc
4c44
5444
4444
4454
4448
4040
4040
ENDCHAR
STARTCHAR Ca748
ENCODING 42824
SWIDTH 666 0
DWIDTH 16 0
BBX 16 14 0 0
BITMAP
0840
0a40
1248
13fc
3440
5840
9044
1ffe
10a0
10a0
1110
1110
120e
1404
ENDCHAR
STARTCHAR Ca749
ENCODING 42825
SWIDTH 666 0
DWIDTH 16 0
BBX 16 14 0 0
BITMAP
1010
0c30
0440
3ff8
2010
2010
2010
3ff0
2450
0440
0842
0842
1042
e03e
ENDCHAR
STARTCHAR Ca74a
ENCODING 42826
SWIDTH 666 0
DWIDTH 16 0
BBX 16 14 0 0
BITMAP
0100
0104
fffe
0100
0100
3ff8
2008
2008
3ff8
0440
0440
0842
1042
e03e
ENDCHAR
STARTCHAR Ca74b
ENCODING 42827
SWIDTH 666 0
DWIDTH 16 0
BBX 16 14 0 0
BITMAP
0800
1fe0
1040
2088
7ffc
a108
2108
3ff8
2188
0280
0480
0882
3082
c07e
ENDCHAR
STARTCHAR Ca74c
ENCODING 42828
SWIDTH 666 0
DWIDTH 16 0
BBX 16 14 0 0
BITMAP
0020
00f0
0f00
0800
0800
0ffc
0840
0840
0844
fffe
0440
0c30
1018
2008
ENDCHAR
STARTCHAR Ca74d
ENCODING 42829
SWIDTH 666 0
DWIDTH 16 0
BBX 16 14 0 0
BITMAP
4040
3080
1080
0110
0208
0ffc
1004
2000
e7f8
2408
2408
2408
27f8
2408
ENDCHAR
STARTCHAR Ca74e
ENCODING 42830
SWIDTH 666 0
DWIDTH 16 0
BBX 16 14 0 0
BITMAP
4080
3140
1220
0410
0be8
1006
07f0
2010
c020
4040
4280
4100
40c0
0040
ENDCHAR
STARTCHAR Ca74f
ENCODING 42831
SWIDTH 666 0
DWIDTH 16 0
BBX 16 14 0 0
BITMAP
0004
3f04
2124
2124
3f24
0824
0824
ffa4
08a4
08a4
10a4
1084
2514
4208
ENDCHAR
STARTCHAR Ca750
ENCODING 42832
SWIDTH 666 0
DWIDTH 16 0
BBX 16 14 0 0
BITMAP
0404
4444
34c4
1524
0424
7fa4
0424
0424
ffa4
0424
0824
1004
2014
4008
ENDCHAR
STARTCHAR Ca751
ENCODING 42833
SWIDTH 666 0
DWIDTH 16 0
BBX 16 14 0 0
BITMAP
0784
7c04
0424
0424
0524
ffa4
0c24
0e24
15a4
14a4
2404
4404
0414
0408
ENDCHAR
STARTCHAR Ca752
ENCODING 42834
SWIDTH 666 0
DWIDTH 16 0
BBX 16 14 0 0
BITMAP
7fc4
4a44
4a44
4a54
4a54
4a54
fff4
4a54
4a54
4a54
4a44
4a44
4a54
80c8
ENDCHAR
STARTCHAR Ca753
ENCODING 42835
SWIDTH 666 0
DWIDTH 16 0
BBX 16 14 0 0
BITMAP
2002
2082
3fd2
4092
bc92
2492
2492
3c92
2292
2112
2042
2042
204a
1fc4
ENDCHAR
STARTCHAR Ca754
ENCODING 42836
SWIDTH 666 0
DWIDTH 16 0
BBX 16 14 0 0
BITMAP
0820
0820
7f20
0824
08fe
0824
ffa4
1024
1444
2244
7e84
2284
0128
0210
ENDCHAR
STARTCHAR Ca755
ENCODING 42837
SWIDTH 666 0
DWIDTH 16 0
BBX 16 14 0 0
BITMAP
0220
3f20
2224
23fe
3e24
2224
2224
3e24
2244
2244
2f44
f084
4128
0210
ENDCHAR
STARTCHAR Ca756
ENCODING 42838
SWIDTH 666 0
DWIDTH 16 0
BBX 16 14 0 0
BITMAP
1000
fefc
2284
2448
6430
1820
1450
628e
0204
3ff8
0208
0408
1850
6020
ENDCHAR
STARTCHAR Ca757
ENCODING 42839
SWIDTH 666 0
DWIDTH 16 0
BBX 16 14 0 0
BITMAP
2020
2220
7f24
42fe
8a24
7e24
4a24
4a24
4a44
7a44
4244
0a84
04a8
0110
ENDCHAR
STARTCHAR Ca758
ENCODING 42840
SWIDTH 666 0
DWIDTH 16 0
BBX 16 14 0 0
BITMAP
0008
fffc
8000
9ff0
9110
9110
9ff0
9110
9110
9ff0
8100
8100
8104
fffe
ENDCHAR
STARTCHAR Ca759
ENCODING 42841
SWIDTH 666 0
DWIDTH 16 0
BBX 16 14 0 0
BITMAP
7efe
4284
4284
7e84
4284
4284
7e84
4084
42a4
4c94
7a88
6280
0080
0080
ENDCHAR
STARTCHAR Ca75a
ENCODING 42842
SWIDTH 666 0
DWIDTH 16 0
BBX 16 14 0 0
BITMAP
0c04
70fe
4484
64a4
5494
5494
4484
5cc4
e4a8
0490
0880
1080
6080
0080
ENDCHAR
STARTCHAR Ca75b
ENCODING 42843
SWIDTH 666 0
DWIDTH 16 0
BBX 16 14 0 0
BITMAP
0200
7ffc
0440
0280
0100
02c0
0c30
300e
c004
1ff0
1010
1010
1ff0
1010
ENDCHAR
STARTCHAR Ca75c
ENCODING 42844
SWIDTH 666 0
DWIDTH 16 0
BBX 16 14 0 0
BITMAP
0080
f844
8ffe
8800
8810
89f8
8910
8910
f910
8910
0110
0212
0412
080e
ENDCHAR
STARTCHAR Ca75d
ENCODING 42845
SWIDTH 666 0
DWIDTH 16 0
BBX 16 14 0 0
BITMAP
0010
3ff8
0200
0204
fffe
0440
0820
1010
2fee
4824
8820
0820
0fe0
0820
ENDCHAR
STARTCHAR Ca75e
ENCODING 42846
SWIDTH 666 0
DWIDTH 16 0
BBX 16 14 0 0
BITMAP
7ffc
0400
0420
3ff0
0820
0824
fffe
0010
1ff8
1010
1010
1010
1ff0
1010
ENDCHAR
STARTCHAR Ca75f
ENCODING 42847
SWIDTH 666 0
DWIDTH 16 0
BBX 16 14 0 0
BITMAP
0004
fffe
0080
0300
0560
0918
3106
c102
1ff0
1010
1010
1010
1ff0
1010
ENDCHAR
STARTCHAR Ca760
ENCODING 42848
SWIDTH 666 0
DWIDTH 16 0
BBX 16 14 0 0
BITMAP
0004
f3fe
9204
9204
9204
93fc
9204
9300
f280
9240
0220
0410
0808
3006
ENDCHAR
STARTCHAR Ca761
ENCODING 42849
SWIDTH 666 0
DWIDTH 16 0
BBX 16 14 0 0
BITMAP
0008
fbfc
8a48
8a48
8a48
8a48
8a48
8bf8
8a08
fa00
8a00
0202
0202
01fe
ENDCHAR
STARTCHAR Ca762
ENCODING 42850
SWIDTH 666 0
DWIDTH 16 0
BBX 16 14 0 0
BITMAP
0010
1ff8
1010
1010
1ff0
1110
0104
fffe
0380
0540
0930
310e
c104
0100
ENDCHAR
STARTCHAR Ca763
ENCODING 42851
SWIDTH 666 0
DWIDTH 16 0
BBX 16 14 0 0
BITMAP
0bfe
7e00
4a08
4afc
4a88
4a88
4a88
4aa8
4a90
7a80
4482
0482
087e
1000
ENDCHAR
STARTCHAR Ca764
ENCODING 42852
SWIDTH 666 0
DWIDTH 16 0
BBX 16 14 0 0
BITMAP
1ff8
1010
1010
1ff0
0000
0010
3ff8
0104
fffe
0280
0240
0420
181c
6008
ENDCHAR
STARTCHAR Ca765
ENCODING 42853
SWIDTH 666 0
DWIDTH 16 0
BBX 16 14 0 0
BITMAP
1ff0
1010
1010
1010
1ff0
1010
0008
7ffc
0100
0110
3ff8
0100
0104
fffe
ENDCHAR
STARTCHAR Ca766
ENCODING 42854
SWIDTH 666 0
DWIDTH 16 0
BBX 16 14 0 0
BITMAP
0010
1ff8
1010
1010
1010
1ff0
0300
0608
3ffc
2008
2008
2008
3ff8
2008
ENDCHAR
STARTCHAR Ca767
ENCODING 42855
SWIDTH 666 0
DWIDTH 16 0
BBX 16 14 0 0
BITMAP
0010
3ff8
0410
0410
fffe
0410
0410
3ff0
0800
1ff8
2808
4808
8ff8
0808
ENDCHAR
STARTCHAR Ca768
ENCODING 42856
SWIDTH 666 0
DWIDTH 16 0
BBX 16 14 0 0
BITMAP
0020
08a0
fca0
8890
8908
890e
8a04
8df8
8888
f888
8908
0108
0228
0410
ENDCHAR
STARTCHAR Ca769
ENCODING 42857
SWIDTH 666 0
DWIDTH 16 0
BBX 16 14 0 0
BITMAP
1100
1110
1ff8
1100
2100
0104
fffe
0010
1ff8
1010
1010
1010
1ff0
1010
ENDCHAR
STARTCHAR Ca76a
ENCODING 42858
SWIDTH 666 0
DWIDTH 16 0
BBX 16 14 0 0
BITMAP
0080
0880
fc84
89fe
8904
8a48
8a50
8c40
8840
f8a0
8890
0108
060e
1804
ENDCHAR
STARTCHAR Ca76b
ENCODING 42859
SWIDTH 666 0
DWIDTH 16 0
BBX 16 14 0 0
BITMAP
0900
7d04
49fe
4aa4
4ca4
48a4
48a4
4924
4944
7a44
4c84
0104
0228
0010
ENDCHAR
STARTCHAR Ca76c
ENCODING 42860
SWIDTH 666 0
DWIDTH 16 0
BBX 16 14 0 0
BITMAP
0008
07fc
f908
8910
8920
893c
8984
8a48
fa50
8c20
0450
0888
110e
0204
ENDCHAR
STARTCHAR Ca76d
ENCODING 42861
SWIDTH 666 0
DWIDTH 16 0
BBX 16 14 0 0
BITMAP
0820
fc40
8880
8908
8a04
8ffe
8892
8890
f910
8910
0212
0212
0412
080e
ENDCHAR
STARTCHAR Ca76e
ENCODING 42862
SWIDTH 666 0
DWIDTH 16 0
BBX 16 14 0 0
BITMAP
0040
f040
9040
9150
9148
9144
9242
9248
9448
f048
9010
0020
00c0
0700
ENDCHAR
STARTCHAR Ca76f
ENCODING 42863
SWIDTH 666 0
DWIDTH 16 0
BBX 16 14 0 0
BITMAP
0040
0040
f044
97fe
9444
9444
9444
94a4
9494
9514
f404
9404
0414
0408
ENDCHAR
STARTCHAR Ca770
ENCODING 42864
SWIDTH 666 0
DWIDTH 16 0
BBX 16 14 0 0
BITMAP
0040
0850
fc48
8840
8844
8ffe
88a0
88a0
8910
f910
8a08
0208
0404
0802
ENDCHAR
STARTCHAR Ca771
ENCODING 42865
SWIDTH 666 0
DWIDTH 16 0
BBX 16 14 0 0
BITMAP
07d0
f850
8890
8910
8910
8950
8990
8f10
f910
8910
0112
0112
050e
0200
ENDCHAR
STARTCHAR Ca772
ENCODING 42866
SWIDTH 666 0
DWIDTH 16 0
BBX 16 14 0 0
BITMAP
03fc
0810
7c90
4890
4910
4914
4bfe
4830
4850
7990
4610
0010
0050
0020
ENDCHAR
STARTCHAR Ca773
ENCODING 42867
SWIDTH 666 0
DWIDTH 16 0
BBX 16 14 0 0
BITMAP
0020
0024
fbfe
8820
8820
89fc
8904
8888
f850
8820
0050
0088
010e
0604
ENDCHAR
STARTCHAR Ca774
ENCODING 42868
SWIDTH 666 0
DWIDTH 16 0
BBX 16 14 0 0
BITMAP
0380
0440
0820
17d0
2008
4fe4
8022
0040
0080
1ff0
1010
1010
1ff0
1010
ENDCHAR
STARTCHAR Ca775
ENCODING 42869
SWIDTH 666 0
DWIDTH 16 0
BBX 16 14 0 0
BITMAP
0040
0840
fca0
88a0
8910
8aee
8c04
8bf8
8808
f810
8810
0020
0040
0080
ENDCHAR
STARTCHAR Ca776
ENCODING 42870
SWIDTH 666 0
DWIDTH 16 0
BBX 16 14 0 0
BITMAP
0010
0038
f9c0
8900
8904
89fe
8910
8910
f910
8a10
0210
0410
0810
0010
ENDCHAR
STARTCHAR Ca777
ENCODING 42871
SWIDTH 666 0
DWIDTH 16 0
BBX 16 14 0 0
BITMAP
0400
0800
1004
3ffe
6084
a104
23e4
2444
2b84
3144
2634
2004
3ffc
2004
ENDCHAR
STARTCHAR Ca778
ENCODING 42872
SWIDTH 666 0
DWIDTH 16 0
BBX 16 14 0 0
BITMAP
0004
7ffe
4104
4104
5ff4
4104
4304
4384
4544
4934
5114
4104
7ffc
4004
ENDCHAR
STARTCHAR Ca779
ENCODING 42873
SWIDTH 666 0
DWIDTH 16 0
BBX 16 14 0 0
BITMAP
7ffe
4104
5ff4
4104
4924
4924
4924
4fe4
4104
4114
40f4
4004
7ffc
4004
ENDCHAR
STARTCHAR Ca77a
ENCODING 42874
SWIDTH 666 0
DWIDTH 16 0
BBX 16 14 0 0
BITMAP
7ffc
4804
4814
4ffc
5494
5494
6494
4994
5114
6254
4424
4004
7ffc
4004
ENDCHAR
STARTCHAR Ca77b
ENCODING 42875
SWIDTH 666 0
DWIDTH 16 0
BBX 16 14 0 0
BITMAP
1080
1040
1004
13fe
fc80
1088
10fc
1088
1c88
f088
4108
0108
0250
0420
ENDCHAR
STARTCHAR Ca77c
ENCODING 42876
SWIDTH 666 0
DWIDTH 16 0
BBX 16 14 0 0
BITMAP
1080
1044
17fe
fc00
1010
11f8
1110
1110
1d10
f110
4110
0212
0212
040e
ENDCHAR
STARTCHAR Ca77d
ENCODING 42877
SWIDTH 666 0
DWIDTH 16 0
BBX 16 14 0 0
BITMAP
1020
1020
1020
1120
ff24
113e
1120
1120
1120
1320
1d20
f120
4124
07fe
ENDCHAR
STARTCHAR Ca77e
ENCODING 42878
SWIDTH 666 0
DWIDTH 16 0
BBX 16 14 0 0
BITMAP
2008
23fc
2208
2288
fa48
2248
2208
2ffe
2208
3a08
e208
4408
0428
0810
ENDCHAR
STARTCHAR Ca7a1
ENCODING 42913
SWIDTH 666 0
DWIDTH 16 0
BBX 16 14 0 0
BITMAP
1080
1084
10fe
1104
fd04
1224
10f4
1004
1024
1cf4
f004
4004
0028
0010
ENDCHAR
STARTCHAR Ca7a2
ENCODING 42914
SWIDTH 666 0
DWIDTH 16 0
BBX 16 14 0 0
BITMAP
1080
1080
10fc
fd04
1108
1240
1040
1040
10a0
1ca0
e110
4208
040e
0804
ENDCHAR
STARTCHAR Ca7a3
ENCODING 42915
SWIDTH 666 0
DWIDTH 16 0
BBX 16 14 0 0
BITMAP
17fc
1108
1110
fd10
113c
1184
1188
1148
1e50
f220
4450
0490
090e
1204
ENDCHAR
STARTCHAR Ca7a4
ENCODING 42916
SWIDTH 666 0
DWIDTH 16 0
BBX 16 14 0 0
BITMAP
0100
1110
1110
1110
2928
2524
4544
8180
0110
3ff8
0100
0100
0104
fffe
ENDCHAR
STARTCHAR Ca7a5
ENCODING 42917
SWIDTH 666 0
DWIDTH 16 0
BBX 16 14 0 0
BITMAP
0004
2ffe
2020
2040
f880
2140
2248
2c44
2042
2840
3040
c040
0040
0040
ENDCHAR
STARTCHAR Ca7a6
ENCODING 42918
SWIDTH 666 0
DWIDTH 16 0
BBX 16 14 0 0
BITMAP
101c
11e0
1100
1500
ff04
11fe
1110
1110
1d10
f110
4210
0210
0410
0810
ENDCHAR
STARTCHAR Ca7a7
ENCODING 42919
SWIDTH 666 0
DWIDTH 16 0
BBX 16 14 0 0
BITMAP
1040
1040
9040
5040
5044
1ffe
1040
7040
d040
1040
1048
17fc
1000
1000
ENDCHAR
STARTCHAR Ca7a8
ENCODING 42920
SWIDTH 666 0
DWIDTH 16 0
BBX 16 14 0 0
BITMAP
0100
0100
0110
7ff8
1110
0920
0104
fffe
0100
0280
0280
0460
181e
600c
ENDCHAR
STARTCHAR Ca7a9
ENCODING 42921
SWIDTH 666 0
DWIDTH 16 0
BBX 16 14 0 0
BITMAP
0840
0840
4880
2884
2ffe
0908
0908
3b08
4910
c8a0
0840
08b0
090c
0a04
ENDCHAR
STARTCHAR Ca7aa
ENCODING 42922
SWIDTH 666 0
DWIDTH 16 0
BBX 16 14 0 0
BITMAP
1018
1060
1184
fdfe
2504
2504
25fc
4504
2900
1100
2a00
4600
8400
0800
ENDCHAR
STARTCHAR Ca7ab
ENCODING 42923
SWIDTH 666 0
DWIDTH 16 0
BBX 16 14 0 0
BITMAP
1080
1040
1004
fffe
2480
2488
24fc
4488
2888
1088
2908
4508
8250
0420
ENDCHAR
STARTCHAR Ca7ac
ENCODING 42924
SWIDTH 666 0
DWIDTH 16 0
BBX 16 14 0 0
BITMAP
13fc
1088
1088
fc88
2488
2488
25f8
4488
2888
1088
2888
4488
87fe
0000
ENDCHAR
STARTCHAR Ca7ad
ENCODING 42925
SWIDTH 666 0
DWIDTH 16 0
BBX 16 14 0 0
BITMAP
1120
1120
1124
fd2c
25f0
2520
2520
4520
2920
1120
2962
45a2
851e
0000
ENDCHAR
STARTCHAR Ca7ae
ENCODING 42926
SWIDTH 666 0
DWIDTH 16 0
BBX 16 14 0 0
BITMAP
1020
1020
1020
fca8
24a6
24a2
2520
4424
2828
1010
2820
4440
8080
0300
ENDCHAR
STARTCHAR Ca7af
ENCODING 42927
SWIDTH 666 0
DWIDTH 16 0
BBX 16 14 0 0
BITMAP
1008
101c
11e0
fc20
2420
2424
27fe
4420
2850
1050
2888
4508
8206
0404
ENDCHAR
STARTCHAR Ca7b0
ENCODING 42928
SWIDTH 666 0
DWIDTH 16 0
BBX 16 14 0 0
BITMAP
17fe
1088
1088
fc88
2488
2488
27fe
4488
2888
1088
2888
4488
8108
0208
ENDCHAR
STARTCHAR Ca7b1
ENCODING 42929
SWIDTH 666 0
DWIDTH 16 0
BBX 16 14 0 0
BITMAP
11f8
1008
1050
fc20
2420
27fe
2422
4424
2820
1020
2820
4420
84a0
0040
ENDCHAR
STARTCHAR Ca7b2
ENCODING 42930
SWIDTH 666 0
DWIDTH 16 0
BBX 16 14 0 0
BITMAP
1020
1024
13fe
fc20
2420
25fc
2504
4488
2888
1050
2820
4450
848e
0304
ENDCHAR
STARTCHAR Ca7b3
ENCODING 42931
SWIDTH 666 0
DWIDTH 16 0
BBX 16 14 0 0
BITMAP
1008
103c
11e0
fc20
2420
2424
25fe
4420
2820
1020
2820
4428
85fc
0000
ENDCHAR
STARTCHAR Ca7b4
ENCODING 42932
SWIDTH 666 0
DWIDTH 16 0
BBX 16 14 0 0
BITMAP
0078
3f80
0208
1118
0d20
0440
0208
fffe
0810
1820
0640
0180
0660
1810
ENDCHAR
STARTCHAR Ca7b5
ENCODING 42933
SWIDTH 666 0
DWIDTH 16 0
BBX 16 14 0 0
BITMAP
0200
0210
3fe0
0240
0284
fffe
0200
3fe0
1080
2108
5ffc
8100
0500
0200
ENDCHAR
STARTCHAR Ca7b6
ENCODING 42934
SWIDTH 666 0
DWIDTH 16 0
BBX 16 14 0 0
BITMAP
0480
fe80
0484
08fe
1108
1588
1a88
f088
5050
1020
1050
1088
510e
2604
ENDCHAR
STARTCHAR Ca7b7
ENCODING 42935
SWIDTH 666 0
DWIDTH 16 0
BBX 16 14 0 0
BITMAP
0078
3f80
0010
1110
0920
3ff0
0040
0184
fffe
0100
0100
0100
0500
0200
ENDCHAR
STARTCHAR Ca7b8
ENCODING 42936
SWIDTH 666 0
DWIDTH 16 0
BBX 16 14 0 0
BITMAP
0100
7ffc
0100
4100
7ffe
4002
9fe4
0040
0184
fffe
0100
0100
0500
0200
ENDCHAR
STARTCHAR Ca7b9
ENCODING 42937
SWIDTH 666 0
DWIDTH 16 0
BBX 16 14 0 0
BITMAP
0200
0104
7ffe
4004
8048
1fe0
0000
0008
7ffc
0480
0884
0884
1084
607c
ENDCHAR
STARTCHAR Ca7ba
ENCODING 42938
SWIDTH 666 0
DWIDTH 16 0
BBX 16 14 0 0
BITMAP
0200
0104
7ffe
4004
8108
0100
fffe
0540
0920
1110
210e
4104
0100
0100
ENDCHAR
STARTCHAR Ca7bb
ENCODING 42939
SWIDTH 666 0
DWIDTH 16 0
BBX 16 14 0 0
BITMAP
0100
7ffc
4004
8208
0200
fffe
0400
0480
0880
1100
1220
2410
4ff8
0008
ENDCHAR
STARTCHAR Ca7bc
ENCODING 42940
SWIDTH 666 0
DWIDTH 16 0
BBX 16 14 0 0
BITMAP
2020
2050
2090
fd08
2a06
2c94
2890
2890
2910
2910
2a12
4802
47fe
8000
ENDCHAR
STARTCHAR Ca7bd
ENCODING 42941
SWIDTH 666 0
DWIDTH 16 0
BBX 16 14 0 0
BITMAP
0008
3ffc
2008
3ff8
2000
2004
3ffe
2004
27e4
2424
27e4
2404
4014
8008
ENDCHAR
STARTCHAR Ca7be
ENCODING 42942
SWIDTH 666 0
DWIDTH 16 0
BBX 16 14 0 0
BITMAP
0008
3ffc
2008
3ff8
2048
2840
2a4c
2f70
2840
2840
2942
4e42
483e
8000
ENDCHAR
STARTCHAR Ca7bf
ENCODING 42943
SWIDTH 666 0
DWIDTH 16 0
BBX 16 14 0 0
BITMAP
0008
3ffc
2008
3ff8
2088
2080
2ec4
22c8
22b0
2490
488e
5084
8280
0100
ENDCHAR
STARTCHAR Ca7c0
ENCODING 42944
SWIDTH 666 0
DWIDTH 16 0
BBX 16 14 0 0
BITMAP
0008
3ffc
2008
3ff8
2020
2fc0
2100
21f8
2f00
2100
21fc
5f00
8102
00fe
ENDCHAR
STARTCHAR Ca7c1
ENCODING 42945
SWIDTH 666 0
DWIDTH 16 0
BBX 16 14 0 0
BITMAP
1020
1024
13fe
5420
5420
5420
55fc
5488
5488
5450
7c20
0450
018e
0604
ENDCHAR
STARTCHAR Ca7c2
ENCODING 42946
SWIDTH 666 0
DWIDTH 16 0
BBX 16 14 0 0
BITMAP
2108
2108
3ff8
2108
0280
0440
0a30
f10e
0ff0
0010
0020
0040
0080
0100
ENDCHAR
STARTCHAR Ca7c3
ENCODING 42947
SWIDTH 666 0
DWIDTH 16 0
BBX 16 14 0 0
BITMAP
06c0
0820
1010
2fee
c424
0420
08a0
3040
0100
2108
2108
2108
3ff8
2008
ENDCHAR
STARTCHAR Ca7c4
ENCODING 42948
SWIDTH 666 0
DWIDTH 16 0
BBX 16 14 0 0
BITMAP
2108
2108
3ff8
0000
3ff0
0820
0840
1cf0
1210
2120
20c0
4140
8630
180e
ENDCHAR
STARTCHAR Ca7c5
ENCODING 42949
SWIDTH 666 0
DWIDTH 16 0
BBX 16 14 0 0
BITMAP
0008
7ffc
0100
1110
1110
1110
2928
2928
4544
8584
0100
0104
fffe
0000
ENDCHAR
STARTCHAR Ca7c6
ENCODING 42950
SWIDTH 666 0
DWIDTH 16 0
BBX 16 14 0 0
BITMAP
0c60
0380
0c60
3218
0200
fffe
0480
0888
1ffc
2888
c888
08a8
0890
0080
ENDCHAR
STARTCHAR Ca7c7
ENCODING 42951
SWIDTH 666 0
DWIDTH 16 0
BBX 16 14 0 0
BITMAP
0080
3ffc
2000
2ff8
2020
2140
2080
2ffc
2090
2080
4080
4080
8280
0100
ENDCHAR
STARTCHAR Ca7c8
ENCODING 42952
SWIDTH 666 0
DWIDTH 16 0
BBX 16 14 0 0
BITMAP
0100
0084
3ffe
2000
2440
2440
2444
244c
2750
2460
2440
2542
4e42
843e
ENDCHAR
STARTCHAR Ca7c9
ENCODING 42953
SWIDTH 666 0
DWIDTH 16 0
BBX 16 14 0 0
BITMAP
0100
0084
3ffe
2080
2088
3ffc
21c0
21a0
2290
2488
488e
5084
8080
0080
ENDCHAR
STARTCHAR Ca7ca
ENCODING 42954
SWIDTH 666 0
DWIDTH 16 0
BBX 16 14 0 0
BITMAP
0010
0038
fbc0
1040
2048
47fc
7840
0840
4840
2bf8
1000
2800
47fe
8000
ENDCHAR
STARTCHAR Ca7cb
ENCODING 42955
SWIDTH 666 0
DWIDTH 16 0
BBX 16 14 0 0
BITMAP
7ffc
0100
0100
3ff8
0100
0108
7ffc
0440
0444
fffe
0440
0840
1040
6040
ENDCHAR
STARTCHAR Ca7cc
ENCODING 42956
SWIDTH 666 0
DWIDTH 16 0
BBX 16 14 0 0
BITMAP
0660
0280
7ff8
0108
3ff8
2100
2104
3ffe
0304
0504
1924
6118
0100
0100
ENDCHAR
STARTCHAR Ca7cd
ENCODING 42957
SWIDTH 666 0
DWIDTH 16 0
BBX 16 14 0 0
BITMAP
0204
3f08
2210
3220
2a44
2a0c
2210
ffa0
2206
2208
2210
4220
4a40
8580
ENDCHAR
STARTCHAR Ca7ce
ENCODING 42958
SWIDTH 666 0
DWIDTH 16 0
BBX 16 14 0 0
BITMAP
7fc8
1108
1110
1120
1104
ffc8
1110
1122
1142
1104
2108
2110
4120
0140
ENDCHAR
STARTCHAR Ca7cf
ENCODING 42959
SWIDTH 666 0
DWIDTH 16 0
BBX 16 14 0 0
BITMAP
0880
1044
27fe
4080
0888
10fc
2088
d088
1108
1108
1208
1408
1850
1020
ENDCHAR
STARTCHAR Ca7d0
ENCODING 42960
SWIDTH 666 0
DWIDTH 16 0
BBX 16 14 0 0
BITMAP
0810
11f8
2110
4110
0a10
140e
3000
53f8
9110
10a0
1040
10b0
130e
1c04
ENDCHAR
STARTCHAR Ca7d1
ENCODING 42961
SWIDTH 666 0
DWIDTH 16 0
BBX 16 14 0 0
BITMAP
0200
0104
fffe
1000
1000
1010
1ff8
0200
1100
5084
5082
9012
1010
0ff0
ENDCHAR
STARTCHAR Ca7d2
ENCODING 42962
SWIDTH 666 0
DWIDTH 16 0
BBX 16 14 0 0
BITMAP
0010
7ff8
0010
3ff0
2010
2004
2004
1ffc
0000
5204
5182
5092
9012
0ff0
ENDCHAR
STARTCHAR Ca7d3
ENCODING 42963
SWIDTH 666 0
DWIDTH 16 0
BBX 16 14 0 0
BITMAP
0100
0104
fffe
0100
0100
0100
7ffc
0000
0200
5180
5084
5012
9012
0ff0
ENDCHAR
STARTCHAR Ca7d4
ENCODING 42964
SWIDTH 666 0
DWIDTH 16 0
BBX 16 14 0 0
BITMAP
0010
7ff8
0210
1210
1a10
0410
0450
0820
1200
0988
48a4
4822
4822
87e0
ENDCHAR
STARTCHAR Ca7d5
ENCODING 42965
SWIDTH 666 0
DWIDTH 16 0
BBX 16 14 0 0
BITMAP
1040
1040
1040
53fc
5a44
5448
9040
1040
10a0
1120
1122
1222
141e
1800
ENDCHAR
STARTCHAR Ca7d6
ENCODING 42966
SWIDTH 666 0
DWIDTH 16 0
BBX 16 14 0 0
BITMAP
1080
1080
1088
5bfc
5488
5088
9088
1ffe
1080
1120
1110
1208
140c
1804
ENDCHAR
STARTCHAR Ca7d7
ENCODING 42967
SWIDTH 666 0
DWIDTH 16 0
BBX 16 14 0 0
BITMAP
1008
13fc
1088
5888
5488
5088
93f8
1088
1088
1088
1088
1088
17fe
1000
ENDCHAR
STARTCHAR Ca7d8
ENCODING 42968
SWIDTH 666 0
DWIDTH 16 0
BBX 16 14 0 0
BITMAP
1020
10a0
1090
5910
5508
520e
9444
10c0
1080
1110
1208
13fc
1004
1000
ENDCHAR
STARTCHAR Ca7d9
ENCODING 42969
SWIDTH 666 0
DWIDTH 16 0
BBX 16 14 0 0
BITMAP
0040
0050
0048
fffe
0040
1240
1244
7f48
1250
1220
1262
2292
410a
0206
ENDCHAR
STARTCHAR Ca7da
ENCODING 42970
SWIDTH 666 0
DWIDTH 16 0
BBX 16 14 0 0
BITMAP
0680
18a0
6890
0884
fffe
0890
0a90
0c60
1840
68a0
0920
0a14
2814
100c
ENDCHAR
STARTCHAR Ca7db
ENCODING 42971
SWIDTH 666 0
DWIDTH 16 0
BBX 16 14 0 0
BITMAP
1040
1040
1040
fd50
1148
1546
1a42
3248
d448
10c8
1050
1020
50c0
2700
ENDCHAR
STARTCHAR Ca7dc
ENCODING 42972
SWIDTH 666 0
DWIDTH 16 0
BBX 16 14 0 0
BITMAP
1040
1044
17fe
fc00
1010
15f8
1910
3110
d110
1110
1112
1212
5212
240e
ENDCHAR
STARTCHAR Ca7dd
ENCODING 42973
SWIDTH 666 0
DWIDTH 16 0
BBX 16 14 0 0
BITMAP
1110
10d0
1050
fc10
1110
14d0
1850
3010
d01e
17f0
1010
1010
5010
2010
ENDCHAR
STARTCHAR Ca7de
ENCODING 42974
SWIDTH 666 0
DWIDTH 16 0
BBX 16 14 0 0
BITMAP
1040
1048
13fc
fc40
1040
13f8
1a08
3110
d110
10a0
1040
10b0
510e
2604
ENDCHAR
STARTCHAR Ca7df
ENCODING 42975
SWIDTH 666 0
DWIDTH 16 0
BBX 16 14 0 0
BITMAP
1020
1020
11fc
fc20
1020
1424
1bfe
3020
d020
1050
1088
1088
5106
2604
ENDCHAR
STARTCHAR Ca7e0
ENCODING 42976
SWIDTH 666 0
DWIDTH 16 0
BBX 16 14 0 0
BITMAP
1080
1080
1088
fffc
1088
1488
1888
3088
d7fe
1140
1120
1210
540e
2804
ENDCHAR
STARTCHAR Ca7e1
ENCODING 42977
SWIDTH 666 0
DWIDTH 16 0
BBX 16 14 0 0
BITMAP
1008
13fc
1088
fc88
1088
1488
1bfe
3088
d088
1088
1088
1088
57fe
2000
ENDCHAR
STARTCHAR Ca7e2
ENCODING 42978
SWIDTH 666 0
DWIDTH 16 0
BBX 16 14 0 0
BITMAP
1000
11fe
1124
fd24
1124
1524
19fc
3104
d100
1100
1102
1102
5102
20fe
ENDCHAR
STARTCHAR Ca7e3
ENCODING 42979
SWIDTH 666 0
DWIDTH 16 0
BBX 16 14 0 0
BITMAP
1004
13fe
1200
fe08
12fc
1688
1a88
3288
d2a8
1290
1282
1482
5882
207e
ENDCHAR
STARTCHAR Ca7e4
ENCODING 42980
SWIDTH 666 0
DWIDTH 16 0
BBX 16 14 0 0
BITMAP
10a0
1090
1080
fc9e
13e0
1c88
3050
d060
1040
10c0
1120
1212
540a
2006
ENDCHAR
STARTCHAR Ca7e5
ENCODING 42981
SWIDTH 666 0
DWIDTH 16 0
BBX 16 14 0 0
BITMAP
1220
1220
1220
fe24
122c
13b0
1a20
3220
d220
1220
12a2
1322
521e
2000
ENDCHAR
STARTCHAR Ca7e6
ENCODING 42982
SWIDTH 666 0
DWIDTH 16 0
BBX 16 14 0 0
BITMAP
101c
11e0
1100
fd00
11fc
1104
1584
1948
3148
d150
1220
1450
588e
2304
ENDCHAR
STARTCHAR Ca7e7
ENCODING 42983
SWIDTH 666 0
DWIDTH 16 0
BBX 16 14 0 0
BITMAP
1000
13f8
1010
10a0
fc40
17fe
1842
3044
d040
1040
1040
1040
5140
2080
ENDCHAR
STARTCHAR Ca7e8
ENCODING 42984
SWIDTH 666 0
DWIDTH 16 0
BBX 16 14 0 0
BITMAP
1020
1020
1020
fc20
1120
153c
1920
3120
d120
1120
1120
1124
57fe
2000
ENDCHAR
STARTCHAR Ca7e9
ENCODING 42985
SWIDTH 666 0
DWIDTH 16 0
BBX 16 14 0 0
BITMAP
1008
103c
11c0
fd00
1104
15fe
1910
3110
d110
1110
1210
1210
5410
2010
ENDCHAR
STARTCHAR Ca7ea
ENCODING 42986
SWIDTH 666 0
DWIDTH 16 0
BBX 16 14 0 0
BITMAP
1020
10b0
10a0
fd10
110e
1204
1c00
33f8
d088
1088
1108
1108
5228
2410
ENDCHAR
STARTCHAR Ca7eb
ENCODING 42987
SWIDTH 666 0
DWIDTH 16 0
BBX 16 14 0 0
BITMAP
1010
11f8
1110
fd10
150e
1a00
33f8
d008
1110
10a0
1040
10b0
510e
2604
ENDCHAR
STARTCHAR Ca7ec
ENCODING 42988
SWIDTH 666 0
DWIDTH 16 0
BBX 16 14 0 0
BITMAP
1008
101c
13e0
1250
fe50
1650
1a50
3250
d248
1248
1444
1444
5842
2040
ENDCHAR
STARTCHAR Ca7ed
ENCODING 42989
SWIDTH 666 0
DWIDTH 16 0
BBX 16 14 0 0
BITMAP
1000
1040
1050
fc9e
1112
1512
1912
1112
3132
5152
9396
1010
5010
2010
ENDCHAR
STARTCHAR Ca7ee
ENCODING 42990
SWIDTH 666 0
DWIDTH 16 0
BBX 16 14 0 0
BITMAP
1020
1020
13fe
fc88
1088
1888
1088
3050
5050
9020
1050
1088
5104
2602
ENDCHAR
STARTCHAR Ca7ef
ENCODING 42991
SWIDTH 666 0
DWIDTH 16 0
BBX 16 14 0 0
BITMAP
0080
fc80
0480
0484
04fe
fd88
8288
8488
8050
8020
8850
b088
c10e
0604
ENDCHAR
STARTCHAR Ca7f0
ENCODING 42992
SWIDTH 666 0
DWIDTH 16 0
BBX 16 14 0 0
BITMAP
0080
0880
fd08
11fc
1210
1410
1110
1120
10c0
1c40
f0a0
4110
020e
0c04
ENDCHAR
STARTCHAR Ca7f1
ENCODING 42993
SWIDTH 666 0
DWIDTH 16 0
BBX 16 14 0 0
BITMAP
0880
0880
1084
15fe
3508
5688
9488
1488
1450
1420
1450
1090
110e
1604
ENDCHAR
STARTCHAR Ca7f2
ENCODING 42994
SWIDTH 666 0
DWIDTH 16 0
BBX 16 14 0 0
BITMAP
1ff0
1010
1ff0
1010
1ff0
0000
3ff8
0100
0104
fffe
0100
0100
0100
0100
ENDCHAR
STARTCHAR Ca7f3
ENCODING 42995
SWIDTH 666 0
DWIDTH 16 0
BBX 16 14 0 0
BITMAP
0004
fffe
0100
0108
3ffc
2108
3ff8
2108
3ff8
2908
0600
0580
1870
e00e
ENDCHAR
STARTCHAR Ca7f4
ENCODING 42996
SWIDTH 666 0
DWIDTH 16 0
BBX 16 14 0 0
BITMAP
0100
fffe
0100
0108
3ffc
2108
2108
3ff8
2388
0540
0930
310e
c104
0100
ENDCHAR
STARTCHAR Ca7f5
ENCODING 42997
SWIDTH 666 0
DWIDTH 16 0
BBX 16 14 0 0
BITMAP
0100
7ffc
0540
0930
310e
c104
0fe0
0040
0188
7ffc
0100
0100
0500
0200
ENDCHAR
STARTCHAR Ca7f6
ENCODING 42998
SWIDTH 666 0
DWIDTH 16 0
BBX 16 14 0 0
BITMAP
0100
0104
fffe
0380
0540
0930
310e
c104
1ff0
1010
1010
1010
1ff0
1010
ENDCHAR
STARTCHAR Ca7f7
ENCODING 42999
SWIDTH 666 0
DWIDTH 16 0
BBX 16 14 0 0
BITMAP
0810
0810
0810
fefe
0810
1810
1c50
2a50
2890
4890
8910
0a10
0850
0820
ENDCHAR
STARTCHAR Ca7f8
ENCODING 43000
SWIDTH 666 0
DWIDTH 16 0
BBX 16 14 0 0
BITMAP
1010
1010
1010
fc10
13fe
3010
3810
5510
5490
9090
1010
1010
1050
1020
ENDCHAR
STARTCHAR Ca7f9
ENCODING 43001
SWIDTH 666 0
DWIDTH 16 0
BBX 16 14 0 0
BITMAP
1020
1020
1020
fe20
1020
31fc
3820
5420
5420
9020
1020
1024
17fe
1000
ENDCHAR
STARTCHAR Ca7fa
ENCODING 43002
SWIDTH 666 0
DWIDTH 16 0
BBX 16 14 0 0
BITMAP
1020
1020
1024
fdfe
1020
3120
3920
54a0
90a0
1040
1060
1090
110e
1604
ENDCHAR
STARTCHAR Ca7fb
ENCODING 43003
SWIDTH 666 0
DWIDTH 16 0
BBX 16 14 0 0
BITMAP
1008
13fc
1008
fc08
1008
3008
3bf8
5608
9200
1200
1202
1202
11fe
1000
ENDCHAR
STARTCHAR Ca7fc
ENCODING 43004
SWIDTH 666 0
DWIDTH 16 0
BBX 16 14 0 0
BITMAP
0808
0810
0820
fec0
1808
1c10
2a20
2ac0
4802
8804
0808
0810
0860
0980
ENDCHAR
STARTCHAR Ca7fd
ENCODING 43005
SWIDTH 666 0
DWIDTH 16 0
BBX 16 14 0 0
BITMAP
1000
1008
11fc
fc20
1020
3024
3bfe
5420
5020
9020
1020
1020
1020
1020
ENDCHAR
STARTCHAR Ca7fe
ENCODING 43006
SWIDTH 666 0
DWIDTH 16 0
BBX 16 14 0 0
BITMAP
1000
1008
11fc
fc20
1020
3020
3820
5420
5420
9020
1024
13fe
1000
1000
ENDCHAR
STARTCHAR Ca840
ENCODING 43072
SWIDTH 666 0
DWIDTH 16 0
BBX 16 14 0 0
BITMAP
1080
1080
1084
fdfe
1204
3004
3884
5444
9004
1004
1004
1004
1028
1010
ENDCHAR
STARTCHAR Ca841
ENCODING 43073
SWIDTH 666 0
DWIDTH 16 0
BBX 16 14 0 0
BITMAP
0100
7ffc
1000
1000
1010
1ff8
0100
0108
7ffc
0520
0910
1108
e10c
0104
ENDCHAR
STARTCHAR Ca842
ENCODING 43074
SWIDTH 666 0
DWIDTH 16 0
BBX 16 14 0 0
BITMAP
0100
0910
09f8
0900
0904
fffe
0100
0910
0d18
1120
2120
00c0
0700
7800
ENDCHAR
STARTCHAR Ca843
ENCODING 43075
SWIDTH 666 0
DWIDTH 16 0
BBX 16 14 0 0
BITMAP
1000
1ffc
2000
4010
1ff8
1210
1110
fffe
1210
1110
2010
3ff8
0020
01c0
ENDCHAR
STARTCHAR Ca844
ENCODING 43076
SWIDTH 666 0
DWIDTH 16 0
BBX 16 14 0 0
BITMAP
0120
0110
7ffc
2108
1918
09a0
0140
0520
0910
110e
6104
0100
0500
0200
ENDCHAR
STARTCHAR Ca845
ENCODING 43077
SWIDTH 666 0
DWIDTH 16 0
BBX 16 14 0 0
BITMAP
3ff8
0100
0104
fffe
0108
0118
7da0
0540
0920
1110
210e
c104
0500
0200
ENDCHAR
STARTCHAR Ca846
ENCODING 43078
SWIDTH 666 0
DWIDTH 16 0
BBX 16 14 0 0
BITMAP
0040
2040
1840
8150
6148
2246
0a42
1448
20c8
e050
2020
20c0
2300
2c00
ENDCHAR
STARTCHAR Ca847
ENCODING 43079
SWIDTH 666 0
DWIDTH 16 0
BBX 16 14 0 0
BITMAP
2000
1880
8060
6120
2120
0100
1508
1504
2506
e902
2908
2108
20f8
2000
ENDCHAR
STARTCHAR Ca848
ENCODING 43080
SWIDTH 666 0
DWIDTH 16 0
BBX 16 14 0 0
BITMAP
4080
3088
17fc
8488
6890
20c0
0940
1140
2140
e140
2242
2442
283e
3000
ENDCHAR
STARTCHAR Ca849
ENCODING 43081
SWIDTH 666 0
DWIDTH 16 0
BBX 16 14 0 0
BITMAP
4004
37fe
1404
8408
4000
21e0
1120
2120
e120
2120
2222
2222
2422
281e
ENDCHAR
STARTCHAR Ca84a
ENCODING 43082
SWIDTH 666 0
DWIDTH 16 0
BBX 16 14 0 0
BITMAP
4008
37fc
1000
8004
4ffe
4920
1120
3120
e120
2220
2222
2422
281e
3000
ENDCHAR
STARTCHAR Ca84b
ENCODING 43083
SWIDTH 666 0
DWIDTH 16 0
BBX 16 14 0 0
BITMAP
0040
4040
2ffe
8040
6040
27fc
0c44
1444
2444
e444
2454
2448
2040
2040
ENDCHAR
STARTCHAR Ca84c
ENCODING 43084
SWIDTH 666 0
DWIDTH 16 0
BBX 16 14 0 0
BITMAP
4008
37fc
1040
8040
6040
2048
0bfc
1040
2040
e040
2040
2044
2ffe
2000
ENDCHAR
STARTCHAR Ca84d
ENCODING 43085
SWIDTH 666 0
DWIDTH 16 0
BBX 16 14 0 0
BITMAP
4080
3080
1088
87fc
6088
2088
0088
0ffe
0880
1140
e120
2210
240e
2804
ENDCHAR
STARTCHAR Ca84e
ENCODING 43086
SWIDTH 666 0
DWIDTH 16 0
BBX 16 14 0 0
BITMAP
4040
3040
1044
87fe
6040
20e0
0950
3358
e248
2444
2846
2040
2040
2040
ENDCHAR
STARTCHAR Ca84f
ENCODING 43087
SWIDTH 666 0
DWIDTH 16 0
BBX 16 14 0 0
BITMAP
4040
3040
1044
87fe
6040
2040
0840
10a0
e110
2190
2248
244e
2804
2000
ENDCHAR
STARTCHAR Ca850
ENCODING 43088
SWIDTH 666 0
DWIDTH 16 0
BBX 16 14 0 0
BITMAP
4040
2044
2ffe
8040
4444
4c44
1444
37fc
e044
2040
2042
2042
203e
2000
ENDCHAR
STARTCHAR Ca851
ENCODING 43089
SWIDTH 666 0
DWIDTH 16 0
BBX 16 14 0 0
BITMAP
4008
33fc
1208
8208
4a08
4a08
1208
33f8
e208
2208
2208
2208
23f8
2208
ENDCHAR
STARTCHAR Ca852
ENCODING 43090
SWIDTH 666 0
DWIDTH 16 0
BBX 16 14 0 0
BITMAP
0040
4040
2040
2044
07fe
8444
6444
2444
07fc
1444
2040
e040
2040
2040
ENDCHAR
STARTCHAR Ca853
ENCODING 43091
SWIDTH 666 0
DWIDTH 16 0
BBX 16 14 0 0
BITMAP
81fc
6108
2108
0208
8410
63f8
2208
0110
0910
10a0
e040
20a0
231e
2c08
ENDCHAR
STARTCHAR Ca854
ENCODING 43092
SWIDTH 666 0
DWIDTH 16 0
BBX 16 14 0 0
BITMAP
0200
4208
33fc
1400
87f8
6800
27f0
0010
2010
e010
2010
200a
200a
2006
ENDCHAR
STARTCHAR Ca855
ENCODING 43093
SWIDTH 666 0
DWIDTH 16 0
BBX 16 14 0 0
BITMAP
403c
37c0
1040
8040
6044
2ffe
0840
1040
2040
e0a0
2110
2208
240e
2804
ENDCHAR
STARTCHAR Ca856
ENCODING 43094
SWIDTH 666 0
DWIDTH 16 0
BBX 16 14 0 0
BITMAP
4008
37fc
1108
8110
6110
293c
0984
1148
6250
2220
2450
2488
290e
2204
ENDCHAR
STARTCHAR Ca857
ENCODING 43095
SWIDTH 666 0
DWIDTH 16 0
BBX 16 14 0 0
BITMAP
4120
3120
1110
8210
640e
2804
07f0
1110
2110
e110
2110
2210
24a0
2840
ENDCHAR
STARTCHAR Ca858
ENCODING 43096
SWIDTH 666 0
DWIDTH 16 0
BBX 16 14 0 0
BITMAP
4100
3080
1004
8ffe
4080
4880
10a0
309c
e084
2080
2080
2080
2080
2080
ENDCHAR
STARTCHAR Ca859
ENCODING 43097
SWIDTH 666 0
DWIDTH 16 0
BBX 16 14 0 0
BITMAP
4080
3044
17fe
8000
4810
49f8
1110
3110
e110
2110
2212
2212
240e
2800
ENDCHAR
STARTCHAR Ca85a
ENCODING 43098
SWIDTH 666 0
DWIDTH 16 0
BBX 16 14 0 0
BITMAP
4080
3044
17fe
8008
4a08
4a08
1110
30a0
e040
20a0
2110
2208
240e
2804
ENDCHAR
STARTCHAR Ca85b
ENCODING 43099
SWIDTH 666 0
DWIDTH 16 0
BBX 16 14 0 0
BITMAP
8004
6ffe
2100
0100
81fc
6108
2108
0908
1108
23f8
c008
4010
4010
4ffe
ENDCHAR
STARTCHAR Ca85c
ENCODING 43100
SWIDTH 666 0
DWIDTH 16 0
BBX 16 14 0 0
BITMAP
4ffe
3040
1040
8244
627e
2244
0a44
33fc
e004
2004
2004
2004
2028
2010
ENDCHAR
STARTCHAR Ca85d
ENCODING 43101
SWIDTH 666 0
DWIDTH 16 0
BBX 16 14 0 0
BITMAP
8420
6420
2420
0420
8420
67be
2420
0420
1420
2420
c420
4422
45a2
4e3e
ENDCHAR
STARTCHAR Ca85e
ENCODING 43102
SWIDTH 666 0
DWIDTH 16 0
BBX 16 14 0 0
BITMAP
403c
33c0
1200
8200
6204
2bfe
0a10
1210
1210
e210
2210
2410
2810
2010
ENDCHAR
STARTCHAR Ca85f
ENCODING 43103
SWIDTH 666 0
DWIDTH 16 0
BBX 16 14 0 0
BITMAP
1040
1040
1240
5440
5848
53fc
9040
1040
1040
1040
2840
2440
4444
87fe
ENDCHAR
STARTCHAR Ca860
ENCODING 43104
SWIDTH 666 0
DWIDTH 16 0
BBX 16 14 0 0
BITMAP
1040
1040
1244
54fe
5904
5204
9084
1044
1044
2804
2404
4444
8028
0010
ENDCHAR
STARTCHAR Ca861
ENCODING 43105
SWIDTH 666 0
DWIDTH 16 0
BBX 16 14 0 0
BITMAP
0100
7ffe
4002
8104
0100
1110
1118
3160
0280
0280
0440
0830
100e
6004
ENDCHAR
STARTCHAR Ca862
ENCODING 43106
SWIDTH 666 0
DWIDTH 16 0
BBX 16 14 0 0
BITMAP
0420
07f0
0820
10c0
0320
0c10
110e
6924
0930
0920
1140
06c0
1830
e00e
ENDCHAR
STARTCHAR Ca863
ENCODING 43107
SWIDTH 666 0
DWIDTH 16 0
BBX 16 14 0 0
BITMAP
0100
7ffe
4102
9104
1120
1ff0
1100
2100
0104
fffe
0100
0100
0100
0100
ENDCHAR
STARTCHAR Ca864
ENCODING 43108
SWIDTH 666 0
DWIDTH 16 0
BBX 16 14 0 0
BITMAP
0820
4820
4820
7f20
4820
89fc
0820
0e20
1820
e820
0820
0824
0bfe
0800
ENDCHAR
STARTCHAR Ca865
ENCODING 43109
SWIDTH 666 0
DWIDTH 16 0
BBX 16 14 0 0
BITMAP
1020
5120
5120
7922
97fe
1122
1124
1928
1120
3120
d120
1102
1102
31fe
ENDCHAR
STARTCHAR Ca866
ENCODING 43110
SWIDTH 666 0
DWIDTH 16 0
BBX 16 14 0 0
BITMAP
0440
4440
2840
1044
294c
4950
8960
1840
2840
48a0
88a0
0910
520e
2404
ENDCHAR
STARTCHAR Ca867
ENCODING 43111
SWIDTH 666 0
DWIDTH 16 0
BBX 16 14 0 0
BITMAP
8004
45fe
2820
1020
2820
4820
09fc
1820
2820
4820
8820
0824
53fe
2000
ENDCHAR
STARTCHAR Ca868
ENCODING 43112
SWIDTH 666 0
DWIDTH 16 0
BBX 16 14 0 0
BITMAP
0440
fe48
10fc
1088
1088
7d10
1210
1020
1e50
f050
4088
0108
0206
0c00
ENDCHAR
STARTCHAR Ca869
ENCODING 43113
SWIDTH 666 0
DWIDTH 16 0
BBX 16 14 0 0
BITMAP
3ff8
0420
0240
0188
3ffc
2108
2108
3ff8
2108
3ff8
2108
2108
2128
2010
ENDCHAR
STARTCHAR Ca86a
ENCODING 43114
SWIDTH 666 0
DWIDTH 16 0
BBX 16 14 0 0
BITMAP
0120
0110
fffe
0100
0108
3ffc
2108
3ff8
2108
3ff8
2108
2108
2128
2010
ENDCHAR
STARTCHAR Ca86b
ENCODING 43115
SWIDTH 666 0
DWIDTH 16 0
BBX 16 14 0 0
BITMAP
0008
3ffc
2108
3ff8
2108
3ff8
0100
0104
7ffe
0204
0204
0404
1828
6010
ENDCHAR
STARTCHAR Ca86c
ENCODING 43116
SWIDTH 666 0
DWIDTH 16 0
BBX 16 14 0 0
BITMAP
0800
0804
1ffe
1004
2044
5fe4
9244
1fc4
1244
1fc4
1044
0004
0014
0008
ENDCHAR
STARTCHAR Ca86d
ENCODING 43117
SWIDTH 666 0
DWIDTH 16 0
BBX 16 14 0 0
BITMAP
0200
1ff0
1010
1010
1ff0
1010
1010
1ff0
0400
0404
fffe
0400
0400
03fc
ENDCHAR
STARTCHAR Ca86e
ENCODING 43118
SWIDTH 666 0
DWIDTH 16 0
BBX 16 14 0 0
BITMAP
0000
f804
8ffe
8820
f820
8820
8820
f820
8820
8820
8820
f820
88a0
0040
ENDCHAR
STARTCHAR Ca86f
ENCODING 43119
SWIDTH 666 0
DWIDTH 16 0
BBX 16 14 0 0
BITMAP
0400
0820
1010
3ff8
0808
0810
1ff8
2100
0104
fffe
0440
0830
101c
6008
ENDCHAR
STARTCHAR Ca870
ENCODING 43120
SWIDTH 666 0
DWIDTH 16 0
BBX 16 14 0 0
BITMAP
0420
0e20
f820
0820
ff20
1c40
1a40
2888
4884
8902
0bfe
0902
0802
0800
ENDCHAR
STARTCHAR Ca871
ENCODING 43121
SWIDTH 666 0
DWIDTH 16 0
BBX 16 14 0 0
BITMAP
1fe0
0100
0108
7ffc
0540
0930
310e
cfe4
0420
0470
0810
0810
10a0
2040
ENDCHAR
STARTCHAR Ca872
ENCODING 43122
SWIDTH 666 0
DWIDTH 16 0
BBX 16 14 0 0
BITMAP
3ff0
0100
0104
fffe
0540
0920
1110
27ce
c444
0440
0842
0842
103e
6000
ENDCHAR
STARTCHAR Ca873
ENCODING 43123
SWIDTH 666 0
DWIDTH 16 0
BBX 16 14 0 0
BITMAP
0200
0104
7ffe
4004
8828
1410
240c
0440
3fe0
0440
0842
0842
1042
603e
ENDCHAR
STARTCHAR Ca874
ENCODING 43124
SWIDTH 666 0
DWIDTH 16 0
BBX 16 14 0 0
BITMAP
7ff8
0400
0410
0820
3fc0
0100
0220
3ff8
0108
0920
0910
1108
2508
0200
ENDCHAR
STARTCHAR Ca875
ENCODING 43125
SWIDTH 666 0
DWIDTH 16 0
BBX 16 14 0 0
BITMAP
7ffe
4442
8824
1010
0000
3ff8
0100
0100
0104
fffe
0100
0100
0100
0100
ENDCHAR
STARTCHAR Ca876
ENCODING 43126
SWIDTH 666 0
DWIDTH 16 0
BBX 16 14 0 0
BITMAP
1110
0920
0540
1ff0
1010
1010
1ff0
1010
1010
1ff0
1010
1010
1050
1020
ENDCHAR
STARTCHAR Ca877
ENCODING 43127
SWIDTH 666 0
DWIDTH 16 0
BBX 16 14 0 0
BITMAP
0100
fffe
1000
1000
1ff0
0000
1ff0
1010
1ff0
1010
1ff0
1010
1050
1020
ENDCHAR
STARTCHAR Ca878
ENCODING 43128
SWIDTH 666 0
DWIDTH 16 0
BBX 16 14 0 0
BITMAP
3c08
25fc
2420
2420
3c20
2424
27fe
2420
3c20
2420
2420
4420
5420
8820
ENDCHAR
STARTCHAR Ca879
ENCODING 43129
SWIDTH 666 0
DWIDTH 16 0
BBX 16 14 0 0
BITMAP
0408
3e08
2408
2408
3dfe
2408
2488
3c48
2448
2408
2408
4408
9428
0810
ENDCHAR
STARTCHAR Ca87a
ENCODING 43130
SWIDTH 666 0
DWIDTH 16 0
BBX 16 14 0 0
BITMAP
0000
3c08
25fc
2420
3c20
2420
2420
3c20
2420
2420
2424
47fe
5400
8800
ENDCHAR
STARTCHAR Ca87b
ENCODING 43131
SWIDTH 666 0
DWIDTH 16 0
BBX 16 14 0 0
BITMAP
0420
3e20
2420
2420
3c20
25fc
2420
3c20
2420
2420
2424
47fe
5400
8800
ENDCHAR
STARTCHAR Ca87c
ENCODING 43132
SWIDTH 666 0
DWIDTH 16 0
BBX 16 14 0 0
BITMAP
0100
fffe
0400
0810
3ff8
0008
1ff0
1010
1ff0
1010
1ff0
1010
1050
1020
ENDCHAR
STARTCHAR Ca87d
ENCODING 43133
SWIDTH 666 0
DWIDTH 16 0
BBX 16 14 0 0
BITMAP
0400
0220
3ff0
2020
3fe0
2020
3fe0
2410
2420
2240
2180
2470
380e
6004
ENDCHAR
STARTCHAR Ca87e
ENCODING 43134
SWIDTH 666 0
DWIDTH 16 0
BBX 16 14 0 0
BITMAP
0820
0824
fffe
0820
0200
0104
fffe
1000
1000
1000
1000
1000
1008
1ffc
ENDCHAR
STARTCHAR Ca8a1
ENCODING 43169
SWIDTH 666 0
DWIDTH 16 0
BBX 16 14 0 0
BITMAP
0820
0824
fffe
0820
3ff8
0100
0104
fffe
0100
0100
0100
0100
0500
0200
ENDCHAR
STARTCHAR Ca8a2
ENCODING 43170
SWIDTH 666 0
DWIDTH 16 0
BBX 16 14 0 0
BITMAP
0440
0444
fffe
0440
1008
1ffc
1008
2408
4308
8108
0008
0008
0050
0020
ENDCHAR
STARTCHAR Ca8a3
ENCODING 43171
SWIDTH 666 0
DWIDTH 16 0
BBX 16 14 0 0
BITMAP
0010
1ff8
1010
1110
1110
1110
1110
1110
1210
1290
0480
0882
1082
607e
ENDCHAR
STARTCHAR Ca8a4
ENCODING 43172
SWIDTH 666 0
DWIDTH 16 0
BBX 16 14 0 0
BITMAP
0fe0
1040
2088
5ffc
9108
1108
1ff8
1108
1108
1ff8
1108
1108
2128
4010
ENDCHAR
STARTCHAR Ca8a5
ENCODING 43173
SWIDTH 666 0
DWIDTH 16 0
BBX 16 14 0 0
BITMAP
0100
0080
0082
7fff
0000
0ff8
0000
0ff8
0000
0ff8
0808
0808
0ff8
0808
ENDCHAR
STARTCHAR Ca8a6
ENCODING 43174
SWIDTH 666 0
DWIDTH 16 0
BBX 16 14 0 0
BITMAP
0840
0830
1018
2108
0280
0440
0830
300e
cfe4
0820
0820
0820
0fe0
0820
ENDCHAR
STARTCHAR Ca8a7
ENCODING 43175
SWIDTH 666 0
DWIDTH 16 0
BBX 16 14 0 0
BITMAP
0008
7ffc
0000
0010
1ff8
1010
1010
1010
1ff0
0000
0820
0440
0484
fffe
ENDCHAR
STARTCHAR Ca8a8
ENCODING 43176
SWIDTH 666 0
DWIDTH 16 0
BBX 16 14 0 0
BITMAP
fffe
0200
0608
0918
11a0
62c0
04c0
39a0
0290
048e
1884
6080
0280
0100
ENDCHAR
STARTCHAR Ca8a9
ENCODING 43177
SWIDTH 666 0
DWIDTH 16 0
BBX 16 14 0 0
BITMAP
1ff0
1010
1010
1110
1110
1110
1110
1110
1110
1210
0240
0420
0810
300c
ENDCHAR
STARTCHAR Ca8aa
ENCODING 43178
SWIDTH 666 0
DWIDTH 16 0
BBX 16 14 0 0
BITMAP
0100
0110
3ff8
0100
0104
fffe
0440
1450
1448
2446
4842
8840
1140
2080
ENDCHAR
STARTCHAR Ca8ab
ENCODING 43179
SWIDTH 666 0
DWIDTH 16 0
BBX 16 14 0 0
BITMAP
0100
0110
3ff8
0100
0104
fffe
0100
1110
11f8
1100
1100
2900
4500
83fe
ENDCHAR
STARTCHAR Ca8ac
ENCODING 43180
SWIDTH 666 0
DWIDTH 16 0
BBX 16 14 0 0
BITMAP
0010
1ff8
1010
1010
1010
1ff0
1110
0100
1100
11f8
1100
2900
4500
83fe
ENDCHAR
STARTCHAR Ca8ad
ENCODING 43181
SWIDTH 666 0
DWIDTH 16 0
BBX 16 14 0 0
BITMAP
0100
0ff0
0810
0ff0
0810
0ff2
0814
0818
7ff0
0090
0310
1c10
e050
0020
ENDCHAR
STARTCHAR Ca8ae
ENCODING 43182
SWIDTH 666 0
DWIDTH 16 0
BBX 16 14 0 0
BITMAP
0200
0200
7ffc
0400
0900
1100
2100
3ff0
0100
0100
fffe
0100
0100
0100
ENDCHAR
STARTCHAR Ca8af
ENCODING 43183
SWIDTH 666 0
DWIDTH 16 0
BBX 16 14 0 0
BITMAP
0200
0110
3ff8
0820
0420
0444
fffe
0100
0108
7ffc
0100
0100
0100
0100
ENDCHAR
STARTCHAR Ca8b0
ENCODING 43184
SWIDTH 666 0
DWIDTH 16 0
BBX 16 14 0 0
BITMAP
0010
3ff8
2000
3ff0
2000
3ffc
2a08
2910
28a0
2840
4830
490e
8e04
0800
ENDCHAR
STARTCHAR Ca8b1
ENCODING 43185
SWIDTH 666 0
DWIDTH 16 0
BBX 16 14 0 0
BITMAP
0010
43f8
3040
1040
0048
07fc
f040
1040
1040
1040
1140
1080
2806
47fc
ENDCHAR
STARTCHAR Ca8b2
ENCODING 43186
SWIDTH 666 0
DWIDTH 16 0
BBX 16 14 0 0
BITMAP
8040
4440
2442
effe
2444
4444
8448
4440
2440
2402
2402
23fe
5000
8ffe
ENDCHAR
STARTCHAR Ca8b3
ENCODING 43187
SWIDTH 666 0
DWIDTH 16 0
BBX 16 14 0 0
BITMAP
47f8
3010
1110
0110
0150
f7f0
1110
1110
1112
110a
1106
2900
4406
03fc
ENDCHAR
STARTCHAR Ca8b4
ENCODING 43188
SWIDTH 666 0
DWIDTH 16 0
BBX 16 14 0 0
BITMAP
0100
4100
23fe
2400
0004
f3fc
2008
2030
20c0
2102
2202
21fc
5000
8ffe
ENDCHAR
STARTCHAR Ca8b5
ENCODING 43189
SWIDTH 666 0
DWIDTH 16 0
BBX 16 14 0 0
BITMAP
4124
3124
1248
0248
0490
f920
1490
1248
1124
1124
1124
2800
4406
03fc
ENDCHAR
STARTCHAR Ca8b6
ENCODING 43190
SWIDTH 666 0
DWIDTH 16 0
BBX 16 14 0 0
BITMAP
1ff0
1010
1010
1ff0
0000
7ff8
4108
4108
7ff8
4008
4000
4002
4002
3ffc
ENDCHAR
STARTCHAR Ca8b7
ENCODING 43191
SWIDTH 666 0
DWIDTH 16 0
BBX 16 14 0 0
BITMAP
7f7c
1244
1244
1248
1250
ffc8
1244
1242
1242
1262
2254
2248
4240
0240
ENDCHAR
STARTCHAR Ca8b8
ENCODING 43192
SWIDTH 666 0
DWIDTH 16 0
BBX 16 14 0 0
BITMAP
0200
7f7c
2444
2448
2448
7fd0
0c4c
1442
2442
4462
8454
0448
1440
0840
ENDCHAR
STARTCHAR Ca8b9
ENCODING 43193
SWIDTH 666 0
DWIDTH 16 0
BBX 16 14 0 0
BITMAP
087c
0844
ff44
0848
0848
7e50
0848
0844
ff44
0844
1064
1058
2040
4040
ENDCHAR
STARTCHAR Ca8ba
ENCODING 43194
SWIDTH 666 0
DWIDTH 16 0
BBX 16 14 0 0
BITMAP
0004
fe7c
1244
1244
fe48
1258
1244
fe42
1242
2262
2254
4a48
8440
0040
ENDCHAR
STARTCHAR Ca8bb
ENCODING 43195
SWIDTH 666 0
DWIDTH 16 0
BBX 16 14 0 0
BITMAP
0004
fffe
0440
0444
7ffe
4444
4444
4444
487c
5004
5ff4
4004
7ffc
4004
ENDCHAR
STARTCHAR Ca8bc
ENCODING 43196
SWIDTH 666 0
DWIDTH 16 0
BBX 16 14 0 0
BITMAP
0008
3ff0
0100
410c
3930
0100
fffe
0380
0540
0920
3110
c10e
0100
0100
ENDCHAR
STARTCHAR Ca8bd
ENCODING 43197
SWIDTH 666 0
DWIDTH 16 0
BBX 16 14 0 0
BITMAP
0008
3ffc
2108
2108
3ff8
2108
2108
3ff8
0100
0108
7ffc
0100
0104
fffe
ENDCHAR
STARTCHAR Ca8be
ENCODING 43198
SWIDTH 666 0
DWIDTH 16 0
BBX 16 14 0 0
BITMAP
0080
f840
9024
97fe
a100
9108
91fc
8908
8908
d108
a208
8408
8850
8020
ENDCHAR
STARTCHAR Ca8bf
ENCODING 43199
SWIDTH 666 0
DWIDTH 16 0
BBX 16 14 0 0
BITMAP
0008
f9fc
8800
9004
a7fe
9090
9090
8890
8890
d090
a092
8112
8212
8c0e
ENDCHAR
STARTCHAR Ca8c0
ENCODING 43200
SWIDTH 666 0
DWIDTH 16 0
BBX 16 14 0 0
BITMAP
7910
4910
4910
57fc
5110
6110
5110
5ffe
4910
6910
5110
4210
4210
4410
ENDCHAR
STARTCHAR Ca8c1
ENCODING 43201
SWIDTH 666 0
DWIDTH 16 0
BBX 16 14 0 0
BITMAP
781c
49e0
4900
5100
51fc
6104
5188
5948
4930
6a20
5250
4488
490e
5204
ENDCHAR
STARTCHAR Ca8c2
ENCODING 43202
SWIDTH 666 0
DWIDTH 16 0
BBX 16 14 0 0
BITMAP
0040
f820
93fe
a000
9000
88f8
8888
8888
8888
c888
b088
808a
810a
860e
ENDCHAR
STARTCHAR Ca8c3
ENCODING 43203
SWIDTH 666 0
DWIDTH 16 0
BBX 16 14 0 0
BITMAP
1010
0820
0440
7ffc
0820
0820
0824
fffe
0820
0820
1020
1020
2020
4020
ENDCHAR
STARTCHAR Ca8c4
ENCODING 43204
SWIDTH 666 0
DWIDTH 16 0
BBX 16 14 0 0
BITMAP
0070
1f80
0100
0104
fffe
0100
0924
092c
7930
0922
3922
c91e
0100
0100
ENDCHAR
STARTCHAR Ca8c5
ENCODING 43205
SWIDTH 666 0
DWIDTH 16 0
BBX 16 14 0 0
BITMAP
0f40
f040
4940
2940
2240
ff40
0240
0c40
0b40
1c40
e840
0842
2842
103e
ENDCHAR
STARTCHAR Ca8c6
ENCODING 43206
SWIDTH 666 0
DWIDTH 16 0
BBX 16 14 0 0
BITMAP
0100
fffe
0100
3ff8
2108
3ff8
0100
3ff8
0108
fffe
0108
3ff8
0100
0700
ENDCHAR
STARTCHAR Ca8c7
ENCODING 43207
SWIDTH 666 0
DWIDTH 16 0
BBX 16 14 0 0
BITMAP
0440
0440
2440
274c
2470
2442
2742
fc3e
4000
0020
1ff0
0000
0008
7ffc
ENDCHAR
STARTCHAR Ca8c8
ENCODING 43208
SWIDTH 666 0
DWIDTH 16 0
BBX 16 14 0 0
BITMAP
7ffc
0440
0440
0440
0440
4448
244c
3450
1460
0440
0440
0444
fffe
0000
ENDCHAR
STARTCHAR Ca8c9
ENCODING 43209
SWIDTH 666 0
DWIDTH 16 0
BBX 16 14 0 0
BITMAP
0100
7ffc
0000
1ff0
1010
1ff0
0000
1ff0
0040
0080
7ffe
0080
0480
0300
ENDCHAR
STARTCHAR Ca8ca
ENCODING 43210
SWIDTH 666 0
DWIDTH 16 0
BBX 16 14 0 0
BITMAP
0200
0104
fffe
0000
1ff0
1010
1010
1ff0
0100
0920
1918
210c
4504
0200
ENDCHAR
STARTCHAR Ca8cb
ENCODING 43211
SWIDTH 666 0
DWIDTH 16 0
BBX 16 14 0 0
BITMAP
1208
1110
10a0
27fc
6040
a040
23f8
2040
2044
2ffe
2040
2040
2040
2040
ENDCHAR
STARTCHAR Ca8cc
ENCODING 43212
SWIDTH 666 0
DWIDTH 16 0
BBX 16 14 0 0
BITMAP
0880
0840
0844
17fe
3080
5140
9148
1350
1520
1920
1110
114e
1184
1100
ENDCHAR
STARTCHAR Ca8cd
ENCODING 43213
SWIDTH 666 0
DWIDTH 16 0
BBX 16 14 0 0
BITMAP
0840
0848
17fc
1040
3044
5ffe
9010
1010
17fc
1110
1090
1010
1050
1020
ENDCHAR
STARTCHAR Ca8ce
ENCODING 43214
SWIDTH 666 0
DWIDTH 16 0
BBX 16 14 0 0
BITMAP
0840
0840
17fc
1040
3044
5ffe
9040
1040
17fc
1040
1040
1044
1ffe
1000
ENDCHAR
STARTCHAR Ca8cf
ENCODING 43215
SWIDTH 666 0
DWIDTH 16 0
BBX 16 14 0 0
BITMAP
1040
1044
1ffe
2040
67fc
a444
2444
27fc
2244
2180
20c0
2130
260e
2804
ENDCHAR
STARTCHAR Ca8d0
ENCODING 43216
SWIDTH 666 0
DWIDTH 16 0
BBX 16 14 0 0
BITMAP
0880
0884
17ec
1090
30a0
50c4
9ffe
1100
1700
19f8
1100
1100
1100
10fc
ENDCHAR
STARTCHAR Ca8d1
ENCODING 43217
SWIDTH 666 0
DWIDTH 16 0
BBX 16 14 0 0
BITMAP
1210
1210
2210
2ffc
6210
a210
2210
3ffe
2000
2210
2208
240c
2804
2000
ENDCHAR
STARTCHAR Ca8d2
ENCODING 43218
SWIDTH 666 0
DWIDTH 16 0
BBX 16 14 0 0
BITMAP
1004
1fe4
2204
2214
67d4
a454
2854
3494
2294
2114
2204
2404
2814
2008
ENDCHAR
STARTCHAR Ca8d3
ENCODING 43219
SWIDTH 666 0
DWIDTH 16 0
BBX 16 14 0 0
BITMAP
0100
0108
7ffc
0100
2110
1930
0944
fffe
0380
0540
0930
311e
c104
0100
ENDCHAR
STARTCHAR Ca8d4
ENCODING 43220
SWIDTH 666 0
DWIDTH 16 0
BBX 16 14 0 0
BITMAP
0808
0bfc
1208
1208
33f8
5000
9248
1248
1248
1248
124a
144a
184e
1000
ENDCHAR
STARTCHAR Ca8d5
ENCODING 43221
SWIDTH 666 0
DWIDTH 16 0
BBX 16 14 0 0
BITMAP
0800
0804
0ffe
1040
1040
3088
53fc
9208
1208
13f8
1208
1208
13f8
1208
ENDCHAR
STARTCHAR Ca8d6
ENCODING 43222
SWIDTH 666 0
DWIDTH 16 0
BBX 16 14 0 0
BITMAP
1208
1110
20a0
47fc
a110
2110
2110
2ffe
2110
2110
2110
2210
2410
2810
ENDCHAR
STARTCHAR Ca8d7
ENCODING 43223
SWIDTH 666 0
DWIDTH 16 0
BBX 16 14 0 0
BITMAP
0880
09f8
1310
10a0
3040
5090
9110
1620
107e
1084
1348
1030
1060
1180
ENDCHAR
STARTCHAR Ca8d8
ENCODING 43224
SWIDTH 666 0
DWIDTH 16 0
BBX 16 14 0 0
BITMAP
1008
1ffc
2808
2ff8
6888
a888
2be8
2aa8
2aa8
2aa8
2aea
288a
3086
2080
ENDCHAR
STARTCHAR Ca8d9
ENCODING 43225
SWIDTH 666 0
DWIDTH 16 0
BBX 16 14 0 0
BITMAP
08a0
08a0
14a4
12ac
32b0
50a0
91b0
16ac
10a0
1120
1122
1222
141e
1800
ENDCHAR
STARTCHAR Ca8da
ENCODING 43226
SWIDTH 666 0
DWIDTH 16 0
BBX 16 14 0 0
BITMAP
0100
0100
0280
0440
0830
301e
c824
0860
0980
0e00
0800
0808
0808
07f8
ENDCHAR
STARTCHAR Ca8db
ENCODING 43227
SWIDTH 666 0
DWIDTH 16 0
BBX 16 14 0 0
BITMAP
0940
0920
1210
140e
3bf4
5210
9210
13f0
1210
1210
13f0
1210
1250
1220
ENDCHAR
STARTCHAR Ca8dc
ENCODING 43228
SWIDTH 666 0
DWIDTH 16 0
BBX 16 14 0 0
BITMAP
0a40
0a48
13fc
1440
3840
5044
9ffe
10e0
1150
1248
144e
1844
1040
1040
ENDCHAR
STARTCHAR Ca8dd
ENCODING 43229
SWIDTH 666 0
DWIDTH 16 0
BBX 16 14 0 0
BITMAP
0880
0884
17fe
1100
3108
53fc
9508
19f8
1108
11f8
1108
1108
1128
1110
ENDCHAR
STARTCHAR Ca8de
ENCODING 43230
SWIDTH 666 0
DWIDTH 16 0
BBX 16 14 0 0
BITMAP
10e0
1110
2208
4404
a802
23f8
2040
2040
2050
23f8
2040
2040
2044
2ffe
ENDCHAR
STARTCHAR Ca8df
ENCODING 43231
SWIDTH 666 0
DWIDTH 16 0
BBX 16 14 0 0
BITMAP
0800
0fe0
1040
2088
7ffc
a108
2108
3ff8
2288
0480
04a2
0892
1082
607e
ENDCHAR
STARTCHAR Ca8e0
ENCODING 43232
SWIDTH 666 0
DWIDTH 16 0
BBX 16 14 0 0
BITMAP
0440
0440
0440
0440
0440
0440
0440
0440
0840
0842
1042
2042
403e
8000
ENDCHAR
STARTCHAR Ca8e1
ENCODING 43233
SWIDTH 666 0
DWIDTH 16 0
BBX 16 14 0 0
BITMAP
3c78
2448
2448
27c8
2008
2008
3ff8
2448
0440
0440
0842
1042
203e
4000
ENDCHAR
STARTCHAR Ca8e2
ENCODING 43234
SWIDTH 666 0
DWIDTH 16 0
BBX 16 14 0 0
BITMAP
0004
fffe
0440
0444
7ffe
4444
4444
4444
4444
4aa4
5114
610c
4014
4008
ENDCHAR
STARTCHAR Ca8e3
ENCODING 43235
SWIDTH 666 0
DWIDTH 16 0
BBX 16 14 0 0
BITMAP
0020
0ff0
0820
0fe0
0820
0fe0
0820
0fe0
0824
fffe
0440
0c20
1018
2008
ENDCHAR
STARTCHAR Ca8e4
ENCODING 43236
SWIDTH 666 0
DWIDTH 16 0
BBX 16 14 0 0
BITMAP
0820
0820
3ff8
0820
0fe0
0820
0fe0
0820
0824
fffe
0000
0820
1818
2008
ENDCHAR
STARTCHAR Ca8e5
ENCODING 43237
SWIDTH 666 0
DWIDTH 16 0
BBX 16 14 0 0
BITMAP
0480
0480
0490
3ff8
2490
2490
3ff0
2490
2490
fffe
0840
1820
2010
4010
ENDCHAR
STARTCHAR Ca8e6
ENCODING 43238
SWIDTH 666 0
DWIDTH 16 0
BBX 16 14 0 0
BITMAP
0044
4fe4
2204
1214
13d4
0254
1454
1454
27d4
e894
2104
2204
2414
2808
ENDCHAR
STARTCHAR Ca8e7
ENCODING 43239
SWIDTH 666 0
DWIDTH 16 0
BBX 16 14 0 0
BITMAP
1ff0
0020
0040
8182
9112
8932
8542
8102
8932
b11a
8502
8202
fffe
8002
ENDCHAR
STARTCHAR Ca8e8
ENCODING 43240
SWIDTH 666 0
DWIDTH 16 0
BBX 16 14 0 0
BITMAP
0802
0482
ffc2
0412
0892
3f12
1212
0492
1912
6212
0602
1982
e08a
0004
ENDCHAR
STARTCHAR Ca8e9
ENCODING 43241
SWIDTH 666 0
DWIDTH 16 0
BBX 16 14 0 0
BITMAP
0920
0540
3ff8
0100
0100
7ffc
0440
0820
3ff8
c226
0220
0420
08a0
1040
ENDCHAR
STARTCHAR Ca8ea
ENCODING 43242
SWIDTH 666 0
DWIDTH 16 0
BBX 16 14 0 0
BITMAP
0044
3fe4
2044
3fd4
2214
2214
3fd4
3254
3254
5254
5344
9284
0214
0208
ENDCHAR
STARTCHAR Ca8eb
ENCODING 43243
SWIDTH 666 0
DWIDTH 16 0
BBX 16 14 0 0
BITMAP
0802
0902
ff82
0812
7f12
4912
4912
4b12
1c12
2a12
4982
8882
080a
0804
ENDCHAR
STARTCHAR Ca8ec
ENCODING 43244
SWIDTH 666 0
DWIDTH 16 0
BBX 16 14 0 0
BITMAP
0102
7f82
1012
2212
4112
7f92
0892
0812
0812
7f12
0812
0f82
f80a
4004
ENDCHAR
STARTCHAR Ca8ed
ENCODING 43245
SWIDTH 666 0
DWIDTH 16 0
BBX 16 14 0 0
BITMAP
0182
7e02
0802
0912
ff92
0812
0812
0912
7f92
4112
4112
4102
7f0a
4104
ENDCHAR
STARTCHAR Ca8ee
ENCODING 43246
SWIDTH 666 0
DWIDTH 16 0
BBX 16 14 0 0
BITMAP
0402
2402
3f92
2412
4412
ffd2
0412
3f92
2492
2482
2682
2502
040a
0404
ENDCHAR
STARTCHAR Ca8ef
ENCODING 43247
SWIDTH 666 0
DWIDTH 16 0
BBX 16 14 0 0
BITMAP
3f02
2202
2212
2212
2992
4812
ff92
0812
1c12
2b12
4902
8802
080a
0804
ENDCHAR
STARTCHAR Ca8f0
ENCODING 43248
SWIDTH 666 0
DWIDTH 16 0
BBX 16 14 0 0
BITMAP
1020
0920
ffa4
10fe
2224
2424
7c24
0824
1244
2444
4c44
9284
22a8
0110
ENDCHAR
STARTCHAR Ca8f1
ENCODING 43249
SWIDTH 666 0
DWIDTH 16 0
BBX 16 14 0 0
BITMAP
0000
ff90
8010
be10
887e
8812
8812
be12
8812
8812
8812
ff12
8022
ffc4
ENDCHAR
STARTCHAR Ca8f2
ENCODING 43250
SWIDTH 666 0
DWIDTH 16 0
BBX 16 14 0 0
BITMAP
0200
0108
7ffc
0820
0820
1450
2288
0100
0104
fffe
0100
0100
0100
0100
ENDCHAR
STARTCHAR Ca8f3
ENCODING 43251
SWIDTH 666 0
DWIDTH 16 0
BBX 16 14 0 0
BITMAP
2080
2080
2088
fbfc
2088
2088
248c
248a
2908
2108
2108
2208
2428
2010
ENDCHAR
STARTCHAR Ca8f4
ENCODING 43252
SWIDTH 666 0
DWIDTH 16 0
BBX 16 14 0 0
BITMAP
0100
01f8
0100
1ff0
1010
1ff0
1010
1ff0
1110
0104
fffe
0100
0100
0100
ENDCHAR
STARTCHAR Ca8f5
ENCODING 43253
SWIDTH 666 0
DWIDTH 16 0
BBX 16 14 0 0
BITMAP
0100
0210
1ff8
1110
1ff0
1110
1210
1ff0
0480
0884
fffe
0080
0080
0080
ENDCHAR
STARTCHAR Ca8f6
ENCODING 43254
SWIDTH 666 0
DWIDTH 16 0
BBX 16 14 0 0
BITMAP
0840
0a40
7f40
0840
0960
ffd0
0848
7f44
0840
0840
0f40
7840
2040
0040
ENDCHAR
STARTCHAR Ca8f7
ENCODING 43255
SWIDTH 666 0
DWIDTH 16 0
BBX 16 14 0 0
BITMAP
0100
1110
0920
7ffc
0200
fffe
0820
1ff0
282e
c824
0920
08c8
0808
07f8
ENDCHAR
STARTCHAR Ca8f8
ENCODING 43256
SWIDTH 666 0
DWIDTH 16 0
BBX 16 14 0 0
BITMAP
2000
2204
3f7e
4844
8844
ff44
0844
2844
2e44
2864
2f54
f848
4040
0040
ENDCHAR
STARTCHAR Ca8f9
ENCODING 43257
SWIDTH 666 0
DWIDTH 16 0
BBX 16 14 0 0
BITMAP
1000
107e
2022
4022
ff22
5522
5522
5522
5522
5522
552c
5520
ffa0
0020
ENDCHAR
STARTCHAR Ca8fa
ENCODING 43258
SWIDTH 666 0
DWIDTH 16 0
BBX 16 14 0 0
BITMAP
ff80
2200
23fc
3e04
2284
2288
3e88
2250
2220
3e50
e248
428e
0304
0200
ENDCHAR
STARTCHAR Ca8fb
ENCODING 43259
SWIDTH 666 0
DWIDTH 16 0
BBX 16 14 0 0
BITMAP
0800
0f00
08fc
0804
ff88
0888
0848
2c50
2b20
4950
4850
8888
290e
1204
ENDCHAR
STARTCHAR Ca8fc
ENCODING 43260
SWIDTH 666 0
DWIDTH 16 0
BBX 16 14 0 0
BITMAP
0078
3f80
1210
0920
7ffe
4002
8004
1ff0
0820
0440
0380
06c0
183c
6018
ENDCHAR
STARTCHAR Ca8fd
ENCODING 43261
SWIDTH 666 0
DWIDTH 16 0
BBX 16 14 0 0
BITMAP
0040
0840
fc48
8bfc
8840
8844
8ffe
8840
88e0
8950
fa50
844e
0844
0040
ENDCHAR
STARTCHAR Ca8fe
ENCODING 43262
SWIDTH 666 0
DWIDTH 16 0
BBX 16 14 0 0
BITMAP
0002
03ff
0004
7804
49f4
4914
4914
4914
79f4
4814
0004
0004
0014
0008
ENDCHAR
STARTCHAR Ca940
ENCODING 43328
SWIDTH 666 0
DWIDTH 16 0
BBX 16 14 0 0
BITMAP
0400
0400
f404
9fbe
94a4
94a4
94a4
94a4
94a4
f4a4
88a4
0abc
1124
2000
ENDCHAR
STARTCHAR Ca941
ENCODING 43329
SWIDTH 666 0
DWIDTH 16 0
BBX 16 14 0 0
BITMAP
0004
07fe
f820
8820
8820
8840
88c0
8950
894c
8a46
fc42
8840
0044
0ffe
ENDCHAR
STARTCHAR Ca942
ENCODING 43330
SWIDTH 666 0
DWIDTH 16 0
BBX 16 14 0 0
BITMAP
0040
0040
f844
8ffe
8840
8840
8848
8bfc
8a08
fa08
8a08
0208
03f8
0208
ENDCHAR
STARTCHAR Ca943
ENCODING 43331
SWIDTH 666 0
DWIDTH 16 0
BBX 16 14 0 0
BITMAP
0008
09fc
fd08
8908
8908
89f8
8908
8908
89f8
8908
f908
8908
0108
07fe
ENDCHAR
STARTCHAR Ca944
ENCODING 43332
SWIDTH 666 0
DWIDTH 16 0
BBX 16 14 0 0
BITMAP
0020
0020
0824
fdfe
8924
8924
89fc
8924
8924
f9fc
8924
0020
0020
0020
ENDCHAR
STARTCHAR Ca945
ENCODING 43333
SWIDTH 666 0
DWIDTH 16 0
BBX 16 14 0 0
BITMAP
09fc
7924
4924
4924
49fc
4924
4924
49fc
7924
4820
0020
0020
0020
0020
ENDCHAR
STARTCHAR Ca946
ENCODING 43334
SWIDTH 666 0
DWIDTH 16 0
BBX 16 14 0 0
BITMAP
0820
7d24
4924
4924
4924
49fc
4820
4924
4924
7924
4924
0124
01fc
0004
ENDCHAR
STARTCHAR Ca947
ENCODING 43335
SWIDTH 666 0
DWIDTH 16 0
BBX 16 14 0 0
BITMAP
0408
7efc
4488
4488
7cf8
0000
0040
0fe0
0840
0840
0842
1042
2042
403e
ENDCHAR
STARTCHAR Ca948
ENCODING 43336
SWIDTH 666 0
DWIDTH 16 0
BBX 16 14 0 0
BITMAP
0080
0084
f8fe
8904
8be4
8d24
8924
89e4
f904
8918
0100
0102
0102
00fe
ENDCHAR
STARTCHAR Ca949
ENCODING 43337
SWIDTH 666 0
DWIDTH 16 0
BBX 16 14 0 0
BITMAP
0008
001c
fbe0
8a48
8958
8960
8844
8ffe
8840
f840
8840
0040
0140
0080
ENDCHAR
STARTCHAR Ca94a
ENCODING 43338
SWIDTH 666 0
DWIDTH 16 0
BBX 16 14 0 0
BITMAP
0088
0888
fc88
8908
8bfe
8d08
8948
8928
8928
f908
8908
0108
0128
0110
ENDCHAR
STARTCHAR Ca94b
ENCODING 43339
SWIDTH 666 0
DWIDTH 16 0
BBX 16 14 0 0
BITMAP
001c
7be0
4a48
4a48
4a48
4a48
4a48
4a48
4a48
7a48
44a4
0514
09f2
1000
ENDCHAR
STARTCHAR Ca94c
ENCODING 43340
SWIDTH 666 0
DWIDTH 16 0
BBX 16 14 0 0
BITMAP
0200
0208
727c
5f88
5488
54a8
54a8
54b8
5510
7228
5528
08c4
1044
0082
ENDCHAR
STARTCHAR Ca94d
ENCODING 43341
SWIDTH 666 0
DWIDTH 16 0
BBX 16 14 0 0
BITMAP
0200
0700
7800
0804
08fe
ff84
0884
1884
1c84
2a84
4884
88fc
0884
0800
ENDCHAR
STARTCHAR Ca94e
ENCODING 43342
SWIDTH 666 0
DWIDTH 16 0
BBX 16 14 0 0
BITMAP
0880
78f8
4908
4910
4aa0
4840
48a0
4b9e
4c64
7820
4980
0060
0010
0000
ENDCHAR
STARTCHAR Ca94f
ENCODING 43343
SWIDTH 666 0
DWIDTH 16 0
BBX 16 14 0 0
BITMAP
0004
03fe
f204
9204
93fc
9200
9280
9280
92fc
f480
8482
0882
1082
207e
ENDCHAR
STARTCHAR Ca950
ENCODING 43344
SWIDTH 666 0
DWIDTH 16 0
BBX 16 14 0 0
BITMAP
0004
7ffe
4104
4fe4
4104
4104
5ff4
4004
4fe4
4824
4fe4
4824
8014
0008
ENDCHAR
STARTCHAR Ca951
ENCODING 43345
SWIDTH 666 0
DWIDTH 16 0
BBX 16 14 0 0
BITMAP
0100
f904
89fe
8a80
8a80
8c88
88fc
8880
8880
f884
88fe
0080
0080
0080
ENDCHAR
STARTCHAR Ca952
ENCODING 43346
SWIDTH 666 0
DWIDTH 16 0
BBX 16 14 0 0
BITMAP
0380
0440
0820
1010
2fe8
c006
0000
3ef8
2288
2288
3ec8
22b0
0080
0080
ENDCHAR
STARTCHAR Ca953
ENCODING 43347
SWIDTH 666 0
DWIDTH 16 0
BBX 16 14 0 0
BITMAP
1020
1220
1f20
6220
1458
0888
1400
23fe
c000
1ff0
1010
1010
1ff0
1010
ENDCHAR
STARTCHAR Ca954
ENCODING 43348
SWIDTH 666 0
DWIDTH 16 0
BBX 16 14 0 0
BITMAP
0004
fffe
8204
bff4
8204
8204
9fe4
9024
9024
9fe4
9024
8004
fffc
8004
ENDCHAR
ENDFONT
